<?xml version="1.0" encoding="utf-8" standalone="no"?>
<!DOCTYPE svg PUBLIC "-//W3C//DTD SVG 1.1//EN"
  "http://www.w3.org/Graphics/SVG/1.1/DTD/svg11.dtd">
<!-- Created with matplotlib (https://matplotlib.org/) -->
<svg height="425.85pt" version="1.1" viewBox="0 0 1569.6 425.85" width="1569.6pt" xmlns="http://www.w3.org/2000/svg" xmlns:xlink="http://www.w3.org/1999/xlink">
 <metadata>
  <rdf:RDF xmlns:cc="http://creativecommons.org/ns#" xmlns:dc="http://purl.org/dc/elements/1.1/" xmlns:rdf="http://www.w3.org/1999/02/22-rdf-syntax-ns#">
   <cc:Work>
    <dc:type rdf:resource="http://purl.org/dc/dcmitype/StillImage"/>
    <dc:date>2021-07-05T08:56:22.621916</dc:date>
    <dc:format>image/svg+xml</dc:format>
    <dc:creator>
     <cc:Agent>
      <dc:title>Matplotlib v3.3.3, https://matplotlib.org/</dc:title>
     </cc:Agent>
    </dc:creator>
   </cc:Work>
  </rdf:RDF>
 </metadata>
 <defs>
  <style type="text/css">*{stroke-linecap:butt;stroke-linejoin:round;}</style>
 </defs>
 <g id="figure_1">
  <g id="patch_1">
   <path d="M 0 425.85 
L 1569.6 425.85 
L 1569.6 0 
L 0 0 
z
" style="fill:#ffffff;"/>
  </g>
  <g id="axes_1">
   <g id="patch_2">
    <path d="M 7.2 412 
L 396 412 
L 396 23.2 
L 7.2 23.2 
z
" style="fill:#ffffff;"/>
   </g>
   <g id="LineCollection_1">
    <path clip-path="url(#p119bffb6dc)" d="M 340.457143 217.6 
L 338.563312 194.744865 
L 332.93348 172.513159 
L 323.721212 151.511305 
L 311.177796 132.312178 
L 295.645384 115.43948 
L 277.547659 101.353455 
L 257.378279 90.438332 
L 235.687413 82.991849 
L 213.066732 79.217125 
L 190.133268 79.217125 
L 167.512587 82.991849 
L 145.821721 90.438332 
L 125.652341 101.353455 
L 107.554616 115.43948 
L 92.022204 132.312178 
L 79.478788 151.511305 
L 70.26652 172.513159 
L 64.636688 194.744865 
L 62.742857 217.6 
" style="fill:none;stroke:#1f77b4;stroke-width:10;"/>
    <path clip-path="url(#p119bffb6dc)" d="M 62.742857 217.6 
L 64.636688 240.455135 
L 70.26652 262.686841 
L 79.478788 283.688695 
L 92.022204 302.887822 
L 107.554616 319.76052 
L 125.652341 333.846545 
L 145.821721 344.761668 
L 167.512587 352.208151 
L 190.133268 355.982875 
L 213.066732 355.982875 
L 235.687413 352.208151 
L 257.378279 344.761668 
L 277.547659 333.846545 
L 295.645384 319.76052 
L 311.177796 302.887822 
L 323.721212 283.688695 
L 332.93348 262.686841 
L 338.563312 240.455135 
L 340.457143 217.6 
" style="fill:none;stroke:#aec7e8;stroke-width:10;"/>
   </g>
   <g id="LineCollection_2">
    <path clip-path="url(#p119bffb6dc)" d="M 62.742857 217.6 
L 67.079155 217.6 
L 71.581871 217.6 
L 76.243923 217.6 
L 81.058229 217.6 
L 86.017707 217.6 
L 91.115277 217.6 
L 96.343857 217.6 
L 101.696364 217.6 
L 107.165718 217.6 
L 112.744836 217.6 
L 118.426638 217.6 
L 124.204041 217.6 
L 130.069965 217.6 
L 136.017326 217.6 
L 142.039044 217.6 
L 148.128038 217.6 
L 154.277225 217.6 
L 160.479524 217.6 
L 166.727854 217.6 
L 173.015132 217.6 
L 179.334277 217.6 
L 185.678208 217.6 
L 192.039843 217.6 
L 198.412101 217.6 
L 204.787899 217.6 
L 211.160157 217.6 
L 217.521792 217.6 
L 223.865723 217.6 
L 230.184868 217.6 
L 236.472146 217.6 
L 242.720476 217.6 
L 248.922775 217.6 
L 255.071962 217.6 
L 261.160956 217.6 
L 267.182674 217.6 
L 273.130035 217.6 
L 278.995959 217.6 
L 284.773362 217.6 
L 290.455164 217.6 
L 296.034282 217.6 
L 301.503636 217.6 
L 306.856143 217.6 
L 312.084723 217.6 
L 317.182293 217.6 
L 322.141771 217.6 
L 326.956077 217.6 
L 331.618129 217.6 
L 336.120845 217.6 
L 340.457143 217.6 
" style="fill:none;stroke:#aec7e8;stroke-width:0.5;"/>
   </g>
   <g id="PathCollection_1">
    <defs>
     <path d="M 0 5 
C 1.326016 5 2.597899 4.473168 3.535534 3.535534 
C 4.473168 2.597899 5 1.326016 5 -0 
C 5 -1.326016 4.473168 -2.597899 3.535534 -3.535534 
C 2.597899 -4.473168 1.326016 -5 0 -5 
C -1.326016 -5 -2.597899 -4.473168 -3.535534 -3.535534 
C -4.473168 -2.597899 -5 -1.326016 -5 0 
C -5 1.326016 -4.473168 2.597899 -3.535534 3.535534 
C -2.597899 4.473168 -1.326016 5 0 5 
z
" id="C0_0_4f618dd71f"/>
    </defs>
    <g clip-path="url(#p119bffb6dc)">
     <use style="fill:#1f77b4;stroke:#000000;" x="201.6" xlink:href="#C0_0_4f618dd71f" y="78.742857"/>
    </g>
    <g clip-path="url(#p119bffb6dc)">
     <use style="fill:#aec7e8;stroke:#000000;" x="201.6" xlink:href="#C0_0_4f618dd71f" y="356.457143"/>
    </g>
   </g>
   <g id="text_1">
    <!-- AP-AT-02-W04 -->
    <g transform="translate(203.8075 71.8)rotate(-90)scale(0.08 -0.08)">
     <defs>
      <path d="M 34.1875 63.1875 
L 20.796875 26.90625 
L 47.609375 26.90625 
z
M 28.609375 72.90625 
L 39.796875 72.90625 
L 67.578125 0 
L 57.328125 0 
L 50.6875 18.703125 
L 17.828125 18.703125 
L 11.1875 0 
L 0.78125 0 
z
" id="DejaVuSans-65"/>
      <path d="M 19.671875 64.796875 
L 19.671875 37.40625 
L 32.078125 37.40625 
Q 38.96875 37.40625 42.71875 40.96875 
Q 46.484375 44.53125 46.484375 51.125 
Q 46.484375 57.671875 42.71875 61.234375 
Q 38.96875 64.796875 32.078125 64.796875 
z
M 9.8125 72.90625 
L 32.078125 72.90625 
Q 44.34375 72.90625 50.609375 67.359375 
Q 56.890625 61.8125 56.890625 51.125 
Q 56.890625 40.328125 50.609375 34.8125 
Q 44.34375 29.296875 32.078125 29.296875 
L 19.671875 29.296875 
L 19.671875 0 
L 9.8125 0 
z
" id="DejaVuSans-80"/>
      <path d="M 4.890625 31.390625 
L 31.203125 31.390625 
L 31.203125 23.390625 
L 4.890625 23.390625 
z
" id="DejaVuSans-45"/>
      <path d="M -0.296875 72.90625 
L 61.375 72.90625 
L 61.375 64.59375 
L 35.5 64.59375 
L 35.5 0 
L 25.59375 0 
L 25.59375 64.59375 
L -0.296875 64.59375 
z
" id="DejaVuSans-84"/>
      <path d="M 31.78125 66.40625 
Q 24.171875 66.40625 20.328125 58.90625 
Q 16.5 51.421875 16.5 36.375 
Q 16.5 21.390625 20.328125 13.890625 
Q 24.171875 6.390625 31.78125 6.390625 
Q 39.453125 6.390625 43.28125 13.890625 
Q 47.125 21.390625 47.125 36.375 
Q 47.125 51.421875 43.28125 58.90625 
Q 39.453125 66.40625 31.78125 66.40625 
z
M 31.78125 74.21875 
Q 44.046875 74.21875 50.515625 64.515625 
Q 56.984375 54.828125 56.984375 36.375 
Q 56.984375 17.96875 50.515625 8.265625 
Q 44.046875 -1.421875 31.78125 -1.421875 
Q 19.53125 -1.421875 13.0625 8.265625 
Q 6.59375 17.96875 6.59375 36.375 
Q 6.59375 54.828125 13.0625 64.515625 
Q 19.53125 74.21875 31.78125 74.21875 
z
" id="DejaVuSans-48"/>
      <path d="M 19.1875 8.296875 
L 53.609375 8.296875 
L 53.609375 0 
L 7.328125 0 
L 7.328125 8.296875 
Q 12.9375 14.109375 22.625 23.890625 
Q 32.328125 33.6875 34.8125 36.53125 
Q 39.546875 41.84375 41.421875 45.53125 
Q 43.3125 49.21875 43.3125 52.78125 
Q 43.3125 58.59375 39.234375 62.25 
Q 35.15625 65.921875 28.609375 65.921875 
Q 23.96875 65.921875 18.8125 64.3125 
Q 13.671875 62.703125 7.8125 59.421875 
L 7.8125 69.390625 
Q 13.765625 71.78125 18.9375 73 
Q 24.125 74.21875 28.421875 74.21875 
Q 39.75 74.21875 46.484375 68.546875 
Q 53.21875 62.890625 53.21875 53.421875 
Q 53.21875 48.921875 51.53125 44.890625 
Q 49.859375 40.875 45.40625 35.40625 
Q 44.1875 33.984375 37.640625 27.21875 
Q 31.109375 20.453125 19.1875 8.296875 
z
" id="DejaVuSans-50"/>
      <path d="M 3.328125 72.90625 
L 13.28125 72.90625 
L 28.609375 11.28125 
L 43.890625 72.90625 
L 54.984375 72.90625 
L 70.3125 11.28125 
L 85.59375 72.90625 
L 95.609375 72.90625 
L 77.296875 0 
L 64.890625 0 
L 49.515625 63.28125 
L 33.984375 0 
L 21.578125 0 
z
" id="DejaVuSans-87"/>
      <path d="M 37.796875 64.3125 
L 12.890625 25.390625 
L 37.796875 25.390625 
z
M 35.203125 72.90625 
L 47.609375 72.90625 
L 47.609375 25.390625 
L 58.015625 25.390625 
L 58.015625 17.1875 
L 47.609375 17.1875 
L 47.609375 0 
L 37.796875 0 
L 37.796875 17.1875 
L 4.890625 17.1875 
L 4.890625 26.703125 
z
" id="DejaVuSans-52"/>
     </defs>
     <use xlink:href="#DejaVuSans-65"/>
     <use x="68.408203" xlink:href="#DejaVuSans-80"/>
     <use x="126.460938" xlink:href="#DejaVuSans-45"/>
     <use x="160.294922" xlink:href="#DejaVuSans-65"/>
     <use x="220.953125" xlink:href="#DejaVuSans-84"/>
     <use x="272.912109" xlink:href="#DejaVuSans-45"/>
     <use x="308.996094" xlink:href="#DejaVuSans-48"/>
     <use x="372.619141" xlink:href="#DejaVuSans-50"/>
     <use x="436.242188" xlink:href="#DejaVuSans-45"/>
     <use x="468.326172" xlink:href="#DejaVuSans-87"/>
     <use x="567.203125" xlink:href="#DejaVuSans-48"/>
     <use x="630.826172" xlink:href="#DejaVuSans-52"/>
    </g>
   </g>
   <g id="text_2">
    <!-- AP-AT-02-W01 -->
    <g transform="translate(199.3925 363.4)rotate(-270)scale(0.08 -0.08)">
     <defs>
      <path d="M 12.40625 8.296875 
L 28.515625 8.296875 
L 28.515625 63.921875 
L 10.984375 60.40625 
L 10.984375 69.390625 
L 28.421875 72.90625 
L 38.28125 72.90625 
L 38.28125 8.296875 
L 54.390625 8.296875 
L 54.390625 0 
L 12.40625 0 
z
" id="DejaVuSans-49"/>
     </defs>
     <use xlink:href="#DejaVuSans-65"/>
     <use x="68.408203" xlink:href="#DejaVuSans-80"/>
     <use x="126.460938" xlink:href="#DejaVuSans-45"/>
     <use x="160.294922" xlink:href="#DejaVuSans-65"/>
     <use x="220.953125" xlink:href="#DejaVuSans-84"/>
     <use x="272.912109" xlink:href="#DejaVuSans-45"/>
     <use x="308.996094" xlink:href="#DejaVuSans-48"/>
     <use x="372.619141" xlink:href="#DejaVuSans-50"/>
     <use x="436.242188" xlink:href="#DejaVuSans-45"/>
     <use x="468.326172" xlink:href="#DejaVuSans-87"/>
     <use x="567.203125" xlink:href="#DejaVuSans-48"/>
     <use x="630.826172" xlink:href="#DejaVuSans-49"/>
    </g>
   </g>
   <g id="text_3">
    <!-- Movements cluster 0 -->
    <g transform="translate(138.65625 17.2)scale(0.12 -0.12)">
     <defs>
      <path d="M 9.8125 72.90625 
L 24.515625 72.90625 
L 43.109375 23.296875 
L 61.8125 72.90625 
L 76.515625 72.90625 
L 76.515625 0 
L 66.890625 0 
L 66.890625 64.015625 
L 48.09375 14.015625 
L 38.1875 14.015625 
L 19.390625 64.015625 
L 19.390625 0 
L 9.8125 0 
z
" id="DejaVuSans-77"/>
      <path d="M 30.609375 48.390625 
Q 23.390625 48.390625 19.1875 42.75 
Q 14.984375 37.109375 14.984375 27.296875 
Q 14.984375 17.484375 19.15625 11.84375 
Q 23.34375 6.203125 30.609375 6.203125 
Q 37.796875 6.203125 41.984375 11.859375 
Q 46.1875 17.53125 46.1875 27.296875 
Q 46.1875 37.015625 41.984375 42.703125 
Q 37.796875 48.390625 30.609375 48.390625 
z
M 30.609375 56 
Q 42.328125 56 49.015625 48.375 
Q 55.71875 40.765625 55.71875 27.296875 
Q 55.71875 13.875 49.015625 6.21875 
Q 42.328125 -1.421875 30.609375 -1.421875 
Q 18.84375 -1.421875 12.171875 6.21875 
Q 5.515625 13.875 5.515625 27.296875 
Q 5.515625 40.765625 12.171875 48.375 
Q 18.84375 56 30.609375 56 
z
" id="DejaVuSans-111"/>
      <path d="M 2.984375 54.6875 
L 12.5 54.6875 
L 29.59375 8.796875 
L 46.6875 54.6875 
L 56.203125 54.6875 
L 35.6875 0 
L 23.484375 0 
z
" id="DejaVuSans-118"/>
      <path d="M 56.203125 29.59375 
L 56.203125 25.203125 
L 14.890625 25.203125 
Q 15.484375 15.921875 20.484375 11.0625 
Q 25.484375 6.203125 34.421875 6.203125 
Q 39.59375 6.203125 44.453125 7.46875 
Q 49.3125 8.734375 54.109375 11.28125 
L 54.109375 2.78125 
Q 49.265625 0.734375 44.1875 -0.34375 
Q 39.109375 -1.421875 33.890625 -1.421875 
Q 20.796875 -1.421875 13.15625 6.1875 
Q 5.515625 13.8125 5.515625 26.8125 
Q 5.515625 40.234375 12.765625 48.109375 
Q 20.015625 56 32.328125 56 
Q 43.359375 56 49.78125 48.890625 
Q 56.203125 41.796875 56.203125 29.59375 
z
M 47.21875 32.234375 
Q 47.125 39.59375 43.09375 43.984375 
Q 39.0625 48.390625 32.421875 48.390625 
Q 24.90625 48.390625 20.390625 44.140625 
Q 15.875 39.890625 15.1875 32.171875 
z
" id="DejaVuSans-101"/>
      <path d="M 52 44.1875 
Q 55.375 50.25 60.0625 53.125 
Q 64.75 56 71.09375 56 
Q 79.640625 56 84.28125 50.015625 
Q 88.921875 44.046875 88.921875 33.015625 
L 88.921875 0 
L 79.890625 0 
L 79.890625 32.71875 
Q 79.890625 40.578125 77.09375 44.375 
Q 74.3125 48.1875 68.609375 48.1875 
Q 61.625 48.1875 57.5625 43.546875 
Q 53.515625 38.921875 53.515625 30.90625 
L 53.515625 0 
L 44.484375 0 
L 44.484375 32.71875 
Q 44.484375 40.625 41.703125 44.40625 
Q 38.921875 48.1875 33.109375 48.1875 
Q 26.21875 48.1875 22.15625 43.53125 
Q 18.109375 38.875 18.109375 30.90625 
L 18.109375 0 
L 9.078125 0 
L 9.078125 54.6875 
L 18.109375 54.6875 
L 18.109375 46.1875 
Q 21.1875 51.21875 25.484375 53.609375 
Q 29.78125 56 35.6875 56 
Q 41.65625 56 45.828125 52.96875 
Q 50 49.953125 52 44.1875 
z
" id="DejaVuSans-109"/>
      <path d="M 54.890625 33.015625 
L 54.890625 0 
L 45.90625 0 
L 45.90625 32.71875 
Q 45.90625 40.484375 42.875 44.328125 
Q 39.84375 48.1875 33.796875 48.1875 
Q 26.515625 48.1875 22.3125 43.546875 
Q 18.109375 38.921875 18.109375 30.90625 
L 18.109375 0 
L 9.078125 0 
L 9.078125 54.6875 
L 18.109375 54.6875 
L 18.109375 46.1875 
Q 21.34375 51.125 25.703125 53.5625 
Q 30.078125 56 35.796875 56 
Q 45.21875 56 50.046875 50.171875 
Q 54.890625 44.34375 54.890625 33.015625 
z
" id="DejaVuSans-110"/>
      <path d="M 18.3125 70.21875 
L 18.3125 54.6875 
L 36.8125 54.6875 
L 36.8125 47.703125 
L 18.3125 47.703125 
L 18.3125 18.015625 
Q 18.3125 11.328125 20.140625 9.421875 
Q 21.96875 7.515625 27.59375 7.515625 
L 36.8125 7.515625 
L 36.8125 0 
L 27.59375 0 
Q 17.1875 0 13.234375 3.875 
Q 9.28125 7.765625 9.28125 18.015625 
L 9.28125 47.703125 
L 2.6875 47.703125 
L 2.6875 54.6875 
L 9.28125 54.6875 
L 9.28125 70.21875 
z
" id="DejaVuSans-116"/>
      <path d="M 44.28125 53.078125 
L 44.28125 44.578125 
Q 40.484375 46.53125 36.375 47.5 
Q 32.28125 48.484375 27.875 48.484375 
Q 21.1875 48.484375 17.84375 46.4375 
Q 14.5 44.390625 14.5 40.28125 
Q 14.5 37.15625 16.890625 35.375 
Q 19.28125 33.59375 26.515625 31.984375 
L 29.59375 31.296875 
Q 39.15625 29.25 43.1875 25.515625 
Q 47.21875 21.78125 47.21875 15.09375 
Q 47.21875 7.46875 41.1875 3.015625 
Q 35.15625 -1.421875 24.609375 -1.421875 
Q 20.21875 -1.421875 15.453125 -0.5625 
Q 10.6875 0.296875 5.421875 2 
L 5.421875 11.28125 
Q 10.40625 8.6875 15.234375 7.390625 
Q 20.0625 6.109375 24.8125 6.109375 
Q 31.15625 6.109375 34.5625 8.28125 
Q 37.984375 10.453125 37.984375 14.40625 
Q 37.984375 18.0625 35.515625 20.015625 
Q 33.0625 21.96875 24.703125 23.78125 
L 21.578125 24.515625 
Q 13.234375 26.265625 9.515625 29.90625 
Q 5.8125 33.546875 5.8125 39.890625 
Q 5.8125 47.609375 11.28125 51.796875 
Q 16.75 56 26.8125 56 
Q 31.78125 56 36.171875 55.265625 
Q 40.578125 54.546875 44.28125 53.078125 
z
" id="DejaVuSans-115"/>
      <path id="DejaVuSans-32"/>
      <path d="M 48.78125 52.59375 
L 48.78125 44.1875 
Q 44.96875 46.296875 41.140625 47.34375 
Q 37.3125 48.390625 33.40625 48.390625 
Q 24.65625 48.390625 19.8125 42.84375 
Q 14.984375 37.3125 14.984375 27.296875 
Q 14.984375 17.28125 19.8125 11.734375 
Q 24.65625 6.203125 33.40625 6.203125 
Q 37.3125 6.203125 41.140625 7.25 
Q 44.96875 8.296875 48.78125 10.40625 
L 48.78125 2.09375 
Q 45.015625 0.34375 40.984375 -0.53125 
Q 36.96875 -1.421875 32.421875 -1.421875 
Q 20.0625 -1.421875 12.78125 6.34375 
Q 5.515625 14.109375 5.515625 27.296875 
Q 5.515625 40.671875 12.859375 48.328125 
Q 20.21875 56 33.015625 56 
Q 37.15625 56 41.109375 55.140625 
Q 45.0625 54.296875 48.78125 52.59375 
z
" id="DejaVuSans-99"/>
      <path d="M 9.421875 75.984375 
L 18.40625 75.984375 
L 18.40625 0 
L 9.421875 0 
z
" id="DejaVuSans-108"/>
      <path d="M 8.5 21.578125 
L 8.5 54.6875 
L 17.484375 54.6875 
L 17.484375 21.921875 
Q 17.484375 14.15625 20.5 10.265625 
Q 23.53125 6.390625 29.59375 6.390625 
Q 36.859375 6.390625 41.078125 11.03125 
Q 45.3125 15.671875 45.3125 23.6875 
L 45.3125 54.6875 
L 54.296875 54.6875 
L 54.296875 0 
L 45.3125 0 
L 45.3125 8.40625 
Q 42.046875 3.421875 37.71875 1 
Q 33.40625 -1.421875 27.6875 -1.421875 
Q 18.265625 -1.421875 13.375 4.4375 
Q 8.5 10.296875 8.5 21.578125 
z
M 31.109375 56 
z
" id="DejaVuSans-117"/>
      <path d="M 41.109375 46.296875 
Q 39.59375 47.171875 37.8125 47.578125 
Q 36.03125 48 33.890625 48 
Q 26.265625 48 22.1875 43.046875 
Q 18.109375 38.09375 18.109375 28.8125 
L 18.109375 0 
L 9.078125 0 
L 9.078125 54.6875 
L 18.109375 54.6875 
L 18.109375 46.1875 
Q 20.953125 51.171875 25.484375 53.578125 
Q 30.03125 56 36.53125 56 
Q 37.453125 56 38.578125 55.875 
Q 39.703125 55.765625 41.0625 55.515625 
z
" id="DejaVuSans-114"/>
     </defs>
     <use xlink:href="#DejaVuSans-77"/>
     <use x="86.279297" xlink:href="#DejaVuSans-111"/>
     <use x="147.460938" xlink:href="#DejaVuSans-118"/>
     <use x="206.640625" xlink:href="#DejaVuSans-101"/>
     <use x="268.164062" xlink:href="#DejaVuSans-109"/>
     <use x="365.576172" xlink:href="#DejaVuSans-101"/>
     <use x="427.099609" xlink:href="#DejaVuSans-110"/>
     <use x="490.478516" xlink:href="#DejaVuSans-116"/>
     <use x="529.6875" xlink:href="#DejaVuSans-115"/>
     <use x="581.787109" xlink:href="#DejaVuSans-32"/>
     <use x="613.574219" xlink:href="#DejaVuSans-99"/>
     <use x="668.554688" xlink:href="#DejaVuSans-108"/>
     <use x="696.337891" xlink:href="#DejaVuSans-117"/>
     <use x="759.716797" xlink:href="#DejaVuSans-115"/>
     <use x="811.816406" xlink:href="#DejaVuSans-116"/>
     <use x="851.025391" xlink:href="#DejaVuSans-101"/>
     <use x="912.548828" xlink:href="#DejaVuSans-114"/>
     <use x="953.662109" xlink:href="#DejaVuSans-32"/>
     <use x="985.449219" xlink:href="#DejaVuSans-48"/>
    </g>
   </g>
  </g>
  <g id="axes_2">
   <g id="patch_3">
    <path d="M 590.4 412 
L 979.2 412 
L 979.2 23.2 
L 590.4 23.2 
z
" style="fill:#ffffff;"/>
   </g>
   <g id="LineCollection_3">
    <path clip-path="url(#p0f424d3d86)" d="M 923.657143 217.6 
L 923.353549 208.42285 
L 922.444096 199.28583 
L 920.932761 190.228893 
L 918.826152 181.291642 
L 916.13348 172.513159 
L 912.86652 163.93183 
L 909.039558 155.585177 
L 904.669328 147.5097 
L 899.774941 139.740709 
L 894.377796 132.312178 
L 888.501497 125.256588 
L 882.171736 118.604793 
L 875.416194 112.385878 
L 868.264411 106.627038 
L 860.747659 101.353455 
L 852.898807 96.588188 
L 844.752176 92.352075 
L 836.343389 88.663639 
L 827.709217 85.539009 
" style="fill:none;stroke:#1f77b4;stroke-width:10;"/>
    <path clip-path="url(#p0f424d3d86)" d="M 827.709217 85.539009 
L 809.916554 81.033295 
L 791.685059 78.913656 
L 773.333268 79.217125 
L 755.181823 81.9384 
L 737.547862 87.029936 
L 720.739484 94.402774 
L 705.050363 103.928097 
L 690.754616 115.43948 
L 678.102017 128.735797 
L 667.313631 143.584737 
L 658.57795 159.726862 
L 652.047603 176.880138 
L 647.836688 194.744865 
L 646.018776 213.008915 
L 646.625631 231.353179 
L 649.64665 249.45715 
L 655.029049 267.004517 
L 662.678788 283.688695 
L 672.462212 299.218181 
" style="fill:none;stroke:#aec7e8;stroke-width:10;"/>
    <path clip-path="url(#p0f424d3d86)" d="M 672.462212 299.218181 
L 684.208386 313.321645 
L 697.712083 325.752674 
L 712.737368 336.294074 
L 729.021721 344.761668 
L 746.280625 351.00751 
L 764.212533 354.922476 
L 782.504144 356.438162 
L 800.835867 355.528087 
L 818.887413 352.208151 
L 836.343389 346.536361 
L 852.898807 338.611812 
L 868.264411 328.572962 
L 882.171736 316.595207 
L 894.377796 302.887822 
L 904.669328 287.6903 
L 912.86652 271.26817 
L 918.826152 253.908358 
L 922.444096 235.91417 
L 923.657143 217.6 
" style="fill:none;stroke:#ff7f0e;stroke-width:10;"/>
   </g>
   <g id="LineCollection_4">
    <path clip-path="url(#p0f424d3d86)" d="M 923.657143 217.6 
L 919.3373 217.650643 
L 914.883498 217.801185 
L 910.302144 218.049546 
L 905.599641 218.393642 
L 900.782397 218.831394 
L 895.856815 219.36072 
L 890.829302 219.979539 
L 885.706263 220.685769 
L 880.494103 221.47733 
L 875.199228 222.35214 
L 869.828042 223.308118 
L 864.386952 224.343183 
L 858.882362 225.455253 
L 853.320678 226.642247 
L 847.708306 227.902085 
L 842.05165 229.232684 
L 836.357117 230.631964 
L 830.631111 232.097843 
L 824.880037 233.62824 
L 819.110302 235.221074 
L 813.328311 236.874264 
L 807.540468 238.585728 
L 801.75318 240.353386 
L 795.972851 242.175155 
L 790.205887 244.048955 
L 784.458694 245.972705 
L 778.737677 247.944323 
L 773.04924 249.961728 
L 767.39979 252.022838 
L 761.795732 254.125574 
L 756.243471 256.267852 
L 750.749413 258.447593 
L 745.319962 260.662715 
L 739.961525 262.911136 
L 734.680507 265.190776 
L 729.483312 267.499553 
L 724.376347 269.835386 
L 719.366017 272.196194 
L 714.458727 274.579895 
L 709.660882 276.984408 
L 704.978888 279.407653 
L 700.41915 281.847548 
L 695.988074 284.302011 
L 691.692065 286.768961 
L 687.537528 289.246318 
L 683.530869 291.731999 
L 679.678493 294.223924 
L 675.986806 296.720012 
L 672.462212 299.218181 
M 877.713564 320.790967 
L 874.78539 317.614585 
L 871.69334 314.405498 
L 868.443248 311.167073 
L 865.040946 307.902679 
L 861.492267 304.615681 
L 857.803044 301.309449 
L 853.979109 297.98735 
L 850.026296 294.65275 
L 845.950435 291.309018 
L 841.757362 287.959521 
L 837.452907 284.607626 
L 833.042904 281.256701 
L 828.533185 277.910114 
L 823.929584 274.571232 
L 819.237932 271.243422 
L 814.464062 267.930053 
L 809.613808 264.63449 
L 804.693002 261.360103 
L 799.707476 258.110259 
L 794.663063 254.888324 
L 789.565596 251.697667 
L 784.420908 248.541654 
L 779.23483 245.423655 
L 774.013197 242.347035 
L 768.76184 239.315163 
L 763.486593 236.331406 
L 758.193287 233.399131 
L 752.887756 230.521706 
L 747.575833 227.702499 
L 742.263349 224.944877 
L 736.956138 222.252207 
L 731.660032 219.627857 
L 726.380865 217.075195 
L 721.124468 214.597587 
L 715.896674 212.198403 
L 710.703317 209.881008 
L 705.550228 207.64877 
L 700.44324 205.505058 
L 695.388187 203.453238 
L 690.3909 201.496678 
L 685.457213 199.638746 
L 680.592958 197.882809 
L 675.803968 196.232234 
L 671.096076 194.690389 
L 666.475113 193.260641 
L 661.946914 191.946359 
L 657.51731 190.750909 
L 653.192134 189.677659 
L 648.977219 188.729977 
" style="fill:none;stroke:#ff7f0e;stroke-width:0.5;"/>
    <path clip-path="url(#p0f424d3d86)" d="M 715.371429 97.346187 
L 717.487492 101.112602 
L 719.584019 105.044979 
L 721.65961 109.136728 
L 723.712865 113.381263 
L 725.742383 117.771995 
L 727.746764 122.302337 
L 729.724608 126.9657 
L 731.674514 131.755497 
L 733.595082 136.665141 
L 735.484912 141.688043 
L 737.342604 146.817615 
L 739.166757 152.04727 
L 740.95597 157.370419 
L 742.708845 162.780476 
L 744.42398 168.270851 
L 746.099975 173.834959 
L 747.73543 179.466209 
L 749.328944 185.158016 
L 750.879118 190.90379 
L 752.384551 196.696944 
L 753.843842 202.53089 
L 755.255592 208.399041 
L 756.6184 214.294809 
L 757.930866 220.211605 
L 759.191589 226.142842 
L 760.39917 232.081932 
L 761.552207 238.022287 
L 762.649302 243.95732 
L 763.689052 249.880443 
L 764.670059 255.785067 
L 765.590922 261.664606 
L 766.45024 267.51247 
L 767.246614 273.322073 
L 767.978642 279.086826 
L 768.644926 284.800143 
L 769.244063 290.455433 
L 769.774655 296.046111 
L 770.235301 301.565589 
L 770.6246 307.007277 
L 770.941153 312.364589 
L 771.183558 317.630937 
L 771.350417 322.799733 
L 771.440327 327.864389 
L 771.45189 332.818317 
L 771.383705 337.65493 
L 771.234371 342.367639 
L 771.002488 346.949857 
L 770.686657 351.394997 
L 770.285476 355.696469 
" style="fill:none;stroke:#aec7e8;stroke-width:0.5;"/>
    <path clip-path="url(#p0f424d3d86)" d="M 827.709217 85.539009 
L 826.422477 89.499189 
L 825.18935 93.294361 
L 824.009838 96.924526 
L 822.883941 100.389683 
L 821.811657 103.689833 
L 820.792987 106.824975 
L 819.827932 109.79511 
L 818.916491 112.600237 
L 818.058664 115.240357 
L 817.254451 117.715469 
L 816.503853 120.025574 
L 815.806869 122.170671 
L 815.163498 124.150761 
L 814.573742 125.965843 
L 814.037601 127.615918 
L 813.555073 129.100986 
L 813.126159 130.421045 
L 812.75086 131.576098 
L 812.429175 132.566143 
L 812.161104 133.39118 
L 811.946647 134.05121 
L 811.785805 134.546233 
L 811.678577 134.876247 
L 811.624962 135.041255 
L 811.624962 135.041255 
L 811.678577 134.876247 
L 811.785805 134.546233 
L 811.946647 134.05121 
L 812.161104 133.39118 
L 812.429175 132.566143 
L 812.75086 131.576098 
L 813.126159 130.421045 
L 813.555073 129.100986 
L 814.037601 127.615918 
L 814.573742 125.965843 
L 815.163498 124.150761 
L 815.806869 122.170671 
L 816.503853 120.025574 
L 817.254451 117.715469 
L 818.058664 115.240357 
L 818.916491 112.600237 
L 819.827932 109.79511 
L 820.792987 106.824975 
L 821.811657 103.689833 
L 822.883941 100.389683 
L 824.009838 96.924526 
L 825.18935 93.294361 
L 826.422477 89.499189 
L 827.709217 85.539009 
" style="fill:none;stroke:#aec7e8;stroke-width:0.5;"/>
    <path clip-path="url(#p0f424d3d86)" d="M 923.657143 217.6 
L 919.3373 217.650643 
L 914.883498 217.801185 
L 910.302144 218.049546 
L 905.599641 218.393642 
L 900.782397 218.831394 
L 895.856815 219.36072 
L 890.829302 219.979539 
L 885.706263 220.685769 
L 880.494103 221.47733 
L 875.199228 222.35214 
L 869.828042 223.308118 
L 864.386952 224.343183 
L 858.882362 225.455253 
L 853.320678 226.642247 
L 847.708306 227.902085 
L 842.05165 229.232684 
L 836.357117 230.631964 
L 830.631111 232.097843 
L 824.880037 233.62824 
L 819.110302 235.221074 
L 813.328311 236.874264 
L 807.540468 238.585728 
L 801.75318 240.353386 
L 795.972851 242.175155 
L 790.205887 244.048955 
L 784.458694 245.972705 
L 778.737677 247.944323 
L 773.04924 249.961728 
L 767.39979 252.022838 
L 761.795732 254.125574 
L 756.243471 256.267852 
L 750.749413 258.447593 
L 745.319962 260.662715 
L 739.961525 262.911136 
L 734.680507 265.190776 
L 729.483312 267.499553 
L 724.376347 269.835386 
L 719.366017 272.196194 
L 714.458727 274.579895 
L 709.660882 276.984408 
L 704.978888 279.407653 
L 700.41915 281.847548 
L 695.988074 284.302011 
L 691.692065 286.768961 
L 687.537528 289.246318 
L 683.530869 291.731999 
L 679.678493 294.223924 
L 675.986806 296.720012 
L 672.462212 299.218181 
" style="fill:none;stroke:#1f77b4;stroke-width:0.5;"/>
   </g>
   <g id="PathCollection_2">
    <defs>
     <path d="M 0 5 
C 1.326016 5 2.597899 4.473168 3.535534 3.535534 
C 4.473168 2.597899 5 1.326016 5 -0 
C 5 -1.326016 4.473168 -2.597899 3.535534 -3.535534 
C 2.597899 -4.473168 1.326016 -5 0 -5 
C -1.326016 -5 -2.597899 -4.473168 -3.535534 -3.535534 
C -4.473168 -2.597899 -5 -1.326016 -5 0 
C -5 1.326016 -4.473168 2.597899 -3.535534 3.535534 
C -2.597899 4.473168 -1.326016 5 0 5 
z
" id="C1_0_82dc3c4ca3"/>
    </defs>
    <g clip-path="url(#p0f424d3d86)">
     <use style="fill:#1f77b4;stroke:#000000;" x="897.137788" xlink:href="#C1_0_82dc3c4ca3" y="135.981819"/>
    </g>
    <g clip-path="url(#p0f424d3d86)">
     <use style="fill:#aec7e8;stroke:#000000;" x="672.462212" xlink:href="#C1_0_82dc3c4ca3" y="135.981819"/>
    </g>
    <g clip-path="url(#p0f424d3d86)">
     <use style="fill:#ff7f0e;stroke:#000000;" x="827.709217" xlink:href="#C1_0_82dc3c4ca3" y="349.660991"/>
    </g>
   </g>
   <g id="text_4">
    <!-- AP-AT-02-W04 -->
    <g transform="translate(904.052214 133.686815)rotate(-36)scale(0.08 -0.08)">
     <use xlink:href="#DejaVuSans-65"/>
     <use x="68.408203" xlink:href="#DejaVuSans-80"/>
     <use x="126.460938" xlink:href="#DejaVuSans-45"/>
     <use x="160.294922" xlink:href="#DejaVuSans-65"/>
     <use x="220.953125" xlink:href="#DejaVuSans-84"/>
     <use x="272.912109" xlink:href="#DejaVuSans-45"/>
     <use x="308.996094" xlink:href="#DejaVuSans-48"/>
     <use x="372.619141" xlink:href="#DejaVuSans-50"/>
     <use x="436.242188" xlink:href="#DejaVuSans-45"/>
     <use x="468.326172" xlink:href="#DejaVuSans-87"/>
     <use x="567.203125" xlink:href="#DejaVuSans-48"/>
     <use x="630.826172" xlink:href="#DejaVuSans-52"/>
    </g>
   </g>
   <g id="text_5">
    <!-- AP-AT-02-W01 -->
    <g transform="translate(668.142858 130.115005)rotate(-144)scale(0.08 -0.08)">
     <use xlink:href="#DejaVuSans-65"/>
     <use x="68.408203" xlink:href="#DejaVuSans-80"/>
     <use x="126.460938" xlink:href="#DejaVuSans-45"/>
     <use x="160.294922" xlink:href="#DejaVuSans-65"/>
     <use x="220.953125" xlink:href="#DejaVuSans-84"/>
     <use x="272.912109" xlink:href="#DejaVuSans-45"/>
     <use x="308.996094" xlink:href="#DejaVuSans-48"/>
     <use x="372.619141" xlink:href="#DejaVuSans-50"/>
     <use x="436.242188" xlink:href="#DejaVuSans-45"/>
     <use x="468.326172" xlink:href="#DejaVuSans-87"/>
     <use x="567.203125" xlink:href="#DejaVuSans-48"/>
     <use x="630.826172" xlink:href="#DejaVuSans-49"/>
    </g>
   </g>
   <g id="text_6">
    <!-- AP-AT-02-W02 -->
    <g transform="translate(827.755221 356.946195)rotate(-288)scale(0.08 -0.08)">
     <use xlink:href="#DejaVuSans-65"/>
     <use x="68.408203" xlink:href="#DejaVuSans-80"/>
     <use x="126.460938" xlink:href="#DejaVuSans-45"/>
     <use x="160.294922" xlink:href="#DejaVuSans-65"/>
     <use x="220.953125" xlink:href="#DejaVuSans-84"/>
     <use x="272.912109" xlink:href="#DejaVuSans-45"/>
     <use x="308.996094" xlink:href="#DejaVuSans-48"/>
     <use x="372.619141" xlink:href="#DejaVuSans-50"/>
     <use x="436.242188" xlink:href="#DejaVuSans-45"/>
     <use x="468.326172" xlink:href="#DejaVuSans-87"/>
     <use x="567.203125" xlink:href="#DejaVuSans-48"/>
     <use x="630.826172" xlink:href="#DejaVuSans-50"/>
    </g>
   </g>
   <g id="text_7">
    <!-- Movements cluster 1 -->
    <g transform="translate(721.85625 17.2)scale(0.12 -0.12)">
     <use xlink:href="#DejaVuSans-77"/>
     <use x="86.279297" xlink:href="#DejaVuSans-111"/>
     <use x="147.460938" xlink:href="#DejaVuSans-118"/>
     <use x="206.640625" xlink:href="#DejaVuSans-101"/>
     <use x="268.164062" xlink:href="#DejaVuSans-109"/>
     <use x="365.576172" xlink:href="#DejaVuSans-101"/>
     <use x="427.099609" xlink:href="#DejaVuSans-110"/>
     <use x="490.478516" xlink:href="#DejaVuSans-116"/>
     <use x="529.6875" xlink:href="#DejaVuSans-115"/>
     <use x="581.787109" xlink:href="#DejaVuSans-32"/>
     <use x="613.574219" xlink:href="#DejaVuSans-99"/>
     <use x="668.554688" xlink:href="#DejaVuSans-108"/>
     <use x="696.337891" xlink:href="#DejaVuSans-117"/>
     <use x="759.716797" xlink:href="#DejaVuSans-115"/>
     <use x="811.816406" xlink:href="#DejaVuSans-116"/>
     <use x="851.025391" xlink:href="#DejaVuSans-101"/>
     <use x="912.548828" xlink:href="#DejaVuSans-114"/>
     <use x="953.662109" xlink:href="#DejaVuSans-32"/>
     <use x="985.449219" xlink:href="#DejaVuSans-49"/>
    </g>
   </g>
  </g>
  <g id="axes_3">
   <g id="patch_4">
    <path d="M 1173.6 412 
L 1562.4 412 
L 1562.4 23.2 
L 1173.6 23.2 
z
" style="fill:#ffffff;"/>
   </g>
   <g id="LineCollection_5">
    <path clip-path="url(#p99691d2c7b)" d="M 1506.857143 217.6 
L 1504.963312 194.744865 
L 1499.33348 172.513159 
L 1490.121212 151.511305 
L 1477.577796 132.312178 
L 1462.045384 115.43948 
L 1443.947659 101.353455 
L 1423.778279 90.438332 
L 1402.087413 82.991849 
L 1379.466732 79.217125 
L 1356.533268 79.217125 
L 1333.912587 82.991849 
L 1312.221721 90.438332 
L 1292.052341 101.353455 
L 1273.954616 115.43948 
L 1258.422204 132.312178 
L 1245.878788 151.511305 
L 1236.66652 172.513159 
L 1231.036688 194.744865 
L 1229.142857 217.6 
" style="fill:none;stroke:#1f77b4;stroke-width:10;"/>
    <path clip-path="url(#p99691d2c7b)" d="M 1229.142857 217.6 
L 1231.036688 240.455135 
L 1236.66652 262.686841 
L 1245.878788 283.688695 
L 1258.422204 302.887822 
L 1273.954616 319.76052 
L 1292.052341 333.846545 
L 1312.221721 344.761668 
L 1333.912587 352.208151 
L 1356.533268 355.982875 
L 1379.466732 355.982875 
L 1402.087413 352.208151 
L 1423.778279 344.761668 
L 1443.947659 333.846545 
L 1462.045384 319.76052 
L 1477.577796 302.887822 
L 1490.121212 283.688695 
L 1499.33348 262.686841 
L 1504.963312 240.455135 
L 1506.857143 217.6 
" style="fill:none;stroke:#ff7f0e;stroke-width:10;"/>
   </g>
   <g id="LineCollection_6">
    <path clip-path="url(#p99691d2c7b)" d="M 1229.142857 217.6 
L 1233.479155 217.6 
L 1237.981871 217.6 
L 1242.643923 217.6 
L 1247.458229 217.6 
L 1252.417707 217.6 
L 1257.515277 217.6 
L 1262.743857 217.6 
L 1268.096364 217.6 
L 1273.565718 217.6 
L 1279.144836 217.6 
L 1284.826638 217.6 
L 1290.604041 217.6 
L 1296.469965 217.6 
L 1302.417326 217.6 
L 1308.439044 217.6 
L 1314.528038 217.6 
L 1320.677225 217.6 
L 1326.879524 217.6 
L 1333.127854 217.6 
L 1339.415132 217.6 
L 1345.734277 217.6 
L 1352.078208 217.6 
L 1358.439843 217.6 
L 1364.812101 217.6 
L 1371.187899 217.6 
L 1377.560157 217.6 
L 1383.921792 217.6 
L 1390.265723 217.6 
L 1396.584868 217.6 
L 1402.872146 217.6 
L 1409.120476 217.6 
L 1415.322775 217.6 
L 1421.471962 217.6 
L 1427.560956 217.6 
L 1433.582674 217.6 
L 1439.530035 217.6 
L 1445.395959 217.6 
L 1451.173362 217.6 
L 1456.855164 217.6 
L 1462.434282 217.6 
L 1467.903636 217.6 
L 1473.256143 217.6 
L 1478.484723 217.6 
L 1483.582293 217.6 
L 1488.541771 217.6 
L 1493.356077 217.6 
L 1498.018129 217.6 
L 1502.520845 217.6 
L 1506.857143 217.6 
" style="fill:none;stroke:#ff7f0e;stroke-width:0.5;"/>
   </g>
   <g id="PathCollection_3">
    <defs>
     <path d="M 0 5 
C 1.326016 5 2.597899 4.473168 3.535534 3.535534 
C 4.473168 2.597899 5 1.326016 5 -0 
C 5 -1.326016 4.473168 -2.597899 3.535534 -3.535534 
C 2.597899 -4.473168 1.326016 -5 0 -5 
C -1.326016 -5 -2.597899 -4.473168 -3.535534 -3.535534 
C -4.473168 -2.597899 -5 -1.326016 -5 0 
C -5 1.326016 -4.473168 2.597899 -3.535534 3.535534 
C -2.597899 4.473168 -1.326016 5 0 5 
z
" id="C2_0_ab7da8f98e"/>
    </defs>
    <g clip-path="url(#p99691d2c7b)">
     <use style="fill:#1f77b4;stroke:#000000;" x="1368" xlink:href="#C2_0_ab7da8f98e" y="78.742857"/>
    </g>
    <g clip-path="url(#p99691d2c7b)">
     <use style="fill:#ff7f0e;stroke:#000000;" x="1368" xlink:href="#C2_0_ab7da8f98e" y="356.457143"/>
    </g>
   </g>
   <g id="text_8">
    <!-- AP-AT-02-W04 -->
    <g transform="translate(1370.2075 71.8)rotate(-90)scale(0.08 -0.08)">
     <use xlink:href="#DejaVuSans-65"/>
     <use x="68.408203" xlink:href="#DejaVuSans-80"/>
     <use x="126.460938" xlink:href="#DejaVuSans-45"/>
     <use x="160.294922" xlink:href="#DejaVuSans-65"/>
     <use x="220.953125" xlink:href="#DejaVuSans-84"/>
     <use x="272.912109" xlink:href="#DejaVuSans-45"/>
     <use x="308.996094" xlink:href="#DejaVuSans-48"/>
     <use x="372.619141" xlink:href="#DejaVuSans-50"/>
     <use x="436.242188" xlink:href="#DejaVuSans-45"/>
     <use x="468.326172" xlink:href="#DejaVuSans-87"/>
     <use x="567.203125" xlink:href="#DejaVuSans-48"/>
     <use x="630.826172" xlink:href="#DejaVuSans-52"/>
    </g>
   </g>
   <g id="text_9">
    <!-- AP-AT-02-W02 -->
    <g transform="translate(1365.7925 363.4)rotate(-270)scale(0.08 -0.08)">
     <use xlink:href="#DejaVuSans-65"/>
     <use x="68.408203" xlink:href="#DejaVuSans-80"/>
     <use x="126.460938" xlink:href="#DejaVuSans-45"/>
     <use x="160.294922" xlink:href="#DejaVuSans-65"/>
     <use x="220.953125" xlink:href="#DejaVuSans-84"/>
     <use x="272.912109" xlink:href="#DejaVuSans-45"/>
     <use x="308.996094" xlink:href="#DejaVuSans-48"/>
     <use x="372.619141" xlink:href="#DejaVuSans-50"/>
     <use x="436.242188" xlink:href="#DejaVuSans-45"/>
     <use x="468.326172" xlink:href="#DejaVuSans-87"/>
     <use x="567.203125" xlink:href="#DejaVuSans-48"/>
     <use x="630.826172" xlink:href="#DejaVuSans-50"/>
    </g>
   </g>
   <g id="text_10">
    <!-- Movements cluster 2 -->
    <g transform="translate(1305.05625 17.2)scale(0.12 -0.12)">
     <use xlink:href="#DejaVuSans-77"/>
     <use x="86.279297" xlink:href="#DejaVuSans-111"/>
     <use x="147.460938" xlink:href="#DejaVuSans-118"/>
     <use x="206.640625" xlink:href="#DejaVuSans-101"/>
     <use x="268.164062" xlink:href="#DejaVuSans-109"/>
     <use x="365.576172" xlink:href="#DejaVuSans-101"/>
     <use x="427.099609" xlink:href="#DejaVuSans-110"/>
     <use x="490.478516" xlink:href="#DejaVuSans-116"/>
     <use x="529.6875" xlink:href="#DejaVuSans-115"/>
     <use x="581.787109" xlink:href="#DejaVuSans-32"/>
     <use x="613.574219" xlink:href="#DejaVuSans-99"/>
     <use x="668.554688" xlink:href="#DejaVuSans-108"/>
     <use x="696.337891" xlink:href="#DejaVuSans-117"/>
     <use x="759.716797" xlink:href="#DejaVuSans-115"/>
     <use x="811.816406" xlink:href="#DejaVuSans-116"/>
     <use x="851.025391" xlink:href="#DejaVuSans-101"/>
     <use x="912.548828" xlink:href="#DejaVuSans-114"/>
     <use x="953.662109" xlink:href="#DejaVuSans-32"/>
     <use x="985.449219" xlink:href="#DejaVuSans-50"/>
    </g>
   </g>
  </g>
 </g>
 <defs>
  <clipPath id="p119bffb6dc">
   <rect height="388.8" width="388.8" x="7.2" y="23.2"/>
  </clipPath>
  <clipPath id="p0f424d3d86">
   <rect height="388.8" width="388.8" x="590.4" y="23.2"/>
  </clipPath>
  <clipPath id="p99691d2c7b">
   <rect height="388.8" width="388.8" x="1173.6" y="23.2"/>
  </clipPath>
 </defs>
</svg>
