<?xml version="1.0" encoding="utf-8" standalone="no"?>
<!DOCTYPE svg PUBLIC "-//W3C//DTD SVG 1.1//EN"
  "http://www.w3.org/Graphics/SVG/1.1/DTD/svg11.dtd">
<!-- Created with matplotlib (https://matplotlib.org/) -->
<svg height="415.540909pt" version="1.1" viewBox="0 0 2088 415.540909" width="2088pt" xmlns="http://www.w3.org/2000/svg" xmlns:xlink="http://www.w3.org/1999/xlink">
 <metadata>
  <rdf:RDF xmlns:cc="http://creativecommons.org/ns#" xmlns:dc="http://purl.org/dc/elements/1.1/" xmlns:rdf="http://www.w3.org/1999/02/22-rdf-syntax-ns#">
   <cc:Work>
    <dc:type rdf:resource="http://purl.org/dc/dcmitype/StillImage"/>
    <dc:date>2021-07-05T08:55:57.344454</dc:date>
    <dc:format>image/svg+xml</dc:format>
    <dc:creator>
     <cc:Agent>
      <dc:title>Matplotlib v3.3.3, https://matplotlib.org/</dc:title>
     </cc:Agent>
    </dc:creator>
   </cc:Work>
  </rdf:RDF>
 </metadata>
 <defs>
  <style type="text/css">*{stroke-linecap:butt;stroke-linejoin:round;}</style>
 </defs>
 <g id="figure_1">
  <g id="patch_1">
   <path d="M 0 415.540909 
L 2088 415.540909 
L 2088 0 
L 0 0 
z
" style="fill:#ffffff;"/>
  </g>
  <g id="axes_1">
   <g id="patch_2">
    <path d="M 7.2 400.218182 
L 384.218182 400.218182 
L 384.218182 23.2 
L 7.2 23.2 
z
" style="fill:#ffffff;"/>
   </g>
   <g id="LineCollection_1">
    <path clip-path="url(#pef5c44f3fb)" d="M 330.358442 211.709091 
L 328.522 189.546536 
L 323.062768 167.988518 
L 314.12966 147.623083 
L 301.966348 129.005748 
L 286.904615 112.644344 
L 269.355305 98.985168 
L 249.797119 88.400807 
L 228.763552 81.179975 
L 206.828346 77.519636 
L 184.589836 77.519636 
L 162.654629 81.179975 
L 141.621063 88.400807 
L 122.062877 98.985168 
L 104.513567 112.644344 
L 89.451834 129.005748 
L 77.288521 147.623083 
L 68.355413 167.988518 
L 62.896182 189.546536 
L 61.05974 211.709091 
" style="fill:none;stroke:#1f77b4;stroke-width:10;"/>
    <path clip-path="url(#pef5c44f3fb)" d="M 61.05974 211.709091 
L 62.896182 233.871646 
L 68.355413 255.429664 
L 77.288521 275.795098 
L 89.451834 294.412434 
L 104.513567 310.773838 
L 122.062877 324.433014 
L 141.621063 335.017375 
L 162.654629 342.238207 
L 184.589836 345.898546 
L 206.828346 345.898546 
L 228.763552 342.238207 
L 249.797119 335.017375 
L 269.355305 324.433014 
L 286.904615 310.773838 
L 301.966348 294.412434 
L 314.12966 275.795098 
L 323.062768 255.429664 
L 328.522 233.871646 
L 330.358442 211.709091 
" style="fill:none;stroke:#aec7e8;stroke-width:10;"/>
   </g>
   <g id="LineCollection_2">
    <path clip-path="url(#pef5c44f3fb)" d="M 61.05974 211.709091 
L 65.264635 211.709091 
L 69.630905 211.709091 
L 74.151683 211.709091 
L 78.820101 211.709091 
L 83.629292 211.709091 
L 88.57239 211.709091 
L 93.642528 211.709091 
L 98.832838 211.709091 
L 104.136454 211.709091 
L 109.546508 211.709091 
L 115.056134 211.709091 
L 120.658464 211.709091 
L 126.346632 211.709091 
L 132.113771 211.709091 
L 137.953013 211.709091 
L 143.857491 211.709091 
L 149.82034 211.709091 
L 155.83469 211.709091 
L 161.893676 211.709091 
L 167.990431 211.709091 
L 174.118087 211.709091 
L 180.269778 211.709091 
L 186.438636 211.709091 
L 192.617795 211.709091 
L 198.800387 211.709091 
L 204.979546 211.709091 
L 211.148404 211.709091 
L 217.300095 211.709091 
L 223.427751 211.709091 
L 229.524506 211.709091 
L 235.583492 211.709091 
L 241.597842 211.709091 
L 247.56069 211.709091 
L 253.465169 211.709091 
L 259.304411 211.709091 
L 265.07155 211.709091 
L 270.759718 211.709091 
L 276.362048 211.709091 
L 281.871674 211.709091 
L 287.281728 211.709091 
L 292.585344 211.709091 
L 297.775654 211.709091 
L 302.845792 211.709091 
L 307.78889 211.709091 
L 312.598081 211.709091 
L 317.266499 211.709091 
L 321.787277 211.709091 
L 326.153546 211.709091 
L 330.358442 211.709091 
" style="fill:none;stroke:#1f77b4;stroke-width:0.5;"/>
    <path clip-path="url(#pef5c44f3fb)" d="M 61.05974 211.709091 
L 65.264635 211.709091 
L 69.630905 211.709091 
L 74.151683 211.709091 
L 78.820101 211.709091 
L 83.629292 211.709091 
L 88.57239 211.709091 
L 93.642528 211.709091 
L 98.832838 211.709091 
L 104.136454 211.709091 
L 109.546508 211.709091 
L 115.056134 211.709091 
L 120.658464 211.709091 
L 126.346632 211.709091 
L 132.113771 211.709091 
L 137.953013 211.709091 
L 143.857491 211.709091 
L 149.82034 211.709091 
L 155.83469 211.709091 
L 161.893676 211.709091 
L 167.990431 211.709091 
L 174.118087 211.709091 
L 180.269778 211.709091 
L 186.438636 211.709091 
L 192.617795 211.709091 
L 198.800387 211.709091 
L 204.979546 211.709091 
L 211.148404 211.709091 
L 217.300095 211.709091 
L 223.427751 211.709091 
L 229.524506 211.709091 
L 235.583492 211.709091 
L 241.597842 211.709091 
L 247.56069 211.709091 
L 253.465169 211.709091 
L 259.304411 211.709091 
L 265.07155 211.709091 
L 270.759718 211.709091 
L 276.362048 211.709091 
L 281.871674 211.709091 
L 287.281728 211.709091 
L 292.585344 211.709091 
L 297.775654 211.709091 
L 302.845792 211.709091 
L 307.78889 211.709091 
L 312.598081 211.709091 
L 317.266499 211.709091 
L 321.787277 211.709091 
L 326.153546 211.709091 
L 330.358442 211.709091 
" style="fill:none;stroke:#aec7e8;stroke-width:0.5;"/>
   </g>
   <g id="PathCollection_1">
    <defs>
     <path d="M 0 5 
C 1.326016 5 2.597899 4.473168 3.535534 3.535534 
C 4.473168 2.597899 5 1.326016 5 -0 
C 5 -1.326016 4.473168 -2.597899 3.535534 -3.535534 
C 2.597899 -4.473168 1.326016 -5 0 -5 
C -1.326016 -5 -2.597899 -4.473168 -3.535534 -3.535534 
C -4.473168 -2.597899 -5 -1.326016 -5 0 
C -5 1.326016 -4.473168 2.597899 -3.535534 3.535534 
C -2.597899 4.473168 -1.326016 5 0 5 
z
" id="C0_0_55c55916fd"/>
    </defs>
    <g clip-path="url(#pef5c44f3fb)">
     <use style="fill:#1f77b4;stroke:#000000;" x="195.709091" xlink:href="#C0_0_55c55916fd" y="77.05974"/>
    </g>
    <g clip-path="url(#pef5c44f3fb)">
     <use style="fill:#aec7e8;stroke:#000000;" x="195.709091" xlink:href="#C0_0_55c55916fd" y="346.358442"/>
    </g>
   </g>
   <g id="text_1">
    <!-- AP-AT-02-W01 -->
    <g transform="translate(197.916591 70.327273)rotate(-90)scale(0.08 -0.08)">
     <defs>
      <path d="M 34.1875 63.1875 
L 20.796875 26.90625 
L 47.609375 26.90625 
z
M 28.609375 72.90625 
L 39.796875 72.90625 
L 67.578125 0 
L 57.328125 0 
L 50.6875 18.703125 
L 17.828125 18.703125 
L 11.1875 0 
L 0.78125 0 
z
" id="DejaVuSans-65"/>
      <path d="M 19.671875 64.796875 
L 19.671875 37.40625 
L 32.078125 37.40625 
Q 38.96875 37.40625 42.71875 40.96875 
Q 46.484375 44.53125 46.484375 51.125 
Q 46.484375 57.671875 42.71875 61.234375 
Q 38.96875 64.796875 32.078125 64.796875 
z
M 9.8125 72.90625 
L 32.078125 72.90625 
Q 44.34375 72.90625 50.609375 67.359375 
Q 56.890625 61.8125 56.890625 51.125 
Q 56.890625 40.328125 50.609375 34.8125 
Q 44.34375 29.296875 32.078125 29.296875 
L 19.671875 29.296875 
L 19.671875 0 
L 9.8125 0 
z
" id="DejaVuSans-80"/>
      <path d="M 4.890625 31.390625 
L 31.203125 31.390625 
L 31.203125 23.390625 
L 4.890625 23.390625 
z
" id="DejaVuSans-45"/>
      <path d="M -0.296875 72.90625 
L 61.375 72.90625 
L 61.375 64.59375 
L 35.5 64.59375 
L 35.5 0 
L 25.59375 0 
L 25.59375 64.59375 
L -0.296875 64.59375 
z
" id="DejaVuSans-84"/>
      <path d="M 31.78125 66.40625 
Q 24.171875 66.40625 20.328125 58.90625 
Q 16.5 51.421875 16.5 36.375 
Q 16.5 21.390625 20.328125 13.890625 
Q 24.171875 6.390625 31.78125 6.390625 
Q 39.453125 6.390625 43.28125 13.890625 
Q 47.125 21.390625 47.125 36.375 
Q 47.125 51.421875 43.28125 58.90625 
Q 39.453125 66.40625 31.78125 66.40625 
z
M 31.78125 74.21875 
Q 44.046875 74.21875 50.515625 64.515625 
Q 56.984375 54.828125 56.984375 36.375 
Q 56.984375 17.96875 50.515625 8.265625 
Q 44.046875 -1.421875 31.78125 -1.421875 
Q 19.53125 -1.421875 13.0625 8.265625 
Q 6.59375 17.96875 6.59375 36.375 
Q 6.59375 54.828125 13.0625 64.515625 
Q 19.53125 74.21875 31.78125 74.21875 
z
" id="DejaVuSans-48"/>
      <path d="M 19.1875 8.296875 
L 53.609375 8.296875 
L 53.609375 0 
L 7.328125 0 
L 7.328125 8.296875 
Q 12.9375 14.109375 22.625 23.890625 
Q 32.328125 33.6875 34.8125 36.53125 
Q 39.546875 41.84375 41.421875 45.53125 
Q 43.3125 49.21875 43.3125 52.78125 
Q 43.3125 58.59375 39.234375 62.25 
Q 35.15625 65.921875 28.609375 65.921875 
Q 23.96875 65.921875 18.8125 64.3125 
Q 13.671875 62.703125 7.8125 59.421875 
L 7.8125 69.390625 
Q 13.765625 71.78125 18.9375 73 
Q 24.125 74.21875 28.421875 74.21875 
Q 39.75 74.21875 46.484375 68.546875 
Q 53.21875 62.890625 53.21875 53.421875 
Q 53.21875 48.921875 51.53125 44.890625 
Q 49.859375 40.875 45.40625 35.40625 
Q 44.1875 33.984375 37.640625 27.21875 
Q 31.109375 20.453125 19.1875 8.296875 
z
" id="DejaVuSans-50"/>
      <path d="M 3.328125 72.90625 
L 13.28125 72.90625 
L 28.609375 11.28125 
L 43.890625 72.90625 
L 54.984375 72.90625 
L 70.3125 11.28125 
L 85.59375 72.90625 
L 95.609375 72.90625 
L 77.296875 0 
L 64.890625 0 
L 49.515625 63.28125 
L 33.984375 0 
L 21.578125 0 
z
" id="DejaVuSans-87"/>
      <path d="M 12.40625 8.296875 
L 28.515625 8.296875 
L 28.515625 63.921875 
L 10.984375 60.40625 
L 10.984375 69.390625 
L 28.421875 72.90625 
L 38.28125 72.90625 
L 38.28125 8.296875 
L 54.390625 8.296875 
L 54.390625 0 
L 12.40625 0 
z
" id="DejaVuSans-49"/>
     </defs>
     <use xlink:href="#DejaVuSans-65"/>
     <use x="68.408203" xlink:href="#DejaVuSans-80"/>
     <use x="126.460938" xlink:href="#DejaVuSans-45"/>
     <use x="160.294922" xlink:href="#DejaVuSans-65"/>
     <use x="220.953125" xlink:href="#DejaVuSans-84"/>
     <use x="272.912109" xlink:href="#DejaVuSans-45"/>
     <use x="308.996094" xlink:href="#DejaVuSans-48"/>
     <use x="372.619141" xlink:href="#DejaVuSans-50"/>
     <use x="436.242188" xlink:href="#DejaVuSans-45"/>
     <use x="468.326172" xlink:href="#DejaVuSans-87"/>
     <use x="567.203125" xlink:href="#DejaVuSans-48"/>
     <use x="630.826172" xlink:href="#DejaVuSans-49"/>
    </g>
   </g>
   <g id="text_2">
    <!-- AP-AT-02-W02 -->
    <g transform="translate(193.501591 353.090909)rotate(-270)scale(0.08 -0.08)">
     <use xlink:href="#DejaVuSans-65"/>
     <use x="68.408203" xlink:href="#DejaVuSans-80"/>
     <use x="126.460938" xlink:href="#DejaVuSans-45"/>
     <use x="160.294922" xlink:href="#DejaVuSans-65"/>
     <use x="220.953125" xlink:href="#DejaVuSans-84"/>
     <use x="272.912109" xlink:href="#DejaVuSans-45"/>
     <use x="308.996094" xlink:href="#DejaVuSans-48"/>
     <use x="372.619141" xlink:href="#DejaVuSans-50"/>
     <use x="436.242188" xlink:href="#DejaVuSans-45"/>
     <use x="468.326172" xlink:href="#DejaVuSans-87"/>
     <use x="567.203125" xlink:href="#DejaVuSans-48"/>
     <use x="630.826172" xlink:href="#DejaVuSans-50"/>
    </g>
   </g>
   <g id="text_3">
    <!-- Movements cluster 0 -->
    <g transform="translate(132.765341 17.2)scale(0.12 -0.12)">
     <defs>
      <path d="M 9.8125 72.90625 
L 24.515625 72.90625 
L 43.109375 23.296875 
L 61.8125 72.90625 
L 76.515625 72.90625 
L 76.515625 0 
L 66.890625 0 
L 66.890625 64.015625 
L 48.09375 14.015625 
L 38.1875 14.015625 
L 19.390625 64.015625 
L 19.390625 0 
L 9.8125 0 
z
" id="DejaVuSans-77"/>
      <path d="M 30.609375 48.390625 
Q 23.390625 48.390625 19.1875 42.75 
Q 14.984375 37.109375 14.984375 27.296875 
Q 14.984375 17.484375 19.15625 11.84375 
Q 23.34375 6.203125 30.609375 6.203125 
Q 37.796875 6.203125 41.984375 11.859375 
Q 46.1875 17.53125 46.1875 27.296875 
Q 46.1875 37.015625 41.984375 42.703125 
Q 37.796875 48.390625 30.609375 48.390625 
z
M 30.609375 56 
Q 42.328125 56 49.015625 48.375 
Q 55.71875 40.765625 55.71875 27.296875 
Q 55.71875 13.875 49.015625 6.21875 
Q 42.328125 -1.421875 30.609375 -1.421875 
Q 18.84375 -1.421875 12.171875 6.21875 
Q 5.515625 13.875 5.515625 27.296875 
Q 5.515625 40.765625 12.171875 48.375 
Q 18.84375 56 30.609375 56 
z
" id="DejaVuSans-111"/>
      <path d="M 2.984375 54.6875 
L 12.5 54.6875 
L 29.59375 8.796875 
L 46.6875 54.6875 
L 56.203125 54.6875 
L 35.6875 0 
L 23.484375 0 
z
" id="DejaVuSans-118"/>
      <path d="M 56.203125 29.59375 
L 56.203125 25.203125 
L 14.890625 25.203125 
Q 15.484375 15.921875 20.484375 11.0625 
Q 25.484375 6.203125 34.421875 6.203125 
Q 39.59375 6.203125 44.453125 7.46875 
Q 49.3125 8.734375 54.109375 11.28125 
L 54.109375 2.78125 
Q 49.265625 0.734375 44.1875 -0.34375 
Q 39.109375 -1.421875 33.890625 -1.421875 
Q 20.796875 -1.421875 13.15625 6.1875 
Q 5.515625 13.8125 5.515625 26.8125 
Q 5.515625 40.234375 12.765625 48.109375 
Q 20.015625 56 32.328125 56 
Q 43.359375 56 49.78125 48.890625 
Q 56.203125 41.796875 56.203125 29.59375 
z
M 47.21875 32.234375 
Q 47.125 39.59375 43.09375 43.984375 
Q 39.0625 48.390625 32.421875 48.390625 
Q 24.90625 48.390625 20.390625 44.140625 
Q 15.875 39.890625 15.1875 32.171875 
z
" id="DejaVuSans-101"/>
      <path d="M 52 44.1875 
Q 55.375 50.25 60.0625 53.125 
Q 64.75 56 71.09375 56 
Q 79.640625 56 84.28125 50.015625 
Q 88.921875 44.046875 88.921875 33.015625 
L 88.921875 0 
L 79.890625 0 
L 79.890625 32.71875 
Q 79.890625 40.578125 77.09375 44.375 
Q 74.3125 48.1875 68.609375 48.1875 
Q 61.625 48.1875 57.5625 43.546875 
Q 53.515625 38.921875 53.515625 30.90625 
L 53.515625 0 
L 44.484375 0 
L 44.484375 32.71875 
Q 44.484375 40.625 41.703125 44.40625 
Q 38.921875 48.1875 33.109375 48.1875 
Q 26.21875 48.1875 22.15625 43.53125 
Q 18.109375 38.875 18.109375 30.90625 
L 18.109375 0 
L 9.078125 0 
L 9.078125 54.6875 
L 18.109375 54.6875 
L 18.109375 46.1875 
Q 21.1875 51.21875 25.484375 53.609375 
Q 29.78125 56 35.6875 56 
Q 41.65625 56 45.828125 52.96875 
Q 50 49.953125 52 44.1875 
z
" id="DejaVuSans-109"/>
      <path d="M 54.890625 33.015625 
L 54.890625 0 
L 45.90625 0 
L 45.90625 32.71875 
Q 45.90625 40.484375 42.875 44.328125 
Q 39.84375 48.1875 33.796875 48.1875 
Q 26.515625 48.1875 22.3125 43.546875 
Q 18.109375 38.921875 18.109375 30.90625 
L 18.109375 0 
L 9.078125 0 
L 9.078125 54.6875 
L 18.109375 54.6875 
L 18.109375 46.1875 
Q 21.34375 51.125 25.703125 53.5625 
Q 30.078125 56 35.796875 56 
Q 45.21875 56 50.046875 50.171875 
Q 54.890625 44.34375 54.890625 33.015625 
z
" id="DejaVuSans-110"/>
      <path d="M 18.3125 70.21875 
L 18.3125 54.6875 
L 36.8125 54.6875 
L 36.8125 47.703125 
L 18.3125 47.703125 
L 18.3125 18.015625 
Q 18.3125 11.328125 20.140625 9.421875 
Q 21.96875 7.515625 27.59375 7.515625 
L 36.8125 7.515625 
L 36.8125 0 
L 27.59375 0 
Q 17.1875 0 13.234375 3.875 
Q 9.28125 7.765625 9.28125 18.015625 
L 9.28125 47.703125 
L 2.6875 47.703125 
L 2.6875 54.6875 
L 9.28125 54.6875 
L 9.28125 70.21875 
z
" id="DejaVuSans-116"/>
      <path d="M 44.28125 53.078125 
L 44.28125 44.578125 
Q 40.484375 46.53125 36.375 47.5 
Q 32.28125 48.484375 27.875 48.484375 
Q 21.1875 48.484375 17.84375 46.4375 
Q 14.5 44.390625 14.5 40.28125 
Q 14.5 37.15625 16.890625 35.375 
Q 19.28125 33.59375 26.515625 31.984375 
L 29.59375 31.296875 
Q 39.15625 29.25 43.1875 25.515625 
Q 47.21875 21.78125 47.21875 15.09375 
Q 47.21875 7.46875 41.1875 3.015625 
Q 35.15625 -1.421875 24.609375 -1.421875 
Q 20.21875 -1.421875 15.453125 -0.5625 
Q 10.6875 0.296875 5.421875 2 
L 5.421875 11.28125 
Q 10.40625 8.6875 15.234375 7.390625 
Q 20.0625 6.109375 24.8125 6.109375 
Q 31.15625 6.109375 34.5625 8.28125 
Q 37.984375 10.453125 37.984375 14.40625 
Q 37.984375 18.0625 35.515625 20.015625 
Q 33.0625 21.96875 24.703125 23.78125 
L 21.578125 24.515625 
Q 13.234375 26.265625 9.515625 29.90625 
Q 5.8125 33.546875 5.8125 39.890625 
Q 5.8125 47.609375 11.28125 51.796875 
Q 16.75 56 26.8125 56 
Q 31.78125 56 36.171875 55.265625 
Q 40.578125 54.546875 44.28125 53.078125 
z
" id="DejaVuSans-115"/>
      <path id="DejaVuSans-32"/>
      <path d="M 48.78125 52.59375 
L 48.78125 44.1875 
Q 44.96875 46.296875 41.140625 47.34375 
Q 37.3125 48.390625 33.40625 48.390625 
Q 24.65625 48.390625 19.8125 42.84375 
Q 14.984375 37.3125 14.984375 27.296875 
Q 14.984375 17.28125 19.8125 11.734375 
Q 24.65625 6.203125 33.40625 6.203125 
Q 37.3125 6.203125 41.140625 7.25 
Q 44.96875 8.296875 48.78125 10.40625 
L 48.78125 2.09375 
Q 45.015625 0.34375 40.984375 -0.53125 
Q 36.96875 -1.421875 32.421875 -1.421875 
Q 20.0625 -1.421875 12.78125 6.34375 
Q 5.515625 14.109375 5.515625 27.296875 
Q 5.515625 40.671875 12.859375 48.328125 
Q 20.21875 56 33.015625 56 
Q 37.15625 56 41.109375 55.140625 
Q 45.0625 54.296875 48.78125 52.59375 
z
" id="DejaVuSans-99"/>
      <path d="M 9.421875 75.984375 
L 18.40625 75.984375 
L 18.40625 0 
L 9.421875 0 
z
" id="DejaVuSans-108"/>
      <path d="M 8.5 21.578125 
L 8.5 54.6875 
L 17.484375 54.6875 
L 17.484375 21.921875 
Q 17.484375 14.15625 20.5 10.265625 
Q 23.53125 6.390625 29.59375 6.390625 
Q 36.859375 6.390625 41.078125 11.03125 
Q 45.3125 15.671875 45.3125 23.6875 
L 45.3125 54.6875 
L 54.296875 54.6875 
L 54.296875 0 
L 45.3125 0 
L 45.3125 8.40625 
Q 42.046875 3.421875 37.71875 1 
Q 33.40625 -1.421875 27.6875 -1.421875 
Q 18.265625 -1.421875 13.375 4.4375 
Q 8.5 10.296875 8.5 21.578125 
z
M 31.109375 56 
z
" id="DejaVuSans-117"/>
      <path d="M 41.109375 46.296875 
Q 39.59375 47.171875 37.8125 47.578125 
Q 36.03125 48 33.890625 48 
Q 26.265625 48 22.1875 43.046875 
Q 18.109375 38.09375 18.109375 28.8125 
L 18.109375 0 
L 9.078125 0 
L 9.078125 54.6875 
L 18.109375 54.6875 
L 18.109375 46.1875 
Q 20.953125 51.171875 25.484375 53.578125 
Q 30.03125 56 36.53125 56 
Q 37.453125 56 38.578125 55.875 
Q 39.703125 55.765625 41.0625 55.515625 
z
" id="DejaVuSans-114"/>
     </defs>
     <use xlink:href="#DejaVuSans-77"/>
     <use x="86.279297" xlink:href="#DejaVuSans-111"/>
     <use x="147.460938" xlink:href="#DejaVuSans-118"/>
     <use x="206.640625" xlink:href="#DejaVuSans-101"/>
     <use x="268.164062" xlink:href="#DejaVuSans-109"/>
     <use x="365.576172" xlink:href="#DejaVuSans-101"/>
     <use x="427.099609" xlink:href="#DejaVuSans-110"/>
     <use x="490.478516" xlink:href="#DejaVuSans-116"/>
     <use x="529.6875" xlink:href="#DejaVuSans-115"/>
     <use x="581.787109" xlink:href="#DejaVuSans-32"/>
     <use x="613.574219" xlink:href="#DejaVuSans-99"/>
     <use x="668.554688" xlink:href="#DejaVuSans-108"/>
     <use x="696.337891" xlink:href="#DejaVuSans-117"/>
     <use x="759.716797" xlink:href="#DejaVuSans-115"/>
     <use x="811.816406" xlink:href="#DejaVuSans-116"/>
     <use x="851.025391" xlink:href="#DejaVuSans-101"/>
     <use x="912.548828" xlink:href="#DejaVuSans-114"/>
     <use x="953.662109" xlink:href="#DejaVuSans-32"/>
     <use x="985.449219" xlink:href="#DejaVuSans-48"/>
    </g>
   </g>
  </g>
  <g id="axes_2">
   <g id="patch_3">
    <path d="M 572.727273 400.218182 
L 949.745455 400.218182 
L 949.745455 23.2 
L 572.727273 23.2 
z
" style="fill:#ffffff;"/>
   </g>
   <g id="LineCollection_3">
    <path clip-path="url(#p62c6b431fb)" d="M 895.885714 211.709091 
L 894.049273 189.546536 
L 888.590041 167.988518 
L 879.656933 147.623083 
L 867.493621 129.005748 
L 852.431887 112.644344 
L 834.882578 98.985168 
L 815.324392 88.400807 
L 794.290825 81.179975 
L 772.355619 77.519636 
L 750.117108 77.519636 
L 728.181902 81.179975 
L 707.148336 88.400807 
L 687.590149 98.985168 
L 670.04084 112.644344 
L 654.979106 129.005748 
L 642.815794 147.623083 
L 633.882686 167.988518 
L 628.423455 189.546536 
L 626.587013 211.709091 
" style="fill:none;stroke:#ff7f0e;stroke-width:10;"/>
    <path clip-path="url(#p62c6b431fb)" d="M 626.587013 211.709091 
L 628.423455 233.871646 
L 633.882686 255.429664 
L 642.815794 275.795098 
L 654.979106 294.412434 
L 670.04084 310.773838 
L 687.590149 324.433014 
L 707.148336 335.017375 
L 728.181902 342.238207 
L 750.117108 345.898546 
L 772.355619 345.898546 
L 794.290825 342.238207 
L 815.324392 335.017375 
L 834.882578 324.433014 
L 852.431887 310.773838 
L 867.493621 294.412434 
L 879.656933 275.795098 
L 888.590041 255.429664 
L 894.049273 233.871646 
L 895.885714 211.709091 
" style="fill:none;stroke:#1f77b4;stroke-width:10;"/>
   </g>
   <g id="LineCollection_4">
    <path clip-path="url(#p62c6b431fb)" d="M 895.885714 211.709091 
L 891.680819 211.709091 
L 887.314549 211.709091 
L 882.793772 211.709091 
L 878.125354 211.709091 
L 873.316163 211.709091 
L 868.373064 211.709091 
L 863.302927 211.709091 
L 858.112617 211.709091 
L 852.809001 211.709091 
L 847.398947 211.709091 
L 841.889321 211.709091 
L 836.28699 211.709091 
L 830.598822 211.709091 
L 824.831684 211.709091 
L 818.992442 211.709091 
L 813.087963 211.709091 
L 807.125115 211.709091 
L 801.110764 211.709091 
L 795.051778 211.709091 
L 788.955024 211.709091 
L 782.827367 211.709091 
L 776.675677 211.709091 
L 770.506818 211.709091 
L 764.32766 211.709091 
L 758.145068 211.709091 
L 751.965909 211.709091 
L 745.797051 211.709091 
L 739.64536 211.709091 
L 733.517704 211.709091 
L 727.420949 211.709091 
L 721.361963 211.709091 
L 715.347612 211.709091 
L 709.384764 211.709091 
L 703.480286 211.709091 
L 697.641044 211.709091 
L 691.873905 211.709091 
L 686.185737 211.709091 
L 680.583407 211.709091 
L 675.073781 211.709091 
L 669.663726 211.709091 
L 664.360111 211.709091 
L 659.1698 211.709091 
L 654.099663 211.709091 
L 649.156565 211.709091 
L 644.347373 211.709091 
L 639.678955 211.709091 
L 635.158178 211.709091 
L 630.791908 211.709091 
L 626.587013 211.709091 
" style="fill:none;stroke:#ff7f0e;stroke-width:0.5;"/>
   </g>
   <g id="PathCollection_2">
    <defs>
     <path d="M 0 5 
C 1.326016 5 2.597899 4.473168 3.535534 3.535534 
C 4.473168 2.597899 5 1.326016 5 -0 
C 5 -1.326016 4.473168 -2.597899 3.535534 -3.535534 
C 2.597899 -4.473168 1.326016 -5 0 -5 
C -1.326016 -5 -2.597899 -4.473168 -3.535534 -3.535534 
C -4.473168 -2.597899 -5 -1.326016 -5 0 
C -5 1.326016 -4.473168 2.597899 -3.535534 3.535534 
C -2.597899 4.473168 -1.326016 5 0 5 
z
" id="C1_0_39bbd06756"/>
    </defs>
    <g clip-path="url(#p62c6b431fb)">
     <use style="fill:#ff7f0e;stroke:#000000;" x="761.236364" xlink:href="#C1_0_39bbd06756" y="77.05974"/>
    </g>
    <g clip-path="url(#p62c6b431fb)">
     <use style="fill:#1f77b4;stroke:#000000;" x="761.236364" xlink:href="#C1_0_39bbd06756" y="346.358442"/>
    </g>
   </g>
   <g id="text_4">
    <!-- AP-AT-02-W04 -->
    <g transform="translate(763.443864 70.327273)rotate(-90)scale(0.08 -0.08)">
     <defs>
      <path d="M 37.796875 64.3125 
L 12.890625 25.390625 
L 37.796875 25.390625 
z
M 35.203125 72.90625 
L 47.609375 72.90625 
L 47.609375 25.390625 
L 58.015625 25.390625 
L 58.015625 17.1875 
L 47.609375 17.1875 
L 47.609375 0 
L 37.796875 0 
L 37.796875 17.1875 
L 4.890625 17.1875 
L 4.890625 26.703125 
z
" id="DejaVuSans-52"/>
     </defs>
     <use xlink:href="#DejaVuSans-65"/>
     <use x="68.408203" xlink:href="#DejaVuSans-80"/>
     <use x="126.460938" xlink:href="#DejaVuSans-45"/>
     <use x="160.294922" xlink:href="#DejaVuSans-65"/>
     <use x="220.953125" xlink:href="#DejaVuSans-84"/>
     <use x="272.912109" xlink:href="#DejaVuSans-45"/>
     <use x="308.996094" xlink:href="#DejaVuSans-48"/>
     <use x="372.619141" xlink:href="#DejaVuSans-50"/>
     <use x="436.242188" xlink:href="#DejaVuSans-45"/>
     <use x="468.326172" xlink:href="#DejaVuSans-87"/>
     <use x="567.203125" xlink:href="#DejaVuSans-48"/>
     <use x="630.826172" xlink:href="#DejaVuSans-52"/>
    </g>
   </g>
   <g id="text_5">
    <!-- AP-AT-02-W01 -->
    <g transform="translate(759.028864 353.090909)rotate(-270)scale(0.08 -0.08)">
     <use xlink:href="#DejaVuSans-65"/>
     <use x="68.408203" xlink:href="#DejaVuSans-80"/>
     <use x="126.460938" xlink:href="#DejaVuSans-45"/>
     <use x="160.294922" xlink:href="#DejaVuSans-65"/>
     <use x="220.953125" xlink:href="#DejaVuSans-84"/>
     <use x="272.912109" xlink:href="#DejaVuSans-45"/>
     <use x="308.996094" xlink:href="#DejaVuSans-48"/>
     <use x="372.619141" xlink:href="#DejaVuSans-50"/>
     <use x="436.242188" xlink:href="#DejaVuSans-45"/>
     <use x="468.326172" xlink:href="#DejaVuSans-87"/>
     <use x="567.203125" xlink:href="#DejaVuSans-48"/>
     <use x="630.826172" xlink:href="#DejaVuSans-49"/>
    </g>
   </g>
   <g id="text_6">
    <!-- Movements cluster 1 -->
    <g transform="translate(698.292614 17.2)scale(0.12 -0.12)">
     <use xlink:href="#DejaVuSans-77"/>
     <use x="86.279297" xlink:href="#DejaVuSans-111"/>
     <use x="147.460938" xlink:href="#DejaVuSans-118"/>
     <use x="206.640625" xlink:href="#DejaVuSans-101"/>
     <use x="268.164062" xlink:href="#DejaVuSans-109"/>
     <use x="365.576172" xlink:href="#DejaVuSans-101"/>
     <use x="427.099609" xlink:href="#DejaVuSans-110"/>
     <use x="490.478516" xlink:href="#DejaVuSans-116"/>
     <use x="529.6875" xlink:href="#DejaVuSans-115"/>
     <use x="581.787109" xlink:href="#DejaVuSans-32"/>
     <use x="613.574219" xlink:href="#DejaVuSans-99"/>
     <use x="668.554688" xlink:href="#DejaVuSans-108"/>
     <use x="696.337891" xlink:href="#DejaVuSans-117"/>
     <use x="759.716797" xlink:href="#DejaVuSans-115"/>
     <use x="811.816406" xlink:href="#DejaVuSans-116"/>
     <use x="851.025391" xlink:href="#DejaVuSans-101"/>
     <use x="912.548828" xlink:href="#DejaVuSans-114"/>
     <use x="953.662109" xlink:href="#DejaVuSans-32"/>
     <use x="985.449219" xlink:href="#DejaVuSans-49"/>
    </g>
   </g>
  </g>
  <g id="axes_3">
   <g id="patch_4">
    <path d="M 1138.254545 400.218182 
L 1515.272727 400.218182 
L 1515.272727 23.2 
L 1138.254545 23.2 
z
" style="fill:#ffffff;"/>
   </g>
   <g id="LineCollection_5">
    <path clip-path="url(#paefeeeee30)" d="M 1461.412987 211.709091 
L 1459.576545 189.546536 
L 1454.117314 167.988518 
L 1445.184206 147.623083 
L 1433.020894 129.005748 
L 1417.95916 112.644344 
L 1400.409851 98.985168 
L 1380.851664 88.400807 
L 1359.818098 81.179975 
L 1337.882892 77.519636 
L 1315.644381 77.519636 
L 1293.709175 81.179975 
L 1272.675608 88.400807 
L 1253.117422 98.985168 
L 1235.568113 112.644344 
L 1220.506379 129.005748 
L 1208.343067 147.623083 
L 1199.409959 167.988518 
L 1193.950727 189.546536 
L 1192.114286 211.709091 
" style="fill:none;stroke:#1f77b4;stroke-width:10;"/>
    <path clip-path="url(#paefeeeee30)" d="M 1192.114286 211.709091 
L 1193.950727 233.871646 
L 1199.409959 255.429664 
L 1208.343067 275.795098 
L 1220.506379 294.412434 
L 1235.568113 310.773838 
L 1253.117422 324.433014 
L 1272.675608 335.017375 
L 1293.709175 342.238207 
L 1315.644381 345.898546 
L 1337.882892 345.898546 
L 1359.818098 342.238207 
L 1380.851664 335.017375 
L 1400.409851 324.433014 
L 1417.95916 310.773838 
L 1433.020894 294.412434 
L 1445.184206 275.795098 
L 1454.117314 255.429664 
L 1459.576545 233.871646 
L 1461.412987 211.709091 
" style="fill:none;stroke:#aec7e8;stroke-width:10;"/>
   </g>
   <g id="LineCollection_6">
    <path clip-path="url(#paefeeeee30)" d="M 1461.412987 211.709091 
L 1457.208092 211.709091 
L 1452.841822 211.709091 
L 1448.321045 211.709091 
L 1443.652627 211.709091 
L 1438.843435 211.709091 
L 1433.900337 211.709091 
L 1428.8302 211.709091 
L 1423.639889 211.709091 
L 1418.336274 211.709091 
L 1412.926219 211.709091 
L 1407.416593 211.709091 
L 1401.814263 211.709091 
L 1396.126095 211.709091 
L 1390.358956 211.709091 
L 1384.519714 211.709091 
L 1378.615236 211.709091 
L 1372.652388 211.709091 
L 1366.638037 211.709091 
L 1360.579051 211.709091 
L 1354.482296 211.709091 
L 1348.35464 211.709091 
L 1342.202949 211.709091 
L 1336.034091 211.709091 
L 1329.854932 211.709091 
L 1323.67234 211.709091 
L 1317.493182 211.709091 
L 1311.324323 211.709091 
L 1305.172633 211.709091 
L 1299.044976 211.709091 
L 1292.948222 211.709091 
L 1286.889236 211.709091 
L 1280.874885 211.709091 
L 1274.912037 211.709091 
L 1269.007558 211.709091 
L 1263.168316 211.709091 
L 1257.401178 211.709091 
L 1251.71301 211.709091 
L 1246.110679 211.709091 
L 1240.601053 211.709091 
L 1235.190999 211.709091 
L 1229.887383 211.709091 
L 1224.697073 211.709091 
L 1219.626936 211.709091 
L 1214.683837 211.709091 
L 1209.874646 211.709091 
L 1205.206228 211.709091 
L 1200.685451 211.709091 
L 1196.319181 211.709091 
L 1192.114286 211.709091 
M 1394.088312 328.318849 
L 1391.985864 324.677303 
L 1389.802729 320.896003 
L 1387.542341 316.980895 
L 1385.208132 312.937926 
L 1382.803536 308.773044 
L 1380.331987 304.492195 
L 1377.796918 300.101327 
L 1375.201763 295.606387 
L 1372.549955 291.013321 
L 1369.844928 286.328077 
L 1367.090115 281.556601 
L 1364.28895 276.70484 
L 1361.444866 271.778742 
L 1358.561296 266.784254 
L 1355.641675 261.727322 
L 1352.689436 256.613893 
L 1349.708012 251.449915 
L 1346.700837 246.241335 
L 1343.671344 240.994099 
L 1340.622966 235.714155 
L 1337.559138 230.407449 
L 1334.483293 225.079928 
L 1331.398864 219.73754 
L 1328.309284 214.386232 
L 1325.217988 209.03195 
L 1322.128409 203.680642 
L 1319.04398 198.338254 
L 1315.968134 193.010733 
L 1312.904306 187.704027 
L 1309.855929 182.424083 
L 1306.826436 177.176847 
L 1303.819261 171.968266 
L 1300.837837 166.804289 
L 1297.885597 161.69086 
L 1294.965976 156.633928 
L 1292.082407 151.63944 
L 1289.238323 146.713342 
L 1286.437158 141.861581 
L 1283.682345 137.090105 
L 1280.977318 132.404861 
L 1278.32551 127.811795 
L 1275.730355 123.316854 
L 1273.195286 118.925986 
L 1270.723737 114.645138 
L 1268.319141 110.480256 
L 1265.984932 106.437287 
L 1263.724544 102.522179 
L 1261.541409 98.740879 
L 1259.438961 95.099333 
" style="fill:none;stroke:#aec7e8;stroke-width:0.5;"/>
    <path clip-path="url(#paefeeeee30)" d="M 1394.088312 95.099333 
L 1391.985864 98.740879 
L 1389.802729 102.522179 
L 1387.542341 106.437287 
L 1385.208132 110.480256 
L 1382.803536 114.645138 
L 1380.331987 118.925986 
L 1377.796918 123.316854 
L 1375.201763 127.811795 
L 1372.549955 132.404861 
L 1369.844928 137.090105 
L 1367.090115 141.861581 
L 1364.28895 146.713342 
L 1361.444866 151.63944 
L 1358.561296 156.633928 
L 1355.641675 161.69086 
L 1352.689436 166.804289 
L 1349.708012 171.968266 
L 1346.700837 177.176847 
L 1343.671344 182.424083 
L 1340.622966 187.704027 
L 1337.559138 193.010733 
L 1334.483293 198.338254 
L 1331.398864 203.680642 
L 1328.309284 209.03195 
L 1325.217988 214.386232 
L 1322.128409 219.73754 
L 1319.04398 225.079928 
L 1315.968134 230.407449 
L 1312.904306 235.714155 
L 1309.855929 240.994099 
L 1306.826436 246.241335 
L 1303.819261 251.449915 
L 1300.837837 256.613893 
L 1297.885597 261.727322 
L 1294.965976 266.784254 
L 1292.082407 271.778742 
L 1289.238323 276.70484 
L 1286.437158 281.556601 
L 1283.682345 286.328077 
L 1280.977318 291.013321 
L 1278.32551 295.606387 
L 1275.730355 300.101327 
L 1273.195286 304.492195 
L 1270.723737 308.773044 
L 1268.319141 312.937926 
L 1265.984932 316.980895 
L 1263.724544 320.896003 
L 1261.541409 324.677303 
L 1259.438961 328.318849 
M 1461.412987 211.709091 
L 1457.208092 211.709091 
L 1452.841822 211.709091 
L 1448.321045 211.709091 
L 1443.652627 211.709091 
L 1438.843435 211.709091 
L 1433.900337 211.709091 
L 1428.8302 211.709091 
L 1423.639889 211.709091 
L 1418.336274 211.709091 
L 1412.926219 211.709091 
L 1407.416593 211.709091 
L 1401.814263 211.709091 
L 1396.126095 211.709091 
L 1390.358956 211.709091 
L 1384.519714 211.709091 
L 1378.615236 211.709091 
L 1372.652388 211.709091 
L 1366.638037 211.709091 
L 1360.579051 211.709091 
L 1354.482296 211.709091 
L 1348.35464 211.709091 
L 1342.202949 211.709091 
L 1336.034091 211.709091 
L 1329.854932 211.709091 
L 1323.67234 211.709091 
L 1317.493182 211.709091 
L 1311.324323 211.709091 
L 1305.172633 211.709091 
L 1299.044976 211.709091 
L 1292.948222 211.709091 
L 1286.889236 211.709091 
L 1280.874885 211.709091 
L 1274.912037 211.709091 
L 1269.007558 211.709091 
L 1263.168316 211.709091 
L 1257.401178 211.709091 
L 1251.71301 211.709091 
L 1246.110679 211.709091 
L 1240.601053 211.709091 
L 1235.190999 211.709091 
L 1229.887383 211.709091 
L 1224.697073 211.709091 
L 1219.626936 211.709091 
L 1214.683837 211.709091 
L 1209.874646 211.709091 
L 1205.206228 211.709091 
L 1200.685451 211.709091 
L 1196.319181 211.709091 
L 1192.114286 211.709091 
" style="fill:none;stroke:#1f77b4;stroke-width:0.5;"/>
   </g>
   <g id="PathCollection_3">
    <defs>
     <path d="M 0 5 
C 1.326016 5 2.597899 4.473168 3.535534 3.535534 
C 4.473168 2.597899 5 1.326016 5 -0 
C 5 -1.326016 4.473168 -2.597899 3.535534 -3.535534 
C 2.597899 -4.473168 1.326016 -5 0 -5 
C -1.326016 -5 -2.597899 -4.473168 -3.535534 -3.535534 
C -4.473168 -2.597899 -5 -1.326016 -5 0 
C -5 1.326016 -4.473168 2.597899 -3.535534 3.535534 
C -2.597899 4.473168 -1.326016 5 0 5 
z
" id="C2_0_8899b0d98a"/>
    </defs>
    <g clip-path="url(#paefeeeee30)">
     <use style="fill:#1f77b4;stroke:#000000;" x="1326.763636" xlink:href="#C2_0_8899b0d98a" y="77.05974"/>
    </g>
    <g clip-path="url(#paefeeeee30)">
     <use style="fill:#aec7e8;stroke:#000000;" x="1326.763636" xlink:href="#C2_0_8899b0d98a" y="346.358442"/>
    </g>
   </g>
   <g id="text_7">
    <!-- AP-AT-02-W01 -->
    <g transform="translate(1328.971136 70.327273)rotate(-90)scale(0.08 -0.08)">
     <use xlink:href="#DejaVuSans-65"/>
     <use x="68.408203" xlink:href="#DejaVuSans-80"/>
     <use x="126.460938" xlink:href="#DejaVuSans-45"/>
     <use x="160.294922" xlink:href="#DejaVuSans-65"/>
     <use x="220.953125" xlink:href="#DejaVuSans-84"/>
     <use x="272.912109" xlink:href="#DejaVuSans-45"/>
     <use x="308.996094" xlink:href="#DejaVuSans-48"/>
     <use x="372.619141" xlink:href="#DejaVuSans-50"/>
     <use x="436.242188" xlink:href="#DejaVuSans-45"/>
     <use x="468.326172" xlink:href="#DejaVuSans-87"/>
     <use x="567.203125" xlink:href="#DejaVuSans-48"/>
     <use x="630.826172" xlink:href="#DejaVuSans-49"/>
    </g>
   </g>
   <g id="text_8">
    <!-- AP-AT-02-W02 -->
    <g transform="translate(1324.556136 353.090909)rotate(-270)scale(0.08 -0.08)">
     <use xlink:href="#DejaVuSans-65"/>
     <use x="68.408203" xlink:href="#DejaVuSans-80"/>
     <use x="126.460938" xlink:href="#DejaVuSans-45"/>
     <use x="160.294922" xlink:href="#DejaVuSans-65"/>
     <use x="220.953125" xlink:href="#DejaVuSans-84"/>
     <use x="272.912109" xlink:href="#DejaVuSans-45"/>
     <use x="308.996094" xlink:href="#DejaVuSans-48"/>
     <use x="372.619141" xlink:href="#DejaVuSans-50"/>
     <use x="436.242188" xlink:href="#DejaVuSans-45"/>
     <use x="468.326172" xlink:href="#DejaVuSans-87"/>
     <use x="567.203125" xlink:href="#DejaVuSans-48"/>
     <use x="630.826172" xlink:href="#DejaVuSans-50"/>
    </g>
   </g>
   <g id="text_9">
    <!-- Movements cluster 2 -->
    <g transform="translate(1263.819886 17.2)scale(0.12 -0.12)">
     <use xlink:href="#DejaVuSans-77"/>
     <use x="86.279297" xlink:href="#DejaVuSans-111"/>
     <use x="147.460938" xlink:href="#DejaVuSans-118"/>
     <use x="206.640625" xlink:href="#DejaVuSans-101"/>
     <use x="268.164062" xlink:href="#DejaVuSans-109"/>
     <use x="365.576172" xlink:href="#DejaVuSans-101"/>
     <use x="427.099609" xlink:href="#DejaVuSans-110"/>
     <use x="490.478516" xlink:href="#DejaVuSans-116"/>
     <use x="529.6875" xlink:href="#DejaVuSans-115"/>
     <use x="581.787109" xlink:href="#DejaVuSans-32"/>
     <use x="613.574219" xlink:href="#DejaVuSans-99"/>
     <use x="668.554688" xlink:href="#DejaVuSans-108"/>
     <use x="696.337891" xlink:href="#DejaVuSans-117"/>
     <use x="759.716797" xlink:href="#DejaVuSans-115"/>
     <use x="811.816406" xlink:href="#DejaVuSans-116"/>
     <use x="851.025391" xlink:href="#DejaVuSans-101"/>
     <use x="912.548828" xlink:href="#DejaVuSans-114"/>
     <use x="953.662109" xlink:href="#DejaVuSans-32"/>
     <use x="985.449219" xlink:href="#DejaVuSans-50"/>
    </g>
   </g>
  </g>
  <g id="axes_4">
   <g id="patch_5">
    <path d="M 1703.781818 400.218182 
L 2080.8 400.218182 
L 2080.8 23.2 
L 1703.781818 23.2 
z
" style="fill:#ffffff;"/>
   </g>
   <g id="LineCollection_7">
    <path clip-path="url(#pdc599845ad)" d="M 2026.94026 211.709091 
L 2025.103818 189.546536 
L 2019.644587 167.988518 
L 2010.711479 147.623083 
L 1998.548166 129.005748 
L 1983.486433 112.644344 
L 1965.937123 98.985168 
L 1946.378937 88.400807 
L 1925.345371 81.179975 
L 1903.410164 77.519636 
L 1881.171654 77.519636 
L 1859.236448 81.179975 
L 1838.202881 88.400807 
L 1818.644695 98.985168 
L 1801.095385 112.644344 
L 1786.033652 129.005748 
L 1773.87034 147.623083 
L 1764.937232 167.988518 
L 1759.478 189.546536 
L 1757.641558 211.709091 
" style="fill:none;stroke:#1f77b4;stroke-width:10;"/>
    <path clip-path="url(#pdc599845ad)" d="M 1757.641558 211.709091 
L 1759.478 233.871646 
L 1764.937232 255.429664 
L 1773.87034 275.795098 
L 1786.033652 294.412434 
L 1801.095385 310.773838 
L 1818.644695 324.433014 
L 1838.202881 335.017375 
L 1859.236448 342.238207 
L 1881.171654 345.898546 
L 1903.410164 345.898546 
L 1925.345371 342.238207 
L 1946.378937 335.017375 
L 1965.937123 324.433014 
L 1983.486433 310.773838 
L 1998.548166 294.412434 
L 2010.711479 275.795098 
L 2019.644587 255.429664 
L 2025.103818 233.871646 
L 2026.94026 211.709091 
" style="fill:none;stroke:#aec7e8;stroke-width:10;"/>
   </g>
   <g id="LineCollection_8">
    <path clip-path="url(#pdc599845ad)" d="M 1757.641558 211.709091 
L 1761.846454 211.709091 
L 1766.212723 211.709091 
L 1770.733501 211.709091 
L 1775.401919 211.709091 
L 1780.21111 211.709091 
L 1785.154208 211.709091 
L 1790.224346 211.709091 
L 1795.414656 211.709091 
L 1800.718272 211.709091 
L 1806.128326 211.709091 
L 1811.637952 211.709091 
L 1817.240282 211.709091 
L 1822.92845 211.709091 
L 1828.695589 211.709091 
L 1834.534831 211.709091 
L 1840.43931 211.709091 
L 1846.402158 211.709091 
L 1852.416508 211.709091 
L 1858.475494 211.709091 
L 1864.572249 211.709091 
L 1870.699905 211.709091 
L 1876.851596 211.709091 
L 1883.020454 211.709091 
L 1889.199613 211.709091 
L 1895.382205 211.709091 
L 1901.561364 211.709091 
L 1907.730222 211.709091 
L 1913.881913 211.709091 
L 1920.009569 211.709091 
L 1926.106324 211.709091 
L 1932.16531 211.709091 
L 1938.17966 211.709091 
L 1944.142509 211.709091 
L 1950.046987 211.709091 
L 1955.886229 211.709091 
L 1961.653368 211.709091 
L 1967.341536 211.709091 
L 1972.943866 211.709091 
L 1978.453492 211.709091 
L 1983.863546 211.709091 
L 1989.167162 211.709091 
L 1994.357472 211.709091 
L 1999.42761 211.709091 
L 2004.370708 211.709091 
L 2009.179899 211.709091 
L 2013.848317 211.709091 
L 2018.369095 211.709091 
L 2022.735365 211.709091 
L 2026.94026 211.709091 
M 1824.966234 95.099333 
L 1827.068681 98.740879 
L 1829.251816 102.522179 
L 1831.512205 106.437287 
L 1833.846414 110.480256 
L 1836.25101 114.645138 
L 1838.722559 118.925986 
L 1841.257628 123.316854 
L 1843.852783 127.811795 
L 1846.50459 132.404861 
L 1849.209618 137.090105 
L 1851.964431 141.861581 
L 1854.765596 146.713342 
L 1857.60968 151.63944 
L 1860.493249 156.633928 
L 1863.41287 161.69086 
L 1866.365109 166.804289 
L 1869.346533 171.968266 
L 1872.353709 177.176847 
L 1875.383202 182.424083 
L 1878.431579 187.704027 
L 1881.495407 193.010733 
L 1884.571253 198.338254 
L 1887.655682 203.680642 
L 1890.745261 209.03195 
L 1893.836557 214.386232 
L 1896.926137 219.73754 
L 1900.010566 225.079928 
L 1903.086411 230.407449 
L 1906.150239 235.714155 
L 1909.198616 240.994099 
L 1912.228109 246.241335 
L 1915.235285 251.449915 
L 1918.216709 256.613893 
L 1921.168948 261.727322 
L 1924.088569 266.784254 
L 1926.972138 271.778742 
L 1929.816222 276.70484 
L 1932.617388 281.556601 
L 1935.372201 286.328077 
L 1938.077228 291.013321 
L 1940.729036 295.606387 
L 1943.324191 300.101327 
L 1945.859259 304.492195 
L 1948.330809 308.773044 
L 1950.735404 312.937926 
L 1953.069613 316.980895 
L 1955.330002 320.896003 
L 1957.513137 324.677303 
L 1959.615584 328.318849 
" style="fill:none;stroke:#1f77b4;stroke-width:0.5;"/>
    <path clip-path="url(#pdc599845ad)" d="M 1824.966234 328.318849 
L 1827.068681 324.677303 
L 1829.251816 320.896003 
L 1831.512205 316.980895 
L 1833.846414 312.937926 
L 1836.25101 308.773044 
L 1838.722559 304.492195 
L 1841.257628 300.101327 
L 1843.852783 295.606387 
L 1846.50459 291.013321 
L 1849.209618 286.328077 
L 1851.964431 281.556601 
L 1854.765596 276.70484 
L 1857.60968 271.778742 
L 1860.493249 266.784254 
L 1863.41287 261.727322 
L 1866.365109 256.613893 
L 1869.346533 251.449915 
L 1872.353709 246.241335 
L 1875.383202 240.994099 
L 1878.431579 235.714155 
L 1881.495407 230.407449 
L 1884.571253 225.079928 
L 1887.655682 219.73754 
L 1890.745261 214.386232 
L 1893.836557 209.03195 
L 1896.926137 203.680642 
L 1900.010566 198.338254 
L 1903.086411 193.010733 
L 1906.150239 187.704027 
L 1909.198616 182.424083 
L 1912.228109 177.176847 
L 1915.235285 171.968266 
L 1918.216709 166.804289 
L 1921.168948 161.69086 
L 1924.088569 156.633928 
L 1926.972138 151.63944 
L 1929.816222 146.713342 
L 1932.617388 141.861581 
L 1935.372201 137.090105 
L 1938.077228 132.404861 
L 1940.729036 127.811795 
L 1943.324191 123.316854 
L 1945.859259 118.925986 
L 1948.330809 114.645138 
L 1950.735404 110.480256 
L 1953.069613 106.437287 
L 1955.330002 102.522179 
L 1957.513137 98.740879 
L 1959.615584 95.099333 
M 1757.641558 211.709091 
L 1761.846454 211.709091 
L 1766.212723 211.709091 
L 1770.733501 211.709091 
L 1775.401919 211.709091 
L 1780.21111 211.709091 
L 1785.154208 211.709091 
L 1790.224346 211.709091 
L 1795.414656 211.709091 
L 1800.718272 211.709091 
L 1806.128326 211.709091 
L 1811.637952 211.709091 
L 1817.240282 211.709091 
L 1822.92845 211.709091 
L 1828.695589 211.709091 
L 1834.534831 211.709091 
L 1840.43931 211.709091 
L 1846.402158 211.709091 
L 1852.416508 211.709091 
L 1858.475494 211.709091 
L 1864.572249 211.709091 
L 1870.699905 211.709091 
L 1876.851596 211.709091 
L 1883.020454 211.709091 
L 1889.199613 211.709091 
L 1895.382205 211.709091 
L 1901.561364 211.709091 
L 1907.730222 211.709091 
L 1913.881913 211.709091 
L 1920.009569 211.709091 
L 1926.106324 211.709091 
L 1932.16531 211.709091 
L 1938.17966 211.709091 
L 1944.142509 211.709091 
L 1950.046987 211.709091 
L 1955.886229 211.709091 
L 1961.653368 211.709091 
L 1967.341536 211.709091 
L 1972.943866 211.709091 
L 1978.453492 211.709091 
L 1983.863546 211.709091 
L 1989.167162 211.709091 
L 1994.357472 211.709091 
L 1999.42761 211.709091 
L 2004.370708 211.709091 
L 2009.179899 211.709091 
L 2013.848317 211.709091 
L 2018.369095 211.709091 
L 2022.735365 211.709091 
L 2026.94026 211.709091 
" style="fill:none;stroke:#aec7e8;stroke-width:0.5;"/>
   </g>
   <g id="PathCollection_4">
    <defs>
     <path d="M 0 5 
C 1.326016 5 2.597899 4.473168 3.535534 3.535534 
C 4.473168 2.597899 5 1.326016 5 -0 
C 5 -1.326016 4.473168 -2.597899 3.535534 -3.535534 
C 2.597899 -4.473168 1.326016 -5 0 -5 
C -1.326016 -5 -2.597899 -4.473168 -3.535534 -3.535534 
C -4.473168 -2.597899 -5 -1.326016 -5 0 
C -5 1.326016 -4.473168 2.597899 -3.535534 3.535534 
C -2.597899 4.473168 -1.326016 5 0 5 
z
" id="C3_0_1fa85bc884"/>
    </defs>
    <g clip-path="url(#pdc599845ad)">
     <use style="fill:#1f77b4;stroke:#000000;" x="1892.290909" xlink:href="#C3_0_1fa85bc884" y="77.05974"/>
    </g>
    <g clip-path="url(#pdc599845ad)">
     <use style="fill:#aec7e8;stroke:#000000;" x="1892.290909" xlink:href="#C3_0_1fa85bc884" y="346.358442"/>
    </g>
   </g>
   <g id="text_10">
    <!-- AP-AT-02-W01 -->
    <g transform="translate(1894.498409 70.327273)rotate(-90)scale(0.08 -0.08)">
     <use xlink:href="#DejaVuSans-65"/>
     <use x="68.408203" xlink:href="#DejaVuSans-80"/>
     <use x="126.460938" xlink:href="#DejaVuSans-45"/>
     <use x="160.294922" xlink:href="#DejaVuSans-65"/>
     <use x="220.953125" xlink:href="#DejaVuSans-84"/>
     <use x="272.912109" xlink:href="#DejaVuSans-45"/>
     <use x="308.996094" xlink:href="#DejaVuSans-48"/>
     <use x="372.619141" xlink:href="#DejaVuSans-50"/>
     <use x="436.242188" xlink:href="#DejaVuSans-45"/>
     <use x="468.326172" xlink:href="#DejaVuSans-87"/>
     <use x="567.203125" xlink:href="#DejaVuSans-48"/>
     <use x="630.826172" xlink:href="#DejaVuSans-49"/>
    </g>
   </g>
   <g id="text_11">
    <!-- AP-AT-02-W02 -->
    <g transform="translate(1890.083409 353.090909)rotate(-270)scale(0.08 -0.08)">
     <use xlink:href="#DejaVuSans-65"/>
     <use x="68.408203" xlink:href="#DejaVuSans-80"/>
     <use x="126.460938" xlink:href="#DejaVuSans-45"/>
     <use x="160.294922" xlink:href="#DejaVuSans-65"/>
     <use x="220.953125" xlink:href="#DejaVuSans-84"/>
     <use x="272.912109" xlink:href="#DejaVuSans-45"/>
     <use x="308.996094" xlink:href="#DejaVuSans-48"/>
     <use x="372.619141" xlink:href="#DejaVuSans-50"/>
     <use x="436.242188" xlink:href="#DejaVuSans-45"/>
     <use x="468.326172" xlink:href="#DejaVuSans-87"/>
     <use x="567.203125" xlink:href="#DejaVuSans-48"/>
     <use x="630.826172" xlink:href="#DejaVuSans-50"/>
    </g>
   </g>
   <g id="text_12">
    <!-- Movements cluster 3 -->
    <g transform="translate(1829.347159 17.2)scale(0.12 -0.12)">
     <defs>
      <path d="M 40.578125 39.3125 
Q 47.65625 37.796875 51.625 33 
Q 55.609375 28.21875 55.609375 21.1875 
Q 55.609375 10.40625 48.1875 4.484375 
Q 40.765625 -1.421875 27.09375 -1.421875 
Q 22.515625 -1.421875 17.65625 -0.515625 
Q 12.796875 0.390625 7.625 2.203125 
L 7.625 11.71875 
Q 11.71875 9.328125 16.59375 8.109375 
Q 21.484375 6.890625 26.8125 6.890625 
Q 36.078125 6.890625 40.9375 10.546875 
Q 45.796875 14.203125 45.796875 21.1875 
Q 45.796875 27.640625 41.28125 31.265625 
Q 36.765625 34.90625 28.71875 34.90625 
L 20.21875 34.90625 
L 20.21875 43.015625 
L 29.109375 43.015625 
Q 36.375 43.015625 40.234375 45.921875 
Q 44.09375 48.828125 44.09375 54.296875 
Q 44.09375 59.90625 40.109375 62.90625 
Q 36.140625 65.921875 28.71875 65.921875 
Q 24.65625 65.921875 20.015625 65.03125 
Q 15.375 64.15625 9.8125 62.3125 
L 9.8125 71.09375 
Q 15.4375 72.65625 20.34375 73.4375 
Q 25.25 74.21875 29.59375 74.21875 
Q 40.828125 74.21875 47.359375 69.109375 
Q 53.90625 64.015625 53.90625 55.328125 
Q 53.90625 49.265625 50.4375 45.09375 
Q 46.96875 40.921875 40.578125 39.3125 
z
" id="DejaVuSans-51"/>
     </defs>
     <use xlink:href="#DejaVuSans-77"/>
     <use x="86.279297" xlink:href="#DejaVuSans-111"/>
     <use x="147.460938" xlink:href="#DejaVuSans-118"/>
     <use x="206.640625" xlink:href="#DejaVuSans-101"/>
     <use x="268.164062" xlink:href="#DejaVuSans-109"/>
     <use x="365.576172" xlink:href="#DejaVuSans-101"/>
     <use x="427.099609" xlink:href="#DejaVuSans-110"/>
     <use x="490.478516" xlink:href="#DejaVuSans-116"/>
     <use x="529.6875" xlink:href="#DejaVuSans-115"/>
     <use x="581.787109" xlink:href="#DejaVuSans-32"/>
     <use x="613.574219" xlink:href="#DejaVuSans-99"/>
     <use x="668.554688" xlink:href="#DejaVuSans-108"/>
     <use x="696.337891" xlink:href="#DejaVuSans-117"/>
     <use x="759.716797" xlink:href="#DejaVuSans-115"/>
     <use x="811.816406" xlink:href="#DejaVuSans-116"/>
     <use x="851.025391" xlink:href="#DejaVuSans-101"/>
     <use x="912.548828" xlink:href="#DejaVuSans-114"/>
     <use x="953.662109" xlink:href="#DejaVuSans-32"/>
     <use x="985.449219" xlink:href="#DejaVuSans-51"/>
    </g>
   </g>
  </g>
 </g>
 <defs>
  <clipPath id="pef5c44f3fb">
   <rect height="377.018182" width="377.018182" x="7.2" y="23.2"/>
  </clipPath>
  <clipPath id="p62c6b431fb">
   <rect height="377.018182" width="377.018182" x="572.727273" y="23.2"/>
  </clipPath>
  <clipPath id="paefeeeee30">
   <rect height="377.018182" width="377.018182" x="1138.254545" y="23.2"/>
  </clipPath>
  <clipPath id="pdc599845ad">
   <rect height="377.018182" width="377.018182" x="1703.781818" y="23.2"/>
  </clipPath>
 </defs>
</svg>
