<?xml version="1.0" encoding="utf-8" standalone="no"?>
<!DOCTYPE svg PUBLIC "-//W3C//DTD SVG 1.1//EN"
  "http://www.w3.org/Graphics/SVG/1.1/DTD/svg11.dtd">
<!-- Created with matplotlib (https://matplotlib.org/) -->
<svg height="448.405pt" version="1.1" viewBox="0 0 1051.2 448.405" width="1051.2pt" xmlns="http://www.w3.org/2000/svg" xmlns:xlink="http://www.w3.org/1999/xlink">
 <metadata>
  <rdf:RDF xmlns:cc="http://creativecommons.org/ns#" xmlns:dc="http://purl.org/dc/elements/1.1/" xmlns:rdf="http://www.w3.org/1999/02/22-rdf-syntax-ns#">
   <cc:Work>
    <dc:type rdf:resource="http://purl.org/dc/dcmitype/StillImage"/>
    <dc:date>2021-06-22T08:31:36.914471</dc:date>
    <dc:format>image/svg+xml</dc:format>
    <dc:creator>
     <cc:Agent>
      <dc:title>Matplotlib v3.3.4, https://matplotlib.org/</dc:title>
     </cc:Agent>
    </dc:creator>
   </cc:Work>
  </rdf:RDF>
 </metadata>
 <defs>
  <style type="text/css">*{stroke-linecap:butt;stroke-linejoin:round;}</style>
 </defs>
 <g id="figure_1">
  <g id="patch_1">
   <path d="M 0 448.405 
L 1051.2 448.405 
L 1051.2 0 
L 0 0 
z
" style="fill:#ffffff;"/>
  </g>
  <g id="axes_1">
   <g id="patch_2">
    <path d="M 7.2 437.92 
L 421.92 437.92 
L 421.92 23.2 
L 7.2 23.2 
z
" style="fill:#ffffff;"/>
   </g>
   <g id="LineCollection_1">
    <path clip-path="url(#p1d1e92d321)" d="M 362.674286 230.56 
L 360.6542 206.18119 
L 354.649045 182.46737 
L 344.822626 160.065392 
L 331.442983 139.586323 
L 314.875076 121.588778 
L 295.570836 106.563685 
L 274.056831 94.920888 
L 250.919908 86.977972 
L 226.791181 82.9516 
L 202.328819 82.9516 
L 178.200092 86.977972 
L 155.063169 94.920888 
L 133.549164 106.563685 
L 114.244924 121.588778 
L 97.677017 139.586323 
L 84.297374 160.065392 
L 74.470955 182.46737 
L 68.4658 206.18119 
L 66.445714 230.56 
" style="fill:none;stroke:#1f77b4;stroke-width:10;"/>
    <path clip-path="url(#p1d1e92d321)" d="M 66.445714 230.56 
L 68.4658 254.93881 
L 74.470955 278.65263 
L 84.297374 301.054608 
L 97.677017 321.533677 
L 114.244924 339.531222 
L 133.549164 354.556315 
L 155.063169 366.199112 
L 178.200092 374.142028 
L 202.328819 378.1684 
L 226.791181 378.1684 
L 250.919908 374.142028 
L 274.056831 366.199112 
L 295.570836 354.556315 
L 314.875076 339.531222 
L 331.442983 321.533677 
L 344.822626 301.054608 
L 354.649045 278.65263 
L 360.6542 254.93881 
L 362.674286 230.56 
" style="fill:none;stroke:#aec7e8;stroke-width:10;"/>
   </g>
   <g id="LineCollection_2">
    <path clip-path="url(#p1d1e92d321)" d="M 362.674286 230.56 
L 358.048901 230.56 
L 353.246004 230.56 
L 348.273149 230.56 
L 343.137889 230.56 
L 337.847779 230.56 
L 332.410371 230.56 
L 326.833219 230.56 
L 321.123878 230.56 
L 315.289901 230.56 
L 309.338841 230.56 
L 303.278253 230.56 
L 297.115689 230.56 
L 290.858704 230.56 
L 284.514852 230.56 
L 278.091686 230.56 
L 271.596759 230.56 
L 265.037627 230.56 
L 258.421841 230.56 
L 251.756956 230.56 
L 245.050526 230.56 
L 238.310104 230.56 
L 231.543244 230.56 
L 224.7575 230.56 
L 217.960426 230.56 
L 211.159574 230.56 
L 204.3625 230.56 
L 197.576756 230.56 
L 190.809896 230.56 
L 184.069474 230.56 
L 177.363044 230.56 
L 170.698159 230.56 
L 164.082373 230.56 
L 157.523241 230.56 
L 151.028314 230.56 
L 144.605148 230.56 
L 138.261296 230.56 
L 132.004311 230.56 
L 125.841747 230.56 
L 119.781159 230.56 
L 113.830099 230.56 
L 107.996122 230.56 
L 102.286781 230.56 
L 96.709629 230.56 
L 91.272221 230.56 
L 85.982111 230.56 
L 80.846851 230.56 
L 75.873996 230.56 
L 71.071099 230.56 
L 66.445714 230.56 
" style="fill:none;stroke:#aec7e8;stroke-width:0.5;"/>
    <path clip-path="url(#p1d1e92d321)" d="M 362.674286 230.56 
L 358.048901 230.56 
L 353.246004 230.56 
L 348.273149 230.56 
L 343.137889 230.56 
L 337.847779 230.56 
L 332.410371 230.56 
L 326.833219 230.56 
L 321.123878 230.56 
L 315.289901 230.56 
L 309.338841 230.56 
L 303.278253 230.56 
L 297.115689 230.56 
L 290.858704 230.56 
L 284.514852 230.56 
L 278.091686 230.56 
L 271.596759 230.56 
L 265.037627 230.56 
L 258.421841 230.56 
L 251.756956 230.56 
L 245.050526 230.56 
L 238.310104 230.56 
L 231.543244 230.56 
L 224.7575 230.56 
L 217.960426 230.56 
L 211.159574 230.56 
L 204.3625 230.56 
L 197.576756 230.56 
L 190.809896 230.56 
L 184.069474 230.56 
L 177.363044 230.56 
L 170.698159 230.56 
L 164.082373 230.56 
L 157.523241 230.56 
L 151.028314 230.56 
L 144.605148 230.56 
L 138.261296 230.56 
L 132.004311 230.56 
L 125.841747 230.56 
L 119.781159 230.56 
L 113.830099 230.56 
L 107.996122 230.56 
L 102.286781 230.56 
L 96.709629 230.56 
L 91.272221 230.56 
L 85.982111 230.56 
L 80.846851 230.56 
L 75.873996 230.56 
L 71.071099 230.56 
L 66.445714 230.56 
" style="fill:none;stroke:#1f77b4;stroke-width:0.5;"/>
   </g>
   <g id="PathCollection_1">
    <defs>
     <path d="M 0 5 
C 1.326016 5 2.597899 4.473168 3.535534 3.535534 
C 4.473168 2.597899 5 1.326016 5 -0 
C 5 -1.326016 4.473168 -2.597899 3.535534 -3.535534 
C 2.597899 -4.473168 1.326016 -5 0 -5 
C -1.326016 -5 -2.597899 -4.473168 -3.535534 -3.535534 
C -4.473168 -2.597899 -5 -1.326016 -5 0 
C -5 1.326016 -4.473168 2.597899 -3.535534 3.535534 
C -2.597899 4.473168 -1.326016 5 0 5 
z
" id="C0_0_64ea646ec9"/>
    </defs>
    <g clip-path="url(#p1d1e92d321)">
     <use style="fill:#1f77b4;stroke:#000000;" x="214.56" xlink:href="#C0_0_64ea646ec9" y="82.445714"/>
    </g>
    <g clip-path="url(#p1d1e92d321)">
     <use style="fill:#aec7e8;stroke:#000000;" x="214.56" xlink:href="#C0_0_64ea646ec9" y="378.674286"/>
    </g>
   </g>
   <g id="text_1">
    <!-- AP-AT-02-W07 -->
    <g transform="translate(216.7675 75.04)rotate(-90)scale(0.08 -0.08)">
     <defs>
      <path d="M 34.1875 63.1875 
L 20.796875 26.90625 
L 47.609375 26.90625 
z
M 28.609375 72.90625 
L 39.796875 72.90625 
L 67.578125 0 
L 57.328125 0 
L 50.6875 18.703125 
L 17.828125 18.703125 
L 11.1875 0 
L 0.78125 0 
z
" id="DejaVuSans-65"/>
      <path d="M 19.671875 64.796875 
L 19.671875 37.40625 
L 32.078125 37.40625 
Q 38.96875 37.40625 42.71875 40.96875 
Q 46.484375 44.53125 46.484375 51.125 
Q 46.484375 57.671875 42.71875 61.234375 
Q 38.96875 64.796875 32.078125 64.796875 
z
M 9.8125 72.90625 
L 32.078125 72.90625 
Q 44.34375 72.90625 50.609375 67.359375 
Q 56.890625 61.8125 56.890625 51.125 
Q 56.890625 40.328125 50.609375 34.8125 
Q 44.34375 29.296875 32.078125 29.296875 
L 19.671875 29.296875 
L 19.671875 0 
L 9.8125 0 
z
" id="DejaVuSans-80"/>
      <path d="M 4.890625 31.390625 
L 31.203125 31.390625 
L 31.203125 23.390625 
L 4.890625 23.390625 
z
" id="DejaVuSans-45"/>
      <path d="M -0.296875 72.90625 
L 61.375 72.90625 
L 61.375 64.59375 
L 35.5 64.59375 
L 35.5 0 
L 25.59375 0 
L 25.59375 64.59375 
L -0.296875 64.59375 
z
" id="DejaVuSans-84"/>
      <path d="M 31.78125 66.40625 
Q 24.171875 66.40625 20.328125 58.90625 
Q 16.5 51.421875 16.5 36.375 
Q 16.5 21.390625 20.328125 13.890625 
Q 24.171875 6.390625 31.78125 6.390625 
Q 39.453125 6.390625 43.28125 13.890625 
Q 47.125 21.390625 47.125 36.375 
Q 47.125 51.421875 43.28125 58.90625 
Q 39.453125 66.40625 31.78125 66.40625 
z
M 31.78125 74.21875 
Q 44.046875 74.21875 50.515625 64.515625 
Q 56.984375 54.828125 56.984375 36.375 
Q 56.984375 17.96875 50.515625 8.265625 
Q 44.046875 -1.421875 31.78125 -1.421875 
Q 19.53125 -1.421875 13.0625 8.265625 
Q 6.59375 17.96875 6.59375 36.375 
Q 6.59375 54.828125 13.0625 64.515625 
Q 19.53125 74.21875 31.78125 74.21875 
z
" id="DejaVuSans-48"/>
      <path d="M 19.1875 8.296875 
L 53.609375 8.296875 
L 53.609375 0 
L 7.328125 0 
L 7.328125 8.296875 
Q 12.9375 14.109375 22.625 23.890625 
Q 32.328125 33.6875 34.8125 36.53125 
Q 39.546875 41.84375 41.421875 45.53125 
Q 43.3125 49.21875 43.3125 52.78125 
Q 43.3125 58.59375 39.234375 62.25 
Q 35.15625 65.921875 28.609375 65.921875 
Q 23.96875 65.921875 18.8125 64.3125 
Q 13.671875 62.703125 7.8125 59.421875 
L 7.8125 69.390625 
Q 13.765625 71.78125 18.9375 73 
Q 24.125 74.21875 28.421875 74.21875 
Q 39.75 74.21875 46.484375 68.546875 
Q 53.21875 62.890625 53.21875 53.421875 
Q 53.21875 48.921875 51.53125 44.890625 
Q 49.859375 40.875 45.40625 35.40625 
Q 44.1875 33.984375 37.640625 27.21875 
Q 31.109375 20.453125 19.1875 8.296875 
z
" id="DejaVuSans-50"/>
      <path d="M 3.328125 72.90625 
L 13.28125 72.90625 
L 28.609375 11.28125 
L 43.890625 72.90625 
L 54.984375 72.90625 
L 70.3125 11.28125 
L 85.59375 72.90625 
L 95.609375 72.90625 
L 77.296875 0 
L 64.890625 0 
L 49.515625 63.28125 
L 33.984375 0 
L 21.578125 0 
z
" id="DejaVuSans-87"/>
      <path d="M 8.203125 72.90625 
L 55.078125 72.90625 
L 55.078125 68.703125 
L 28.609375 0 
L 18.3125 0 
L 43.21875 64.59375 
L 8.203125 64.59375 
z
" id="DejaVuSans-55"/>
     </defs>
     <use xlink:href="#DejaVuSans-65"/>
     <use x="68.408203" xlink:href="#DejaVuSans-80"/>
     <use x="126.460938" xlink:href="#DejaVuSans-45"/>
     <use x="160.294922" xlink:href="#DejaVuSans-65"/>
     <use x="220.953125" xlink:href="#DejaVuSans-84"/>
     <use x="272.912109" xlink:href="#DejaVuSans-45"/>
     <use x="308.996094" xlink:href="#DejaVuSans-48"/>
     <use x="372.619141" xlink:href="#DejaVuSans-50"/>
     <use x="436.242188" xlink:href="#DejaVuSans-45"/>
     <use x="468.326172" xlink:href="#DejaVuSans-87"/>
     <use x="567.203125" xlink:href="#DejaVuSans-48"/>
     <use x="630.826172" xlink:href="#DejaVuSans-55"/>
    </g>
   </g>
   <g id="text_2">
    <!-- AP-AT-06-W39 -->
    <g transform="translate(212.3525 386.08)rotate(-270)scale(0.08 -0.08)">
     <defs>
      <path d="M 33.015625 40.375 
Q 26.375 40.375 22.484375 35.828125 
Q 18.609375 31.296875 18.609375 23.390625 
Q 18.609375 15.53125 22.484375 10.953125 
Q 26.375 6.390625 33.015625 6.390625 
Q 39.65625 6.390625 43.53125 10.953125 
Q 47.40625 15.53125 47.40625 23.390625 
Q 47.40625 31.296875 43.53125 35.828125 
Q 39.65625 40.375 33.015625 40.375 
z
M 52.59375 71.296875 
L 52.59375 62.3125 
Q 48.875 64.0625 45.09375 64.984375 
Q 41.3125 65.921875 37.59375 65.921875 
Q 27.828125 65.921875 22.671875 59.328125 
Q 17.53125 52.734375 16.796875 39.40625 
Q 19.671875 43.65625 24.015625 45.921875 
Q 28.375 48.1875 33.59375 48.1875 
Q 44.578125 48.1875 50.953125 41.515625 
Q 57.328125 34.859375 57.328125 23.390625 
Q 57.328125 12.15625 50.6875 5.359375 
Q 44.046875 -1.421875 33.015625 -1.421875 
Q 20.359375 -1.421875 13.671875 8.265625 
Q 6.984375 17.96875 6.984375 36.375 
Q 6.984375 53.65625 15.1875 63.9375 
Q 23.390625 74.21875 37.203125 74.21875 
Q 40.921875 74.21875 44.703125 73.484375 
Q 48.484375 72.75 52.59375 71.296875 
z
" id="DejaVuSans-54"/>
      <path d="M 40.578125 39.3125 
Q 47.65625 37.796875 51.625 33 
Q 55.609375 28.21875 55.609375 21.1875 
Q 55.609375 10.40625 48.1875 4.484375 
Q 40.765625 -1.421875 27.09375 -1.421875 
Q 22.515625 -1.421875 17.65625 -0.515625 
Q 12.796875 0.390625 7.625 2.203125 
L 7.625 11.71875 
Q 11.71875 9.328125 16.59375 8.109375 
Q 21.484375 6.890625 26.8125 6.890625 
Q 36.078125 6.890625 40.9375 10.546875 
Q 45.796875 14.203125 45.796875 21.1875 
Q 45.796875 27.640625 41.28125 31.265625 
Q 36.765625 34.90625 28.71875 34.90625 
L 20.21875 34.90625 
L 20.21875 43.015625 
L 29.109375 43.015625 
Q 36.375 43.015625 40.234375 45.921875 
Q 44.09375 48.828125 44.09375 54.296875 
Q 44.09375 59.90625 40.109375 62.90625 
Q 36.140625 65.921875 28.71875 65.921875 
Q 24.65625 65.921875 20.015625 65.03125 
Q 15.375 64.15625 9.8125 62.3125 
L 9.8125 71.09375 
Q 15.4375 72.65625 20.34375 73.4375 
Q 25.25 74.21875 29.59375 74.21875 
Q 40.828125 74.21875 47.359375 69.109375 
Q 53.90625 64.015625 53.90625 55.328125 
Q 53.90625 49.265625 50.4375 45.09375 
Q 46.96875 40.921875 40.578125 39.3125 
z
" id="DejaVuSans-51"/>
      <path d="M 10.984375 1.515625 
L 10.984375 10.5 
Q 14.703125 8.734375 18.5 7.8125 
Q 22.3125 6.890625 25.984375 6.890625 
Q 35.75 6.890625 40.890625 13.453125 
Q 46.046875 20.015625 46.78125 33.40625 
Q 43.953125 29.203125 39.59375 26.953125 
Q 35.25 24.703125 29.984375 24.703125 
Q 19.046875 24.703125 12.671875 31.3125 
Q 6.296875 37.9375 6.296875 49.421875 
Q 6.296875 60.640625 12.9375 67.421875 
Q 19.578125 74.21875 30.609375 74.21875 
Q 43.265625 74.21875 49.921875 64.515625 
Q 56.59375 54.828125 56.59375 36.375 
Q 56.59375 19.140625 48.40625 8.859375 
Q 40.234375 -1.421875 26.421875 -1.421875 
Q 22.703125 -1.421875 18.890625 -0.6875 
Q 15.09375 0.046875 10.984375 1.515625 
z
M 30.609375 32.421875 
Q 37.25 32.421875 41.125 36.953125 
Q 45.015625 41.5 45.015625 49.421875 
Q 45.015625 57.28125 41.125 61.84375 
Q 37.25 66.40625 30.609375 66.40625 
Q 23.96875 66.40625 20.09375 61.84375 
Q 16.21875 57.28125 16.21875 49.421875 
Q 16.21875 41.5 20.09375 36.953125 
Q 23.96875 32.421875 30.609375 32.421875 
z
" id="DejaVuSans-57"/>
     </defs>
     <use xlink:href="#DejaVuSans-65"/>
     <use x="68.408203" xlink:href="#DejaVuSans-80"/>
     <use x="126.460938" xlink:href="#DejaVuSans-45"/>
     <use x="160.294922" xlink:href="#DejaVuSans-65"/>
     <use x="220.953125" xlink:href="#DejaVuSans-84"/>
     <use x="272.912109" xlink:href="#DejaVuSans-45"/>
     <use x="308.996094" xlink:href="#DejaVuSans-48"/>
     <use x="372.619141" xlink:href="#DejaVuSans-54"/>
     <use x="436.242188" xlink:href="#DejaVuSans-45"/>
     <use x="468.326172" xlink:href="#DejaVuSans-87"/>
     <use x="567.203125" xlink:href="#DejaVuSans-51"/>
     <use x="630.826172" xlink:href="#DejaVuSans-57"/>
    </g>
   </g>
   <g id="text_3">
    <!-- Movements cluster 0 -->
    <g transform="translate(151.61625 17.2)scale(0.12 -0.12)">
     <defs>
      <path d="M 9.8125 72.90625 
L 24.515625 72.90625 
L 43.109375 23.296875 
L 61.8125 72.90625 
L 76.515625 72.90625 
L 76.515625 0 
L 66.890625 0 
L 66.890625 64.015625 
L 48.09375 14.015625 
L 38.1875 14.015625 
L 19.390625 64.015625 
L 19.390625 0 
L 9.8125 0 
z
" id="DejaVuSans-77"/>
      <path d="M 30.609375 48.390625 
Q 23.390625 48.390625 19.1875 42.75 
Q 14.984375 37.109375 14.984375 27.296875 
Q 14.984375 17.484375 19.15625 11.84375 
Q 23.34375 6.203125 30.609375 6.203125 
Q 37.796875 6.203125 41.984375 11.859375 
Q 46.1875 17.53125 46.1875 27.296875 
Q 46.1875 37.015625 41.984375 42.703125 
Q 37.796875 48.390625 30.609375 48.390625 
z
M 30.609375 56 
Q 42.328125 56 49.015625 48.375 
Q 55.71875 40.765625 55.71875 27.296875 
Q 55.71875 13.875 49.015625 6.21875 
Q 42.328125 -1.421875 30.609375 -1.421875 
Q 18.84375 -1.421875 12.171875 6.21875 
Q 5.515625 13.875 5.515625 27.296875 
Q 5.515625 40.765625 12.171875 48.375 
Q 18.84375 56 30.609375 56 
z
" id="DejaVuSans-111"/>
      <path d="M 2.984375 54.6875 
L 12.5 54.6875 
L 29.59375 8.796875 
L 46.6875 54.6875 
L 56.203125 54.6875 
L 35.6875 0 
L 23.484375 0 
z
" id="DejaVuSans-118"/>
      <path d="M 56.203125 29.59375 
L 56.203125 25.203125 
L 14.890625 25.203125 
Q 15.484375 15.921875 20.484375 11.0625 
Q 25.484375 6.203125 34.421875 6.203125 
Q 39.59375 6.203125 44.453125 7.46875 
Q 49.3125 8.734375 54.109375 11.28125 
L 54.109375 2.78125 
Q 49.265625 0.734375 44.1875 -0.34375 
Q 39.109375 -1.421875 33.890625 -1.421875 
Q 20.796875 -1.421875 13.15625 6.1875 
Q 5.515625 13.8125 5.515625 26.8125 
Q 5.515625 40.234375 12.765625 48.109375 
Q 20.015625 56 32.328125 56 
Q 43.359375 56 49.78125 48.890625 
Q 56.203125 41.796875 56.203125 29.59375 
z
M 47.21875 32.234375 
Q 47.125 39.59375 43.09375 43.984375 
Q 39.0625 48.390625 32.421875 48.390625 
Q 24.90625 48.390625 20.390625 44.140625 
Q 15.875 39.890625 15.1875 32.171875 
z
" id="DejaVuSans-101"/>
      <path d="M 52 44.1875 
Q 55.375 50.25 60.0625 53.125 
Q 64.75 56 71.09375 56 
Q 79.640625 56 84.28125 50.015625 
Q 88.921875 44.046875 88.921875 33.015625 
L 88.921875 0 
L 79.890625 0 
L 79.890625 32.71875 
Q 79.890625 40.578125 77.09375 44.375 
Q 74.3125 48.1875 68.609375 48.1875 
Q 61.625 48.1875 57.5625 43.546875 
Q 53.515625 38.921875 53.515625 30.90625 
L 53.515625 0 
L 44.484375 0 
L 44.484375 32.71875 
Q 44.484375 40.625 41.703125 44.40625 
Q 38.921875 48.1875 33.109375 48.1875 
Q 26.21875 48.1875 22.15625 43.53125 
Q 18.109375 38.875 18.109375 30.90625 
L 18.109375 0 
L 9.078125 0 
L 9.078125 54.6875 
L 18.109375 54.6875 
L 18.109375 46.1875 
Q 21.1875 51.21875 25.484375 53.609375 
Q 29.78125 56 35.6875 56 
Q 41.65625 56 45.828125 52.96875 
Q 50 49.953125 52 44.1875 
z
" id="DejaVuSans-109"/>
      <path d="M 54.890625 33.015625 
L 54.890625 0 
L 45.90625 0 
L 45.90625 32.71875 
Q 45.90625 40.484375 42.875 44.328125 
Q 39.84375 48.1875 33.796875 48.1875 
Q 26.515625 48.1875 22.3125 43.546875 
Q 18.109375 38.921875 18.109375 30.90625 
L 18.109375 0 
L 9.078125 0 
L 9.078125 54.6875 
L 18.109375 54.6875 
L 18.109375 46.1875 
Q 21.34375 51.125 25.703125 53.5625 
Q 30.078125 56 35.796875 56 
Q 45.21875 56 50.046875 50.171875 
Q 54.890625 44.34375 54.890625 33.015625 
z
" id="DejaVuSans-110"/>
      <path d="M 18.3125 70.21875 
L 18.3125 54.6875 
L 36.8125 54.6875 
L 36.8125 47.703125 
L 18.3125 47.703125 
L 18.3125 18.015625 
Q 18.3125 11.328125 20.140625 9.421875 
Q 21.96875 7.515625 27.59375 7.515625 
L 36.8125 7.515625 
L 36.8125 0 
L 27.59375 0 
Q 17.1875 0 13.234375 3.875 
Q 9.28125 7.765625 9.28125 18.015625 
L 9.28125 47.703125 
L 2.6875 47.703125 
L 2.6875 54.6875 
L 9.28125 54.6875 
L 9.28125 70.21875 
z
" id="DejaVuSans-116"/>
      <path d="M 44.28125 53.078125 
L 44.28125 44.578125 
Q 40.484375 46.53125 36.375 47.5 
Q 32.28125 48.484375 27.875 48.484375 
Q 21.1875 48.484375 17.84375 46.4375 
Q 14.5 44.390625 14.5 40.28125 
Q 14.5 37.15625 16.890625 35.375 
Q 19.28125 33.59375 26.515625 31.984375 
L 29.59375 31.296875 
Q 39.15625 29.25 43.1875 25.515625 
Q 47.21875 21.78125 47.21875 15.09375 
Q 47.21875 7.46875 41.1875 3.015625 
Q 35.15625 -1.421875 24.609375 -1.421875 
Q 20.21875 -1.421875 15.453125 -0.5625 
Q 10.6875 0.296875 5.421875 2 
L 5.421875 11.28125 
Q 10.40625 8.6875 15.234375 7.390625 
Q 20.0625 6.109375 24.8125 6.109375 
Q 31.15625 6.109375 34.5625 8.28125 
Q 37.984375 10.453125 37.984375 14.40625 
Q 37.984375 18.0625 35.515625 20.015625 
Q 33.0625 21.96875 24.703125 23.78125 
L 21.578125 24.515625 
Q 13.234375 26.265625 9.515625 29.90625 
Q 5.8125 33.546875 5.8125 39.890625 
Q 5.8125 47.609375 11.28125 51.796875 
Q 16.75 56 26.8125 56 
Q 31.78125 56 36.171875 55.265625 
Q 40.578125 54.546875 44.28125 53.078125 
z
" id="DejaVuSans-115"/>
      <path id="DejaVuSans-32"/>
      <path d="M 48.78125 52.59375 
L 48.78125 44.1875 
Q 44.96875 46.296875 41.140625 47.34375 
Q 37.3125 48.390625 33.40625 48.390625 
Q 24.65625 48.390625 19.8125 42.84375 
Q 14.984375 37.3125 14.984375 27.296875 
Q 14.984375 17.28125 19.8125 11.734375 
Q 24.65625 6.203125 33.40625 6.203125 
Q 37.3125 6.203125 41.140625 7.25 
Q 44.96875 8.296875 48.78125 10.40625 
L 48.78125 2.09375 
Q 45.015625 0.34375 40.984375 -0.53125 
Q 36.96875 -1.421875 32.421875 -1.421875 
Q 20.0625 -1.421875 12.78125 6.34375 
Q 5.515625 14.109375 5.515625 27.296875 
Q 5.515625 40.671875 12.859375 48.328125 
Q 20.21875 56 33.015625 56 
Q 37.15625 56 41.109375 55.140625 
Q 45.0625 54.296875 48.78125 52.59375 
z
" id="DejaVuSans-99"/>
      <path d="M 9.421875 75.984375 
L 18.40625 75.984375 
L 18.40625 0 
L 9.421875 0 
z
" id="DejaVuSans-108"/>
      <path d="M 8.5 21.578125 
L 8.5 54.6875 
L 17.484375 54.6875 
L 17.484375 21.921875 
Q 17.484375 14.15625 20.5 10.265625 
Q 23.53125 6.390625 29.59375 6.390625 
Q 36.859375 6.390625 41.078125 11.03125 
Q 45.3125 15.671875 45.3125 23.6875 
L 45.3125 54.6875 
L 54.296875 54.6875 
L 54.296875 0 
L 45.3125 0 
L 45.3125 8.40625 
Q 42.046875 3.421875 37.71875 1 
Q 33.40625 -1.421875 27.6875 -1.421875 
Q 18.265625 -1.421875 13.375 4.4375 
Q 8.5 10.296875 8.5 21.578125 
z
M 31.109375 56 
z
" id="DejaVuSans-117"/>
      <path d="M 41.109375 46.296875 
Q 39.59375 47.171875 37.8125 47.578125 
Q 36.03125 48 33.890625 48 
Q 26.265625 48 22.1875 43.046875 
Q 18.109375 38.09375 18.109375 28.8125 
L 18.109375 0 
L 9.078125 0 
L 9.078125 54.6875 
L 18.109375 54.6875 
L 18.109375 46.1875 
Q 20.953125 51.171875 25.484375 53.578125 
Q 30.03125 56 36.53125 56 
Q 37.453125 56 38.578125 55.875 
Q 39.703125 55.765625 41.0625 55.515625 
z
" id="DejaVuSans-114"/>
     </defs>
     <use xlink:href="#DejaVuSans-77"/>
     <use x="86.279297" xlink:href="#DejaVuSans-111"/>
     <use x="147.460938" xlink:href="#DejaVuSans-118"/>
     <use x="206.640625" xlink:href="#DejaVuSans-101"/>
     <use x="268.164062" xlink:href="#DejaVuSans-109"/>
     <use x="365.576172" xlink:href="#DejaVuSans-101"/>
     <use x="427.099609" xlink:href="#DejaVuSans-110"/>
     <use x="490.478516" xlink:href="#DejaVuSans-116"/>
     <use x="529.6875" xlink:href="#DejaVuSans-115"/>
     <use x="581.787109" xlink:href="#DejaVuSans-32"/>
     <use x="613.574219" xlink:href="#DejaVuSans-99"/>
     <use x="668.554688" xlink:href="#DejaVuSans-108"/>
     <use x="696.337891" xlink:href="#DejaVuSans-117"/>
     <use x="759.716797" xlink:href="#DejaVuSans-115"/>
     <use x="811.816406" xlink:href="#DejaVuSans-116"/>
     <use x="851.025391" xlink:href="#DejaVuSans-101"/>
     <use x="912.548828" xlink:href="#DejaVuSans-114"/>
     <use x="953.662109" xlink:href="#DejaVuSans-32"/>
     <use x="985.449219" xlink:href="#DejaVuSans-48"/>
    </g>
   </g>
  </g>
  <g id="axes_2">
   <g id="patch_3">
    <path d="M 629.28 437.92 
L 1044 437.92 
L 1044 23.2 
L 629.28 23.2 
z
" style="fill:#ffffff;"/>
   </g>
   <g id="LineCollection_3">
    <path clip-path="url(#pe5b6619f0e)" d="M 984.754286 230.56 
L 982.7342 206.18119 
L 976.729045 182.46737 
L 966.902626 160.065392 
L 953.522983 139.586323 
L 936.955076 121.588778 
L 917.650836 106.563685 
L 896.136831 94.920888 
L 872.999908 86.977972 
L 848.871181 82.9516 
L 824.408819 82.9516 
L 800.280092 86.977972 
L 777.143169 94.920888 
L 755.629164 106.563685 
L 736.324924 121.588778 
L 719.757017 139.586323 
L 706.377374 160.065392 
L 696.550955 182.46737 
L 690.5458 206.18119 
L 688.525714 230.56 
" style="fill:none;stroke:#ff7f0e;stroke-width:10;"/>
    <path clip-path="url(#pe5b6619f0e)" d="M 688.525714 230.56 
L 690.5458 254.93881 
L 696.550955 278.65263 
L 706.377374 301.054608 
L 719.757017 321.533677 
L 736.324924 339.531222 
L 755.629164 354.556315 
L 777.143169 366.199112 
L 800.280092 374.142028 
L 824.408819 378.1684 
L 848.871181 378.1684 
L 872.999908 374.142028 
L 896.136831 366.199112 
L 917.650836 354.556315 
L 936.955076 339.531222 
L 953.522983 321.533677 
L 966.902626 301.054608 
L 976.729045 278.65263 
L 982.7342 254.93881 
L 984.754286 230.56 
" style="fill:none;stroke:#ffbb78;stroke-width:10;"/>
   </g>
   <g id="LineCollection_4">
    <path clip-path="url(#pe5b6619f0e)" d="M 688.525714 230.56 
L 693.151099 230.56 
L 697.953996 230.56 
L 702.926851 230.56 
L 708.062111 230.56 
L 713.352221 230.56 
L 718.789629 230.56 
L 724.366781 230.56 
L 730.076122 230.56 
L 735.910099 230.56 
L 741.861159 230.56 
L 747.921747 230.56 
L 754.084311 230.56 
L 760.341296 230.56 
L 766.685148 230.56 
L 773.108314 230.56 
L 779.603241 230.56 
L 786.162373 230.56 
L 792.778159 230.56 
L 799.443044 230.56 
L 806.149474 230.56 
L 812.889896 230.56 
L 819.656756 230.56 
L 826.4425 230.56 
L 833.239574 230.56 
L 840.040426 230.56 
L 846.8375 230.56 
L 853.623244 230.56 
L 860.390104 230.56 
L 867.130526 230.56 
L 873.836956 230.56 
L 880.501841 230.56 
L 887.117627 230.56 
L 893.676759 230.56 
L 900.171686 230.56 
L 906.594852 230.56 
L 912.938704 230.56 
L 919.195689 230.56 
L 925.358253 230.56 
L 931.418841 230.56 
L 937.369901 230.56 
L 943.203878 230.56 
L 948.913219 230.56 
L 954.490371 230.56 
L 959.927779 230.56 
L 965.217889 230.56 
L 970.353149 230.56 
L 975.326004 230.56 
L 980.128901 230.56 
L 984.754286 230.56 
" style="fill:none;stroke:#ffbb78;stroke-width:0.5;"/>
   </g>
   <g id="PathCollection_2">
    <defs>
     <path d="M 0 5 
C 1.326016 5 2.597899 4.473168 3.535534 3.535534 
C 4.473168 2.597899 5 1.326016 5 -0 
C 5 -1.326016 4.473168 -2.597899 3.535534 -3.535534 
C 2.597899 -4.473168 1.326016 -5 0 -5 
C -1.326016 -5 -2.597899 -4.473168 -3.535534 -3.535534 
C -4.473168 -2.597899 -5 -1.326016 -5 0 
C -5 1.326016 -4.473168 2.597899 -3.535534 3.535534 
C -2.597899 4.473168 -1.326016 5 0 5 
z
" id="C1_0_0721d3a09a"/>
    </defs>
    <g clip-path="url(#pe5b6619f0e)">
     <use style="fill:#ff7f0e;stroke:#000000;" x="836.64" xlink:href="#C1_0_0721d3a09a" y="82.445714"/>
    </g>
    <g clip-path="url(#pe5b6619f0e)">
     <use style="fill:#ffbb78;stroke:#000000;" x="836.64" xlink:href="#C1_0_0721d3a09a" y="378.674286"/>
    </g>
   </g>
   <g id="text_4">
    <!-- AP-AT-02-W10 -->
    <g transform="translate(838.8475 75.04)rotate(-90)scale(0.08 -0.08)">
     <defs>
      <path d="M 12.40625 8.296875 
L 28.515625 8.296875 
L 28.515625 63.921875 
L 10.984375 60.40625 
L 10.984375 69.390625 
L 28.421875 72.90625 
L 38.28125 72.90625 
L 38.28125 8.296875 
L 54.390625 8.296875 
L 54.390625 0 
L 12.40625 0 
z
" id="DejaVuSans-49"/>
     </defs>
     <use xlink:href="#DejaVuSans-65"/>
     <use x="68.408203" xlink:href="#DejaVuSans-80"/>
     <use x="126.460938" xlink:href="#DejaVuSans-45"/>
     <use x="160.294922" xlink:href="#DejaVuSans-65"/>
     <use x="220.953125" xlink:href="#DejaVuSans-84"/>
     <use x="272.912109" xlink:href="#DejaVuSans-45"/>
     <use x="308.996094" xlink:href="#DejaVuSans-48"/>
     <use x="372.619141" xlink:href="#DejaVuSans-50"/>
     <use x="436.242188" xlink:href="#DejaVuSans-45"/>
     <use x="468.326172" xlink:href="#DejaVuSans-87"/>
     <use x="567.203125" xlink:href="#DejaVuSans-49"/>
     <use x="630.826172" xlink:href="#DejaVuSans-48"/>
    </g>
   </g>
   <g id="text_5">
    <!-- AP-AT-02-W11 -->
    <g transform="translate(834.4325 386.08)rotate(-270)scale(0.08 -0.08)">
     <use xlink:href="#DejaVuSans-65"/>
     <use x="68.408203" xlink:href="#DejaVuSans-80"/>
     <use x="126.460938" xlink:href="#DejaVuSans-45"/>
     <use x="160.294922" xlink:href="#DejaVuSans-65"/>
     <use x="220.953125" xlink:href="#DejaVuSans-84"/>
     <use x="272.912109" xlink:href="#DejaVuSans-45"/>
     <use x="308.996094" xlink:href="#DejaVuSans-48"/>
     <use x="372.619141" xlink:href="#DejaVuSans-50"/>
     <use x="436.242188" xlink:href="#DejaVuSans-45"/>
     <use x="468.326172" xlink:href="#DejaVuSans-87"/>
     <use x="567.203125" xlink:href="#DejaVuSans-49"/>
     <use x="630.826172" xlink:href="#DejaVuSans-49"/>
    </g>
   </g>
   <g id="text_6">
    <!-- Movements cluster 1 -->
    <g transform="translate(773.69625 17.2)scale(0.12 -0.12)">
     <use xlink:href="#DejaVuSans-77"/>
     <use x="86.279297" xlink:href="#DejaVuSans-111"/>
     <use x="147.460938" xlink:href="#DejaVuSans-118"/>
     <use x="206.640625" xlink:href="#DejaVuSans-101"/>
     <use x="268.164062" xlink:href="#DejaVuSans-109"/>
     <use x="365.576172" xlink:href="#DejaVuSans-101"/>
     <use x="427.099609" xlink:href="#DejaVuSans-110"/>
     <use x="490.478516" xlink:href="#DejaVuSans-116"/>
     <use x="529.6875" xlink:href="#DejaVuSans-115"/>
     <use x="581.787109" xlink:href="#DejaVuSans-32"/>
     <use x="613.574219" xlink:href="#DejaVuSans-99"/>
     <use x="668.554688" xlink:href="#DejaVuSans-108"/>
     <use x="696.337891" xlink:href="#DejaVuSans-117"/>
     <use x="759.716797" xlink:href="#DejaVuSans-115"/>
     <use x="811.816406" xlink:href="#DejaVuSans-116"/>
     <use x="851.025391" xlink:href="#DejaVuSans-101"/>
     <use x="912.548828" xlink:href="#DejaVuSans-114"/>
     <use x="953.662109" xlink:href="#DejaVuSans-32"/>
     <use x="985.449219" xlink:href="#DejaVuSans-49"/>
    </g>
   </g>
  </g>
 </g>
 <defs>
  <clipPath id="p1d1e92d321">
   <rect height="414.72" width="414.72" x="7.2" y="23.2"/>
  </clipPath>
  <clipPath id="pe5b6619f0e">
   <rect height="414.72" width="414.72" x="629.28" y="23.2"/>
  </clipPath>
 </defs>
</svg>
