<?xml version="1.0" encoding="utf-8" standalone="no"?>
<!DOCTYPE svg PUBLIC "-//W3C//DTD SVG 1.1//EN"
  "http://www.w3.org/Graphics/SVG/1.1/DTD/svg11.dtd">
<!-- Created with matplotlib (https://matplotlib.org/) -->
<svg height="438.6pt" version="1.1" viewBox="0 0 1569.6 438.6" width="1569.6pt" xmlns="http://www.w3.org/2000/svg" xmlns:xlink="http://www.w3.org/1999/xlink">
 <metadata>
  <rdf:RDF xmlns:cc="http://creativecommons.org/ns#" xmlns:dc="http://purl.org/dc/elements/1.1/" xmlns:rdf="http://www.w3.org/1999/02/22-rdf-syntax-ns#">
   <cc:Work>
    <dc:type rdf:resource="http://purl.org/dc/dcmitype/StillImage"/>
    <dc:date>2021-07-05T09:02:18.720362</dc:date>
    <dc:format>image/svg+xml</dc:format>
    <dc:creator>
     <cc:Agent>
      <dc:title>Matplotlib v3.3.3, https://matplotlib.org/</dc:title>
     </cc:Agent>
    </dc:creator>
   </cc:Work>
  </rdf:RDF>
 </metadata>
 <defs>
  <style type="text/css">*{stroke-linecap:butt;stroke-linejoin:round;}</style>
 </defs>
 <g id="figure_1">
  <g id="patch_1">
   <path d="M 0 438.6 
L 1569.6 438.6 
L 1569.6 0 
L 0 0 
z
" style="fill:#ffffff;"/>
  </g>
  <g id="axes_1">
   <g id="patch_2">
    <path d="M 7.2 412 
L 396 412 
L 396 23.2 
L 7.2 23.2 
z
" style="fill:#ffffff;"/>
   </g>
   <g id="LineCollection_1">
    <path clip-path="url(#p9a129ab9f1)" d="M 340.457143 217.6 
L 340.40442 213.773883 
L 340.246291 209.950671 
L 339.982875 206.133268 
L 339.614374 202.324573 
L 339.141067 198.527477 
L 338.563312 194.744865 
L 337.88155 190.979609 
L 337.096298 187.234568 
L 336.208151 183.512587 
L 335.217785 179.81649 
L 334.125952 176.149086 
L 332.93348 172.513159 
L 331.641275 168.911471 
L 330.250319 165.346756 
L 328.761668 161.821721 
L 327.176451 158.339044 
L 325.495874 154.901368 
L 323.721212 151.511305 
L 321.853813 148.171429 
" style="fill:none;stroke:#1f77b4;stroke-width:10;"/>
    <path clip-path="url(#p9a129ab9f1)" d="M 321.853813 148.171429 
L 311.177796 132.312178 
L 298.424642 118.069628 
L 283.836095 105.71376 
L 267.688695 95.478788 
L 250.288529 87.558725 
L 231.965432 82.103702 
L 213.066732 79.217125 
L 193.950671 78.953709 
L 174.979609 81.31845 
L 156.513159 86.26652 
L 138.901368 93.704126 
L 122.478081 103.490281 
L 107.554616 115.43948 
L 94.413859 129.325217 
L 83.304905 144.884275 
L 74.438332 161.821721 
L 67.982215 179.81649 
L 64.058933 198.527477 
L 62.742857 217.6 
" style="fill:none;stroke:#aec7e8;stroke-width:10;"/>
    <path clip-path="url(#p9a129ab9f1)" d="M 62.742857 217.6 
L 64.636688 240.455135 
L 70.26652 262.686841 
L 79.478788 283.688695 
L 92.022204 302.887822 
L 107.554616 319.76052 
L 125.652341 333.846545 
L 145.821721 344.761668 
L 167.512587 352.208151 
L 190.133268 355.982875 
L 213.066732 355.982875 
L 235.687413 352.208151 
L 257.378279 344.761668 
L 277.547659 333.846545 
L 295.645384 319.76052 
L 311.177796 302.887822 
L 323.721212 283.688695 
L 332.93348 262.686841 
L 338.563312 240.455135 
L 340.457143 217.6 
" style="fill:none;stroke:#ff7f0e;stroke-width:10;"/>
   </g>
   <g id="LineCollection_2">
    <path clip-path="url(#p9a129ab9f1)" d="M 340.457143 217.6 
L 62.742857 217.6 
M 334.832453 256.720578 
L 247.039204 230.819943 
L 116.48984 192.075056 
L 68.576313 177.775323 
M 318.414062 292.671839 
L 266.775769 259.341677 
L 188.503391 208.534212 
L 113.683117 159.724903 
L 85.58655 141.296753 
M 292.53209 322.541227 
L 263.520944 288.900758 
L 216.576841 234.089728 
L 163.526561 171.793223 
L 121.0319 121.5638 
L 112.344349 111.229257 
M 259.283342 343.9089 
L 243.202977 308.430479 
L 219.158971 254.792772 
L 190.857759 191.095573 
L 164.324037 130.832296 
L 146.601495 90.099135 
M 221.361432 355.043777 
L 216.685666 321.770955 
L 209.728804 270.460071 
L 201.505194 207.972216 
L 193.646304 146.507961 
L 187.64136 97.868675 
L 185.47967 79.681759 
M 181.838568 355.043777 
L 186.747336 321.805084 
L 193.67277 276.642586 
L 202.456354 220.965072 
L 211.505418 165.039622 
L 219.112579 119.240446 
L 225.71229 80.852409 
M 143.916658 343.9089 
L 155.80299 318.148365 
L 172.331501 282.879827 
L 193.445196 238.378254 
L 215.429681 192.53527 
L 236.718232 148.619993 
L 253.543177 114.345409 
L 263.918972 93.512725 
M 110.66791 322.541227 
L 129.341895 301.183783 
L 155.177168 272.038014 
L 183.821653 240.053677 
L 217.908688 202.334985 
L 251.106268 165.950158 
L 277.513219 137.321325 
L 296.889553 116.598974 
L 296.889553 116.598974 
" style="fill:none;stroke:#ff7f0e;stroke-width:0.5;"/>
    <path clip-path="url(#p9a129ab9f1)" d="M 321.853813 148.171429 
L 318.100603 150.343079 
L 314.207482 152.604846 
L 310.180493 154.953044 
L 306.025684 157.383989 
L 301.749098 159.893995 
L 297.356781 162.479379 
L 292.854778 165.136455 
L 288.249135 167.861539 
L 283.545895 170.650946 
L 278.751105 173.500992 
L 273.87081 176.407991 
L 268.911054 179.36826 
L 263.877883 182.378112 
L 258.777342 185.433865 
L 253.615476 188.531832 
L 248.39833 191.668329 
L 243.13195 194.839672 
L 237.82238 198.042176 
L 232.475666 201.272156 
L 227.097852 204.525927 
L 221.694984 207.799805 
L 216.273107 211.090106 
L 210.838267 214.393143 
L 205.396507 217.705233 
L 199.953874 221.022691 
L 194.516413 224.341832 
L 189.090168 227.658972 
L 183.681185 230.970425 
L 178.295509 234.272508 
L 172.939185 237.561535 
L 167.618258 240.833822 
L 162.338773 244.085684 
L 157.106776 247.313436 
L 151.928311 250.513393 
L 146.809424 253.681872 
L 141.75616 256.815187 
L 136.774564 259.909653 
L 131.870681 262.961587 
L 127.050556 265.967302 
L 122.320234 268.923115 
L 117.685761 271.825341 
L 113.153182 274.670294 
L 108.728541 277.454291 
L 104.417884 280.173647 
L 100.227257 282.824676 
L 96.162703 285.403695 
L 92.230269 287.907018 
L 88.435998 290.330961 
L 84.785938 292.671839 
" style="fill:none;stroke:#aec7e8;stroke-width:0.5;"/>
    <path clip-path="url(#p9a129ab9f1)" d="M 68.367547 256.720578 
L 72.520142 255.480096 
L 76.816527 254.155632 
L 81.250239 252.749955 
L 85.814815 251.265831 
L 90.50379 249.706031 
L 95.310701 248.07332 
L 100.229084 246.370467 
L 105.252475 244.600241 
L 110.37441 242.765409 
L 115.588426 240.868739 
L 120.888059 238.912998 
L 126.266844 236.900956 
L 131.718319 234.83538 
L 137.236018 232.719038 
L 142.81348 230.554697 
L 148.444239 228.345126 
L 154.121832 226.093093 
L 159.839796 223.801366 
L 165.591666 221.472712 
L 171.370978 219.1099 
L 177.171269 216.715698 
L 182.986075 214.292873 
L 188.808933 211.844193 
L 194.633377 209.372427 
L 200.452946 206.880343 
L 206.261174 204.370708 
L 212.051598 201.84629 
L 217.817755 199.309857 
L 223.55318 196.764178 
L 229.251409 194.21202 
L 234.90598 191.656151 
L 240.510428 189.099339 
L 246.058288 186.544353 
L 251.543099 183.993959 
L 256.958395 181.450926 
L 262.297713 178.918022 
L 267.554589 176.398016 
L 272.722559 173.893674 
L 277.79516 171.407764 
L 282.765928 168.943056 
L 287.628398 166.502316 
L 292.376108 164.088313 
L 297.002593 161.703815 
L 301.50139 159.351589 
L 305.866034 157.034404 
L 310.090062 154.755028 
L 314.167011 152.516228 
L 318.090416 150.320772 
L 321.853813 148.171429 
" style="fill:none;stroke:#ff7f0e;stroke-width:0.5;"/>
    <path clip-path="url(#p9a129ab9f1)" d="M 340.457143 217.6 
L 336.120845 217.6 
L 331.618129 217.6 
L 326.956077 217.6 
L 322.141771 217.6 
L 317.182293 217.6 
L 312.084723 217.6 
L 306.856143 217.6 
L 301.503636 217.6 
L 296.034282 217.6 
L 290.455164 217.6 
L 284.773362 217.6 
L 278.995959 217.6 
L 273.130035 217.6 
L 267.182674 217.6 
L 261.160956 217.6 
L 255.071962 217.6 
L 248.922775 217.6 
L 242.720476 217.6 
L 236.472146 217.6 
L 230.184868 217.6 
L 223.865723 217.6 
L 217.521792 217.6 
L 211.160157 217.6 
L 204.787899 217.6 
L 198.412101 217.6 
L 192.039843 217.6 
L 185.678208 217.6 
L 179.334277 217.6 
L 173.015132 217.6 
L 166.727854 217.6 
L 160.479524 217.6 
L 154.277225 217.6 
L 148.128038 217.6 
L 142.039044 217.6 
L 136.017326 217.6 
L 130.069965 217.6 
L 124.204041 217.6 
L 118.426638 217.6 
L 112.744836 217.6 
L 107.165718 217.6 
L 101.696364 217.6 
L 96.343857 217.6 
L 91.115277 217.6 
L 86.017707 217.6 
L 81.058229 217.6 
L 76.243923 217.6 
L 71.581871 217.6 
L 67.079155 217.6 
L 62.742857 217.6 
" style="fill:none;stroke:#1f77b4;stroke-width:0.5;"/>
   </g>
   <g id="PathCollection_1">
    <defs>
     <path d="M 0 5 
C 1.326016 5 2.597899 4.473168 3.535534 3.535534 
C 4.473168 2.597899 5 1.326016 5 -0 
C 5 -1.326016 4.473168 -2.597899 3.535534 -3.535534 
C 2.597899 -4.473168 1.326016 -5 0 -5 
C -1.326016 -5 -2.597899 -4.473168 -3.535534 -3.535534 
C -4.473168 -2.597899 -5 -1.326016 -5 0 
C -5 1.326016 -4.473168 2.597899 -3.535534 3.535534 
C -2.597899 4.473168 -1.326016 5 0 5 
z
" id="C0_0_b558178d11"/>
    </defs>
    <g clip-path="url(#p9a129ab9f1)">
     <use style="fill:#1f77b4;stroke:#000000;" x="335.7257" xlink:href="#C0_0_b558178d11" y="181.661127"/>
    </g>
    <g clip-path="url(#p9a129ab9f1)">
     <use style="fill:#aec7e8;stroke:#000000;" x="165.661127" xlink:href="#C0_0_b558178d11" y="83.4743"/>
    </g>
    <g clip-path="url(#p9a129ab9f1)">
     <use style="fill:#ff7f0e;stroke:#000000;" x="201.6" xlink:href="#C0_0_b558178d11" y="356.457143"/>
    </g>
   </g>
   <g id="text_1">
    <!-- AP-AT-06-W34 -->
    <g transform="translate(343.003329 181.996464)rotate(-15)scale(0.08 -0.08)">
     <defs>
      <path d="M 34.1875 63.1875 
L 20.796875 26.90625 
L 47.609375 26.90625 
z
M 28.609375 72.90625 
L 39.796875 72.90625 
L 67.578125 0 
L 57.328125 0 
L 50.6875 18.703125 
L 17.828125 18.703125 
L 11.1875 0 
L 0.78125 0 
z
" id="DejaVuSans-65"/>
      <path d="M 19.671875 64.796875 
L 19.671875 37.40625 
L 32.078125 37.40625 
Q 38.96875 37.40625 42.71875 40.96875 
Q 46.484375 44.53125 46.484375 51.125 
Q 46.484375 57.671875 42.71875 61.234375 
Q 38.96875 64.796875 32.078125 64.796875 
z
M 9.8125 72.90625 
L 32.078125 72.90625 
Q 44.34375 72.90625 50.609375 67.359375 
Q 56.890625 61.8125 56.890625 51.125 
Q 56.890625 40.328125 50.609375 34.8125 
Q 44.34375 29.296875 32.078125 29.296875 
L 19.671875 29.296875 
L 19.671875 0 
L 9.8125 0 
z
" id="DejaVuSans-80"/>
      <path d="M 4.890625 31.390625 
L 31.203125 31.390625 
L 31.203125 23.390625 
L 4.890625 23.390625 
z
" id="DejaVuSans-45"/>
      <path d="M -0.296875 72.90625 
L 61.375 72.90625 
L 61.375 64.59375 
L 35.5 64.59375 
L 35.5 0 
L 25.59375 0 
L 25.59375 64.59375 
L -0.296875 64.59375 
z
" id="DejaVuSans-84"/>
      <path d="M 31.78125 66.40625 
Q 24.171875 66.40625 20.328125 58.90625 
Q 16.5 51.421875 16.5 36.375 
Q 16.5 21.390625 20.328125 13.890625 
Q 24.171875 6.390625 31.78125 6.390625 
Q 39.453125 6.390625 43.28125 13.890625 
Q 47.125 21.390625 47.125 36.375 
Q 47.125 51.421875 43.28125 58.90625 
Q 39.453125 66.40625 31.78125 66.40625 
z
M 31.78125 74.21875 
Q 44.046875 74.21875 50.515625 64.515625 
Q 56.984375 54.828125 56.984375 36.375 
Q 56.984375 17.96875 50.515625 8.265625 
Q 44.046875 -1.421875 31.78125 -1.421875 
Q 19.53125 -1.421875 13.0625 8.265625 
Q 6.59375 17.96875 6.59375 36.375 
Q 6.59375 54.828125 13.0625 64.515625 
Q 19.53125 74.21875 31.78125 74.21875 
z
" id="DejaVuSans-48"/>
      <path d="M 33.015625 40.375 
Q 26.375 40.375 22.484375 35.828125 
Q 18.609375 31.296875 18.609375 23.390625 
Q 18.609375 15.53125 22.484375 10.953125 
Q 26.375 6.390625 33.015625 6.390625 
Q 39.65625 6.390625 43.53125 10.953125 
Q 47.40625 15.53125 47.40625 23.390625 
Q 47.40625 31.296875 43.53125 35.828125 
Q 39.65625 40.375 33.015625 40.375 
z
M 52.59375 71.296875 
L 52.59375 62.3125 
Q 48.875 64.0625 45.09375 64.984375 
Q 41.3125 65.921875 37.59375 65.921875 
Q 27.828125 65.921875 22.671875 59.328125 
Q 17.53125 52.734375 16.796875 39.40625 
Q 19.671875 43.65625 24.015625 45.921875 
Q 28.375 48.1875 33.59375 48.1875 
Q 44.578125 48.1875 50.953125 41.515625 
Q 57.328125 34.859375 57.328125 23.390625 
Q 57.328125 12.15625 50.6875 5.359375 
Q 44.046875 -1.421875 33.015625 -1.421875 
Q 20.359375 -1.421875 13.671875 8.265625 
Q 6.984375 17.96875 6.984375 36.375 
Q 6.984375 53.65625 15.1875 63.9375 
Q 23.390625 74.21875 37.203125 74.21875 
Q 40.921875 74.21875 44.703125 73.484375 
Q 48.484375 72.75 52.59375 71.296875 
z
" id="DejaVuSans-54"/>
      <path d="M 3.328125 72.90625 
L 13.28125 72.90625 
L 28.609375 11.28125 
L 43.890625 72.90625 
L 54.984375 72.90625 
L 70.3125 11.28125 
L 85.59375 72.90625 
L 95.609375 72.90625 
L 77.296875 0 
L 64.890625 0 
L 49.515625 63.28125 
L 33.984375 0 
L 21.578125 0 
z
" id="DejaVuSans-87"/>
      <path d="M 40.578125 39.3125 
Q 47.65625 37.796875 51.625 33 
Q 55.609375 28.21875 55.609375 21.1875 
Q 55.609375 10.40625 48.1875 4.484375 
Q 40.765625 -1.421875 27.09375 -1.421875 
Q 22.515625 -1.421875 17.65625 -0.515625 
Q 12.796875 0.390625 7.625 2.203125 
L 7.625 11.71875 
Q 11.71875 9.328125 16.59375 8.109375 
Q 21.484375 6.890625 26.8125 6.890625 
Q 36.078125 6.890625 40.9375 10.546875 
Q 45.796875 14.203125 45.796875 21.1875 
Q 45.796875 27.640625 41.28125 31.265625 
Q 36.765625 34.90625 28.71875 34.90625 
L 20.21875 34.90625 
L 20.21875 43.015625 
L 29.109375 43.015625 
Q 36.375 43.015625 40.234375 45.921875 
Q 44.09375 48.828125 44.09375 54.296875 
Q 44.09375 59.90625 40.109375 62.90625 
Q 36.140625 65.921875 28.71875 65.921875 
Q 24.65625 65.921875 20.015625 65.03125 
Q 15.375 64.15625 9.8125 62.3125 
L 9.8125 71.09375 
Q 15.4375 72.65625 20.34375 73.4375 
Q 25.25 74.21875 29.59375 74.21875 
Q 40.828125 74.21875 47.359375 69.109375 
Q 53.90625 64.015625 53.90625 55.328125 
Q 53.90625 49.265625 50.4375 45.09375 
Q 46.96875 40.921875 40.578125 39.3125 
z
" id="DejaVuSans-51"/>
      <path d="M 37.796875 64.3125 
L 12.890625 25.390625 
L 37.796875 25.390625 
z
M 35.203125 72.90625 
L 47.609375 72.90625 
L 47.609375 25.390625 
L 58.015625 25.390625 
L 58.015625 17.1875 
L 47.609375 17.1875 
L 47.609375 0 
L 37.796875 0 
L 37.796875 17.1875 
L 4.890625 17.1875 
L 4.890625 26.703125 
z
" id="DejaVuSans-52"/>
     </defs>
     <use xlink:href="#DejaVuSans-65"/>
     <use x="68.408203" xlink:href="#DejaVuSans-80"/>
     <use x="126.460938" xlink:href="#DejaVuSans-45"/>
     <use x="160.294922" xlink:href="#DejaVuSans-65"/>
     <use x="220.953125" xlink:href="#DejaVuSans-84"/>
     <use x="272.912109" xlink:href="#DejaVuSans-45"/>
     <use x="308.996094" xlink:href="#DejaVuSans-48"/>
     <use x="372.619141" xlink:href="#DejaVuSans-54"/>
     <use x="436.242188" xlink:href="#DejaVuSans-45"/>
     <use x="468.326172" xlink:href="#DejaVuSans-87"/>
     <use x="567.203125" xlink:href="#DejaVuSans-51"/>
     <use x="630.826172" xlink:href="#DejaVuSans-52"/>
    </g>
   </g>
   <g id="text_2">
    <!-- AP-AT-03-W35 -->
    <g transform="translate(165.996464 76.196671)rotate(-105)scale(0.08 -0.08)">
     <defs>
      <path d="M 10.796875 72.90625 
L 49.515625 72.90625 
L 49.515625 64.59375 
L 19.828125 64.59375 
L 19.828125 46.734375 
Q 21.96875 47.46875 24.109375 47.828125 
Q 26.265625 48.1875 28.421875 48.1875 
Q 40.625 48.1875 47.75 41.5 
Q 54.890625 34.8125 54.890625 23.390625 
Q 54.890625 11.625 47.5625 5.09375 
Q 40.234375 -1.421875 26.90625 -1.421875 
Q 22.3125 -1.421875 17.546875 -0.640625 
Q 12.796875 0.140625 7.71875 1.703125 
L 7.71875 11.625 
Q 12.109375 9.234375 16.796875 8.0625 
Q 21.484375 6.890625 26.703125 6.890625 
Q 35.15625 6.890625 40.078125 11.328125 
Q 45.015625 15.765625 45.015625 23.390625 
Q 45.015625 31 40.078125 35.4375 
Q 35.15625 39.890625 26.703125 39.890625 
Q 22.75 39.890625 18.8125 39.015625 
Q 14.890625 38.140625 10.796875 36.28125 
z
" id="DejaVuSans-53"/>
     </defs>
     <use xlink:href="#DejaVuSans-65"/>
     <use x="68.408203" xlink:href="#DejaVuSans-80"/>
     <use x="126.460938" xlink:href="#DejaVuSans-45"/>
     <use x="160.294922" xlink:href="#DejaVuSans-65"/>
     <use x="220.953125" xlink:href="#DejaVuSans-84"/>
     <use x="272.912109" xlink:href="#DejaVuSans-45"/>
     <use x="308.996094" xlink:href="#DejaVuSans-48"/>
     <use x="372.619141" xlink:href="#DejaVuSans-51"/>
     <use x="436.242188" xlink:href="#DejaVuSans-45"/>
     <use x="468.326172" xlink:href="#DejaVuSans-87"/>
     <use x="567.203125" xlink:href="#DejaVuSans-51"/>
     <use x="630.826172" xlink:href="#DejaVuSans-53"/>
    </g>
   </g>
   <g id="text_3">
    <!-- AP-AT-03-W36-37 -->
    <g transform="translate(199.3925 363.4)rotate(-270)scale(0.08 -0.08)">
     <defs>
      <path d="M 8.203125 72.90625 
L 55.078125 72.90625 
L 55.078125 68.703125 
L 28.609375 0 
L 18.3125 0 
L 43.21875 64.59375 
L 8.203125 64.59375 
z
" id="DejaVuSans-55"/>
     </defs>
     <use xlink:href="#DejaVuSans-65"/>
     <use x="68.408203" xlink:href="#DejaVuSans-80"/>
     <use x="126.460938" xlink:href="#DejaVuSans-45"/>
     <use x="160.294922" xlink:href="#DejaVuSans-65"/>
     <use x="220.953125" xlink:href="#DejaVuSans-84"/>
     <use x="272.912109" xlink:href="#DejaVuSans-45"/>
     <use x="308.996094" xlink:href="#DejaVuSans-48"/>
     <use x="372.619141" xlink:href="#DejaVuSans-51"/>
     <use x="436.242188" xlink:href="#DejaVuSans-45"/>
     <use x="468.326172" xlink:href="#DejaVuSans-87"/>
     <use x="567.203125" xlink:href="#DejaVuSans-51"/>
     <use x="630.826172" xlink:href="#DejaVuSans-54"/>
     <use x="694.449219" xlink:href="#DejaVuSans-45"/>
     <use x="730.533203" xlink:href="#DejaVuSans-51"/>
     <use x="794.15625" xlink:href="#DejaVuSans-55"/>
    </g>
   </g>
   <g id="text_4">
    <!-- Movements cluster 0 -->
    <g transform="translate(138.65625 17.2)scale(0.12 -0.12)">
     <defs>
      <path d="M 9.8125 72.90625 
L 24.515625 72.90625 
L 43.109375 23.296875 
L 61.8125 72.90625 
L 76.515625 72.90625 
L 76.515625 0 
L 66.890625 0 
L 66.890625 64.015625 
L 48.09375 14.015625 
L 38.1875 14.015625 
L 19.390625 64.015625 
L 19.390625 0 
L 9.8125 0 
z
" id="DejaVuSans-77"/>
      <path d="M 30.609375 48.390625 
Q 23.390625 48.390625 19.1875 42.75 
Q 14.984375 37.109375 14.984375 27.296875 
Q 14.984375 17.484375 19.15625 11.84375 
Q 23.34375 6.203125 30.609375 6.203125 
Q 37.796875 6.203125 41.984375 11.859375 
Q 46.1875 17.53125 46.1875 27.296875 
Q 46.1875 37.015625 41.984375 42.703125 
Q 37.796875 48.390625 30.609375 48.390625 
z
M 30.609375 56 
Q 42.328125 56 49.015625 48.375 
Q 55.71875 40.765625 55.71875 27.296875 
Q 55.71875 13.875 49.015625 6.21875 
Q 42.328125 -1.421875 30.609375 -1.421875 
Q 18.84375 -1.421875 12.171875 6.21875 
Q 5.515625 13.875 5.515625 27.296875 
Q 5.515625 40.765625 12.171875 48.375 
Q 18.84375 56 30.609375 56 
z
" id="DejaVuSans-111"/>
      <path d="M 2.984375 54.6875 
L 12.5 54.6875 
L 29.59375 8.796875 
L 46.6875 54.6875 
L 56.203125 54.6875 
L 35.6875 0 
L 23.484375 0 
z
" id="DejaVuSans-118"/>
      <path d="M 56.203125 29.59375 
L 56.203125 25.203125 
L 14.890625 25.203125 
Q 15.484375 15.921875 20.484375 11.0625 
Q 25.484375 6.203125 34.421875 6.203125 
Q 39.59375 6.203125 44.453125 7.46875 
Q 49.3125 8.734375 54.109375 11.28125 
L 54.109375 2.78125 
Q 49.265625 0.734375 44.1875 -0.34375 
Q 39.109375 -1.421875 33.890625 -1.421875 
Q 20.796875 -1.421875 13.15625 6.1875 
Q 5.515625 13.8125 5.515625 26.8125 
Q 5.515625 40.234375 12.765625 48.109375 
Q 20.015625 56 32.328125 56 
Q 43.359375 56 49.78125 48.890625 
Q 56.203125 41.796875 56.203125 29.59375 
z
M 47.21875 32.234375 
Q 47.125 39.59375 43.09375 43.984375 
Q 39.0625 48.390625 32.421875 48.390625 
Q 24.90625 48.390625 20.390625 44.140625 
Q 15.875 39.890625 15.1875 32.171875 
z
" id="DejaVuSans-101"/>
      <path d="M 52 44.1875 
Q 55.375 50.25 60.0625 53.125 
Q 64.75 56 71.09375 56 
Q 79.640625 56 84.28125 50.015625 
Q 88.921875 44.046875 88.921875 33.015625 
L 88.921875 0 
L 79.890625 0 
L 79.890625 32.71875 
Q 79.890625 40.578125 77.09375 44.375 
Q 74.3125 48.1875 68.609375 48.1875 
Q 61.625 48.1875 57.5625 43.546875 
Q 53.515625 38.921875 53.515625 30.90625 
L 53.515625 0 
L 44.484375 0 
L 44.484375 32.71875 
Q 44.484375 40.625 41.703125 44.40625 
Q 38.921875 48.1875 33.109375 48.1875 
Q 26.21875 48.1875 22.15625 43.53125 
Q 18.109375 38.875 18.109375 30.90625 
L 18.109375 0 
L 9.078125 0 
L 9.078125 54.6875 
L 18.109375 54.6875 
L 18.109375 46.1875 
Q 21.1875 51.21875 25.484375 53.609375 
Q 29.78125 56 35.6875 56 
Q 41.65625 56 45.828125 52.96875 
Q 50 49.953125 52 44.1875 
z
" id="DejaVuSans-109"/>
      <path d="M 54.890625 33.015625 
L 54.890625 0 
L 45.90625 0 
L 45.90625 32.71875 
Q 45.90625 40.484375 42.875 44.328125 
Q 39.84375 48.1875 33.796875 48.1875 
Q 26.515625 48.1875 22.3125 43.546875 
Q 18.109375 38.921875 18.109375 30.90625 
L 18.109375 0 
L 9.078125 0 
L 9.078125 54.6875 
L 18.109375 54.6875 
L 18.109375 46.1875 
Q 21.34375 51.125 25.703125 53.5625 
Q 30.078125 56 35.796875 56 
Q 45.21875 56 50.046875 50.171875 
Q 54.890625 44.34375 54.890625 33.015625 
z
" id="DejaVuSans-110"/>
      <path d="M 18.3125 70.21875 
L 18.3125 54.6875 
L 36.8125 54.6875 
L 36.8125 47.703125 
L 18.3125 47.703125 
L 18.3125 18.015625 
Q 18.3125 11.328125 20.140625 9.421875 
Q 21.96875 7.515625 27.59375 7.515625 
L 36.8125 7.515625 
L 36.8125 0 
L 27.59375 0 
Q 17.1875 0 13.234375 3.875 
Q 9.28125 7.765625 9.28125 18.015625 
L 9.28125 47.703125 
L 2.6875 47.703125 
L 2.6875 54.6875 
L 9.28125 54.6875 
L 9.28125 70.21875 
z
" id="DejaVuSans-116"/>
      <path d="M 44.28125 53.078125 
L 44.28125 44.578125 
Q 40.484375 46.53125 36.375 47.5 
Q 32.28125 48.484375 27.875 48.484375 
Q 21.1875 48.484375 17.84375 46.4375 
Q 14.5 44.390625 14.5 40.28125 
Q 14.5 37.15625 16.890625 35.375 
Q 19.28125 33.59375 26.515625 31.984375 
L 29.59375 31.296875 
Q 39.15625 29.25 43.1875 25.515625 
Q 47.21875 21.78125 47.21875 15.09375 
Q 47.21875 7.46875 41.1875 3.015625 
Q 35.15625 -1.421875 24.609375 -1.421875 
Q 20.21875 -1.421875 15.453125 -0.5625 
Q 10.6875 0.296875 5.421875 2 
L 5.421875 11.28125 
Q 10.40625 8.6875 15.234375 7.390625 
Q 20.0625 6.109375 24.8125 6.109375 
Q 31.15625 6.109375 34.5625 8.28125 
Q 37.984375 10.453125 37.984375 14.40625 
Q 37.984375 18.0625 35.515625 20.015625 
Q 33.0625 21.96875 24.703125 23.78125 
L 21.578125 24.515625 
Q 13.234375 26.265625 9.515625 29.90625 
Q 5.8125 33.546875 5.8125 39.890625 
Q 5.8125 47.609375 11.28125 51.796875 
Q 16.75 56 26.8125 56 
Q 31.78125 56 36.171875 55.265625 
Q 40.578125 54.546875 44.28125 53.078125 
z
" id="DejaVuSans-115"/>
      <path id="DejaVuSans-32"/>
      <path d="M 48.78125 52.59375 
L 48.78125 44.1875 
Q 44.96875 46.296875 41.140625 47.34375 
Q 37.3125 48.390625 33.40625 48.390625 
Q 24.65625 48.390625 19.8125 42.84375 
Q 14.984375 37.3125 14.984375 27.296875 
Q 14.984375 17.28125 19.8125 11.734375 
Q 24.65625 6.203125 33.40625 6.203125 
Q 37.3125 6.203125 41.140625 7.25 
Q 44.96875 8.296875 48.78125 10.40625 
L 48.78125 2.09375 
Q 45.015625 0.34375 40.984375 -0.53125 
Q 36.96875 -1.421875 32.421875 -1.421875 
Q 20.0625 -1.421875 12.78125 6.34375 
Q 5.515625 14.109375 5.515625 27.296875 
Q 5.515625 40.671875 12.859375 48.328125 
Q 20.21875 56 33.015625 56 
Q 37.15625 56 41.109375 55.140625 
Q 45.0625 54.296875 48.78125 52.59375 
z
" id="DejaVuSans-99"/>
      <path d="M 9.421875 75.984375 
L 18.40625 75.984375 
L 18.40625 0 
L 9.421875 0 
z
" id="DejaVuSans-108"/>
      <path d="M 8.5 21.578125 
L 8.5 54.6875 
L 17.484375 54.6875 
L 17.484375 21.921875 
Q 17.484375 14.15625 20.5 10.265625 
Q 23.53125 6.390625 29.59375 6.390625 
Q 36.859375 6.390625 41.078125 11.03125 
Q 45.3125 15.671875 45.3125 23.6875 
L 45.3125 54.6875 
L 54.296875 54.6875 
L 54.296875 0 
L 45.3125 0 
L 45.3125 8.40625 
Q 42.046875 3.421875 37.71875 1 
Q 33.40625 -1.421875 27.6875 -1.421875 
Q 18.265625 -1.421875 13.375 4.4375 
Q 8.5 10.296875 8.5 21.578125 
z
M 31.109375 56 
z
" id="DejaVuSans-117"/>
      <path d="M 41.109375 46.296875 
Q 39.59375 47.171875 37.8125 47.578125 
Q 36.03125 48 33.890625 48 
Q 26.265625 48 22.1875 43.046875 
Q 18.109375 38.09375 18.109375 28.8125 
L 18.109375 0 
L 9.078125 0 
L 9.078125 54.6875 
L 18.109375 54.6875 
L 18.109375 46.1875 
Q 20.953125 51.171875 25.484375 53.578125 
Q 30.03125 56 36.53125 56 
Q 37.453125 56 38.578125 55.875 
Q 39.703125 55.765625 41.0625 55.515625 
z
" id="DejaVuSans-114"/>
     </defs>
     <use xlink:href="#DejaVuSans-77"/>
     <use x="86.279297" xlink:href="#DejaVuSans-111"/>
     <use x="147.460938" xlink:href="#DejaVuSans-118"/>
     <use x="206.640625" xlink:href="#DejaVuSans-101"/>
     <use x="268.164062" xlink:href="#DejaVuSans-109"/>
     <use x="365.576172" xlink:href="#DejaVuSans-101"/>
     <use x="427.099609" xlink:href="#DejaVuSans-110"/>
     <use x="490.478516" xlink:href="#DejaVuSans-116"/>
     <use x="529.6875" xlink:href="#DejaVuSans-115"/>
     <use x="581.787109" xlink:href="#DejaVuSans-32"/>
     <use x="613.574219" xlink:href="#DejaVuSans-99"/>
     <use x="668.554688" xlink:href="#DejaVuSans-108"/>
     <use x="696.337891" xlink:href="#DejaVuSans-117"/>
     <use x="759.716797" xlink:href="#DejaVuSans-115"/>
     <use x="811.816406" xlink:href="#DejaVuSans-116"/>
     <use x="851.025391" xlink:href="#DejaVuSans-101"/>
     <use x="912.548828" xlink:href="#DejaVuSans-114"/>
     <use x="953.662109" xlink:href="#DejaVuSans-32"/>
     <use x="985.449219" xlink:href="#DejaVuSans-48"/>
    </g>
   </g>
  </g>
  <g id="axes_2">
   <g id="patch_3">
    <path d="M 590.4 412 
L 979.2 412 
L 979.2 23.2 
L 590.4 23.2 
z
" style="fill:#ffffff;"/>
   </g>
   <g id="LineCollection_3">
    <path clip-path="url(#p9285e46df7)" d="M 923.657143 217.6 
L 921.763312 194.744865 
L 916.13348 172.513159 
L 906.921212 151.511305 
L 894.377796 132.312178 
L 878.845384 115.43948 
L 860.747659 101.353455 
L 840.578279 90.438332 
L 818.887413 82.991849 
L 796.266732 79.217125 
L 773.333268 79.217125 
L 750.712587 82.991849 
L 729.021721 90.438332 
L 708.852341 101.353455 
L 690.754616 115.43948 
L 675.222204 132.312178 
L 662.678788 151.511305 
L 653.46652 172.513159 
L 647.836688 194.744865 
L 645.942857 217.6 
" style="fill:none;stroke:#aec7e8;stroke-width:10;"/>
    <path clip-path="url(#p9285e46df7)" d="M 645.942857 217.6 
L 647.836688 240.455135 
L 653.46652 262.686841 
L 662.678788 283.688695 
L 675.222204 302.887822 
L 690.754616 319.76052 
L 708.852341 333.846545 
L 729.021721 344.761668 
L 750.712587 352.208151 
L 773.333268 355.982875 
L 796.266732 355.982875 
L 818.887413 352.208151 
L 840.578279 344.761668 
L 860.747659 333.846545 
L 878.845384 319.76052 
L 894.377796 302.887822 
L 906.921212 283.688695 
L 916.13348 262.686841 
L 921.763312 240.455135 
L 923.657143 217.6 
" style="fill:none;stroke:#ff7f0e;stroke-width:10;"/>
   </g>
   <g id="LineCollection_4">
    <path clip-path="url(#p9285e46df7)" d="M 645.942857 217.6 
L 650.279155 217.6 
L 654.781871 217.6 
L 659.443923 217.6 
L 664.258229 217.6 
L 669.217707 217.6 
L 674.315277 217.6 
L 679.543857 217.6 
L 684.896364 217.6 
L 690.365718 217.6 
L 695.944836 217.6 
L 701.626638 217.6 
L 707.404041 217.6 
L 713.269965 217.6 
L 719.217326 217.6 
L 725.239044 217.6 
L 731.328038 217.6 
L 737.477225 217.6 
L 743.679524 217.6 
L 749.927854 217.6 
L 756.215132 217.6 
L 762.534277 217.6 
L 768.878208 217.6 
L 775.239843 217.6 
L 781.612101 217.6 
L 787.987899 217.6 
L 794.360157 217.6 
L 800.721792 217.6 
L 807.065723 217.6 
L 813.384868 217.6 
L 819.672146 217.6 
L 825.920476 217.6 
L 832.122775 217.6 
L 838.271962 217.6 
L 844.360956 217.6 
L 850.382674 217.6 
L 856.330035 217.6 
L 862.195959 217.6 
L 867.973362 217.6 
L 873.655164 217.6 
L 879.234282 217.6 
L 884.703636 217.6 
L 890.056143 217.6 
L 895.284723 217.6 
L 900.382293 217.6 
L 905.341771 217.6 
L 910.156077 217.6 
L 914.818129 217.6 
L 919.320845 217.6 
L 923.657143 217.6 
M 784.8 78.742857 
L 784.8 83.079155 
L 784.8 87.581871 
L 784.8 92.243923 
L 784.8 97.058229 
L 784.8 102.017707 
L 784.8 107.115277 
L 784.8 112.343857 
L 784.8 117.696364 
L 784.8 123.165718 
L 784.8 128.744836 
L 784.8 134.426638 
L 784.8 140.204041 
L 784.8 146.069965 
L 784.8 152.017326 
L 784.8 158.039044 
L 784.8 164.128038 
L 784.8 170.277225 
L 784.8 176.479524 
L 784.8 182.727854 
L 784.8 189.015132 
L 784.8 195.334277 
L 784.8 201.678208 
L 784.8 208.039843 
L 784.8 214.412101 
L 784.8 220.787899 
L 784.8 227.160157 
L 784.8 233.521792 
L 784.8 239.865723 
L 784.8 246.184868 
L 784.8 252.472146 
L 784.8 258.720476 
L 784.8 264.922775 
L 784.8 271.071962 
L 784.8 277.160956 
L 784.8 283.182674 
L 784.8 289.130035 
L 784.8 294.995959 
L 784.8 300.773362 
L 784.8 306.455164 
L 784.8 312.034282 
L 784.8 317.503636 
L 784.8 322.856143 
L 784.8 328.084723 
L 784.8 333.182293 
L 784.8 338.141771 
L 784.8 342.956077 
L 784.8 347.618129 
L 784.8 352.120845 
L 784.8 356.457143 
" style="fill:none;stroke:#aec7e8;stroke-width:0.5;"/>
    <path clip-path="url(#p9285e46df7)" d="M 645.942857 217.6 
L 650.279155 217.6 
L 654.781871 217.6 
L 659.443923 217.6 
L 664.258229 217.6 
L 669.217707 217.6 
L 674.315277 217.6 
L 679.543857 217.6 
L 684.896364 217.6 
L 690.365718 217.6 
L 695.944836 217.6 
L 701.626638 217.6 
L 707.404041 217.6 
L 713.269965 217.6 
L 719.217326 217.6 
L 725.239044 217.6 
L 731.328038 217.6 
L 737.477225 217.6 
L 743.679524 217.6 
L 749.927854 217.6 
L 756.215132 217.6 
L 762.534277 217.6 
L 768.878208 217.6 
L 775.239843 217.6 
L 781.612101 217.6 
L 787.987899 217.6 
L 794.360157 217.6 
L 800.721792 217.6 
L 807.065723 217.6 
L 813.384868 217.6 
L 819.672146 217.6 
L 825.920476 217.6 
L 832.122775 217.6 
L 838.271962 217.6 
L 844.360956 217.6 
L 850.382674 217.6 
L 856.330035 217.6 
L 862.195959 217.6 
L 867.973362 217.6 
L 873.655164 217.6 
L 879.234282 217.6 
L 884.703636 217.6 
L 890.056143 217.6 
L 895.284723 217.6 
L 900.382293 217.6 
L 905.341771 217.6 
L 910.156077 217.6 
L 914.818129 217.6 
L 919.320845 217.6 
L 923.657143 217.6 
" style="fill:none;stroke:#ff7f0e;stroke-width:0.5;"/>
   </g>
   <g id="PathCollection_2">
    <defs>
     <path d="M 0 5 
C 1.326016 5 2.597899 4.473168 3.535534 3.535534 
C 4.473168 2.597899 5 1.326016 5 -0 
C 5 -1.326016 4.473168 -2.597899 3.535534 -3.535534 
C 2.597899 -4.473168 1.326016 -5 0 -5 
C -1.326016 -5 -2.597899 -4.473168 -3.535534 -3.535534 
C -4.473168 -2.597899 -5 -1.326016 -5 0 
C -5 1.326016 -4.473168 2.597899 -3.535534 3.535534 
C -2.597899 4.473168 -1.326016 5 0 5 
z
" id="C1_0_aeb5db77b4"/>
    </defs>
    <g clip-path="url(#p9285e46df7)">
     <use style="fill:#aec7e8;stroke:#000000;" x="784.8" xlink:href="#C1_0_aeb5db77b4" y="78.742857"/>
    </g>
    <g clip-path="url(#p9285e46df7)">
     <use style="fill:#ff7f0e;stroke:#000000;" x="784.8" xlink:href="#C1_0_aeb5db77b4" y="356.457143"/>
    </g>
   </g>
   <g id="text_5">
    <!-- AP-AT-03-W35 -->
    <g transform="translate(787.0075 71.8)rotate(-90)scale(0.08 -0.08)">
     <use xlink:href="#DejaVuSans-65"/>
     <use x="68.408203" xlink:href="#DejaVuSans-80"/>
     <use x="126.460938" xlink:href="#DejaVuSans-45"/>
     <use x="160.294922" xlink:href="#DejaVuSans-65"/>
     <use x="220.953125" xlink:href="#DejaVuSans-84"/>
     <use x="272.912109" xlink:href="#DejaVuSans-45"/>
     <use x="308.996094" xlink:href="#DejaVuSans-48"/>
     <use x="372.619141" xlink:href="#DejaVuSans-51"/>
     <use x="436.242188" xlink:href="#DejaVuSans-45"/>
     <use x="468.326172" xlink:href="#DejaVuSans-87"/>
     <use x="567.203125" xlink:href="#DejaVuSans-51"/>
     <use x="630.826172" xlink:href="#DejaVuSans-53"/>
    </g>
   </g>
   <g id="text_6">
    <!-- AP-AT-03-W36-37 -->
    <g transform="translate(782.5925 363.4)rotate(-270)scale(0.08 -0.08)">
     <use xlink:href="#DejaVuSans-65"/>
     <use x="68.408203" xlink:href="#DejaVuSans-80"/>
     <use x="126.460938" xlink:href="#DejaVuSans-45"/>
     <use x="160.294922" xlink:href="#DejaVuSans-65"/>
     <use x="220.953125" xlink:href="#DejaVuSans-84"/>
     <use x="272.912109" xlink:href="#DejaVuSans-45"/>
     <use x="308.996094" xlink:href="#DejaVuSans-48"/>
     <use x="372.619141" xlink:href="#DejaVuSans-51"/>
     <use x="436.242188" xlink:href="#DejaVuSans-45"/>
     <use x="468.326172" xlink:href="#DejaVuSans-87"/>
     <use x="567.203125" xlink:href="#DejaVuSans-51"/>
     <use x="630.826172" xlink:href="#DejaVuSans-54"/>
     <use x="694.449219" xlink:href="#DejaVuSans-45"/>
     <use x="730.533203" xlink:href="#DejaVuSans-51"/>
     <use x="794.15625" xlink:href="#DejaVuSans-55"/>
    </g>
   </g>
   <g id="text_7">
    <!-- Movements cluster 2 -->
    <g transform="translate(721.85625 17.2)scale(0.12 -0.12)">
     <defs>
      <path d="M 19.1875 8.296875 
L 53.609375 8.296875 
L 53.609375 0 
L 7.328125 0 
L 7.328125 8.296875 
Q 12.9375 14.109375 22.625 23.890625 
Q 32.328125 33.6875 34.8125 36.53125 
Q 39.546875 41.84375 41.421875 45.53125 
Q 43.3125 49.21875 43.3125 52.78125 
Q 43.3125 58.59375 39.234375 62.25 
Q 35.15625 65.921875 28.609375 65.921875 
Q 23.96875 65.921875 18.8125 64.3125 
Q 13.671875 62.703125 7.8125 59.421875 
L 7.8125 69.390625 
Q 13.765625 71.78125 18.9375 73 
Q 24.125 74.21875 28.421875 74.21875 
Q 39.75 74.21875 46.484375 68.546875 
Q 53.21875 62.890625 53.21875 53.421875 
Q 53.21875 48.921875 51.53125 44.890625 
Q 49.859375 40.875 45.40625 35.40625 
Q 44.1875 33.984375 37.640625 27.21875 
Q 31.109375 20.453125 19.1875 8.296875 
z
" id="DejaVuSans-50"/>
     </defs>
     <use xlink:href="#DejaVuSans-77"/>
     <use x="86.279297" xlink:href="#DejaVuSans-111"/>
     <use x="147.460938" xlink:href="#DejaVuSans-118"/>
     <use x="206.640625" xlink:href="#DejaVuSans-101"/>
     <use x="268.164062" xlink:href="#DejaVuSans-109"/>
     <use x="365.576172" xlink:href="#DejaVuSans-101"/>
     <use x="427.099609" xlink:href="#DejaVuSans-110"/>
     <use x="490.478516" xlink:href="#DejaVuSans-116"/>
     <use x="529.6875" xlink:href="#DejaVuSans-115"/>
     <use x="581.787109" xlink:href="#DejaVuSans-32"/>
     <use x="613.574219" xlink:href="#DejaVuSans-99"/>
     <use x="668.554688" xlink:href="#DejaVuSans-108"/>
     <use x="696.337891" xlink:href="#DejaVuSans-117"/>
     <use x="759.716797" xlink:href="#DejaVuSans-115"/>
     <use x="811.816406" xlink:href="#DejaVuSans-116"/>
     <use x="851.025391" xlink:href="#DejaVuSans-101"/>
     <use x="912.548828" xlink:href="#DejaVuSans-114"/>
     <use x="953.662109" xlink:href="#DejaVuSans-32"/>
     <use x="985.449219" xlink:href="#DejaVuSans-50"/>
    </g>
   </g>
  </g>
  <g id="axes_3">
   <g id="patch_4">
    <path d="M 1173.6 412 
L 1562.4 412 
L 1562.4 23.2 
L 1173.6 23.2 
z
" style="fill:#ffffff;"/>
   </g>
   <g id="LineCollection_5">
    <path clip-path="url(#p34b51840e5)" d="M 1506.857143 217.6 
L 1504.963312 194.744865 
L 1499.33348 172.513159 
L 1490.121212 151.511305 
L 1477.577796 132.312178 
L 1462.045384 115.43948 
L 1443.947659 101.353455 
L 1423.778279 90.438332 
L 1402.087413 82.991849 
L 1379.466732 79.217125 
L 1356.533268 79.217125 
L 1333.912587 82.991849 
L 1312.221721 90.438332 
L 1292.052341 101.353455 
L 1273.954616 115.43948 
L 1258.422204 132.312178 
L 1245.878788 151.511305 
L 1236.66652 172.513159 
L 1231.036688 194.744865 
L 1229.142857 217.6 
" style="fill:none;stroke:#aec7e8;stroke-width:10;"/>
    <path clip-path="url(#p34b51840e5)" d="M 1229.142857 217.6 
L 1231.036688 240.455135 
L 1236.66652 262.686841 
L 1245.878788 283.688695 
L 1258.422204 302.887822 
L 1273.954616 319.76052 
L 1292.052341 333.846545 
L 1312.221721 344.761668 
L 1333.912587 352.208151 
L 1356.533268 355.982875 
L 1379.466732 355.982875 
L 1402.087413 352.208151 
L 1423.778279 344.761668 
L 1443.947659 333.846545 
L 1462.045384 319.76052 
L 1477.577796 302.887822 
L 1490.121212 283.688695 
L 1499.33348 262.686841 
L 1504.963312 240.455135 
L 1506.857143 217.6 
" style="fill:none;stroke:#ff7f0e;stroke-width:10;"/>
   </g>
   <g id="LineCollection_6">
    <path clip-path="url(#p34b51840e5)" d="M 1506.857143 217.6 
L 1229.142857 217.6 
M 1505.443777 237.361432 
L 1230.556223 197.838568 
M 1501.232453 256.720578 
L 1234.767547 178.479422 
M 1494.3089 275.283342 
L 1241.6911 159.916658 
M 1484.814062 292.671839 
L 1251.185938 142.528161 
M 1472.941227 308.53209 
L 1263.058773 126.66791 
M 1458.93209 322.541227 
L 1277.06791 112.658773 
M 1443.071839 334.414062 
L 1292.928161 100.785938 
M 1425.683342 343.9089 
L 1310.316658 91.2911 
L 1310.316658 91.2911 
" style="fill:none;stroke:#ff7f0e;stroke-width:0.5;"/>
    <path clip-path="url(#p34b51840e5)" d="M 1328.879422 84.367547 
L 1407.120578 350.832453 
M 1348.238568 80.156223 
L 1387.761432 355.043777 
M 1368 78.742857 
L 1368 356.457143 
M 1387.761432 80.156223 
L 1348.238568 355.043777 
M 1407.120578 84.367547 
L 1328.879422 350.832453 
M 1425.683342 91.2911 
L 1310.316658 343.9089 
M 1443.071839 100.785938 
L 1292.928161 334.414062 
M 1458.93209 112.658773 
L 1277.06791 322.541227 
M 1472.941227 126.66791 
L 1263.058773 308.53209 
M 1484.814062 142.528161 
L 1251.185938 292.671839 
M 1494.3089 159.916658 
L 1241.6911 275.283342 
M 1501.232453 178.479422 
L 1234.767547 256.720578 
M 1505.443777 197.838568 
L 1230.556223 237.361432 
M 1506.857143 217.6 
L 1229.142857 217.6 
L 1229.142857 217.6 
" style="fill:none;stroke:#aec7e8;stroke-width:0.5;"/>
   </g>
   <g id="PathCollection_3">
    <defs>
     <path d="M 0 5 
C 1.326016 5 2.597899 4.473168 3.535534 3.535534 
C 4.473168 2.597899 5 1.326016 5 -0 
C 5 -1.326016 4.473168 -2.597899 3.535534 -3.535534 
C 2.597899 -4.473168 1.326016 -5 0 -5 
C -1.326016 -5 -2.597899 -4.473168 -3.535534 -3.535534 
C -4.473168 -2.597899 -5 -1.326016 -5 0 
C -5 1.326016 -4.473168 2.597899 -3.535534 3.535534 
C -2.597899 4.473168 -1.326016 5 0 5 
z
" id="C2_0_da72135010"/>
    </defs>
    <g clip-path="url(#p34b51840e5)">
     <use style="fill:#aec7e8;stroke:#000000;" x="1368" xlink:href="#C2_0_da72135010" y="78.742857"/>
    </g>
    <g clip-path="url(#p34b51840e5)">
     <use style="fill:#ff7f0e;stroke:#000000;" x="1368" xlink:href="#C2_0_da72135010" y="356.457143"/>
    </g>
   </g>
   <g id="text_8">
    <!-- AP-AT-03-W35 -->
    <g transform="translate(1370.2075 71.8)rotate(-90)scale(0.08 -0.08)">
     <use xlink:href="#DejaVuSans-65"/>
     <use x="68.408203" xlink:href="#DejaVuSans-80"/>
     <use x="126.460938" xlink:href="#DejaVuSans-45"/>
     <use x="160.294922" xlink:href="#DejaVuSans-65"/>
     <use x="220.953125" xlink:href="#DejaVuSans-84"/>
     <use x="272.912109" xlink:href="#DejaVuSans-45"/>
     <use x="308.996094" xlink:href="#DejaVuSans-48"/>
     <use x="372.619141" xlink:href="#DejaVuSans-51"/>
     <use x="436.242188" xlink:href="#DejaVuSans-45"/>
     <use x="468.326172" xlink:href="#DejaVuSans-87"/>
     <use x="567.203125" xlink:href="#DejaVuSans-51"/>
     <use x="630.826172" xlink:href="#DejaVuSans-53"/>
    </g>
   </g>
   <g id="text_9">
    <!-- AP-AT-03-W36-37 -->
    <g transform="translate(1365.7925 363.4)rotate(-270)scale(0.08 -0.08)">
     <use xlink:href="#DejaVuSans-65"/>
     <use x="68.408203" xlink:href="#DejaVuSans-80"/>
     <use x="126.460938" xlink:href="#DejaVuSans-45"/>
     <use x="160.294922" xlink:href="#DejaVuSans-65"/>
     <use x="220.953125" xlink:href="#DejaVuSans-84"/>
     <use x="272.912109" xlink:href="#DejaVuSans-45"/>
     <use x="308.996094" xlink:href="#DejaVuSans-48"/>
     <use x="372.619141" xlink:href="#DejaVuSans-51"/>
     <use x="436.242188" xlink:href="#DejaVuSans-45"/>
     <use x="468.326172" xlink:href="#DejaVuSans-87"/>
     <use x="567.203125" xlink:href="#DejaVuSans-51"/>
     <use x="630.826172" xlink:href="#DejaVuSans-54"/>
     <use x="694.449219" xlink:href="#DejaVuSans-45"/>
     <use x="730.533203" xlink:href="#DejaVuSans-51"/>
     <use x="794.15625" xlink:href="#DejaVuSans-55"/>
    </g>
   </g>
   <g id="text_10">
    <!-- Movements cluster 3 -->
    <g transform="translate(1305.05625 17.2)scale(0.12 -0.12)">
     <use xlink:href="#DejaVuSans-77"/>
     <use x="86.279297" xlink:href="#DejaVuSans-111"/>
     <use x="147.460938" xlink:href="#DejaVuSans-118"/>
     <use x="206.640625" xlink:href="#DejaVuSans-101"/>
     <use x="268.164062" xlink:href="#DejaVuSans-109"/>
     <use x="365.576172" xlink:href="#DejaVuSans-101"/>
     <use x="427.099609" xlink:href="#DejaVuSans-110"/>
     <use x="490.478516" xlink:href="#DejaVuSans-116"/>
     <use x="529.6875" xlink:href="#DejaVuSans-115"/>
     <use x="581.787109" xlink:href="#DejaVuSans-32"/>
     <use x="613.574219" xlink:href="#DejaVuSans-99"/>
     <use x="668.554688" xlink:href="#DejaVuSans-108"/>
     <use x="696.337891" xlink:href="#DejaVuSans-117"/>
     <use x="759.716797" xlink:href="#DejaVuSans-115"/>
     <use x="811.816406" xlink:href="#DejaVuSans-116"/>
     <use x="851.025391" xlink:href="#DejaVuSans-101"/>
     <use x="912.548828" xlink:href="#DejaVuSans-114"/>
     <use x="953.662109" xlink:href="#DejaVuSans-32"/>
     <use x="985.449219" xlink:href="#DejaVuSans-51"/>
    </g>
   </g>
  </g>
 </g>
 <defs>
  <clipPath id="p9a129ab9f1">
   <rect height="388.8" width="388.8" x="7.2" y="23.2"/>
  </clipPath>
  <clipPath id="p9285e46df7">
   <rect height="388.8" width="388.8" x="590.4" y="23.2"/>
  </clipPath>
  <clipPath id="p34b51840e5">
   <rect height="388.8" width="388.8" x="1173.6" y="23.2"/>
  </clipPath>
 </defs>
</svg>
